<?xml version="1.0" encoding="utf-8" standalone="no"?>
<!DOCTYPE svg PUBLIC "-//W3C//DTD SVG 1.1//EN"
  "http://www.w3.org/Graphics/SVG/1.1/DTD/svg11.dtd">
<!-- Created with matplotlib (http://matplotlib.org/) -->
<svg height="288pt" version="1.1" viewBox="0 0 288 288" width="288pt" xmlns="http://www.w3.org/2000/svg" xmlns:xlink="http://www.w3.org/1999/xlink">
 <defs>
  <style type="text/css">
*{stroke-linecap:butt;stroke-linejoin:round;}
  </style>
 </defs>
 <g id="figure_1">
  <g id="patch_1">
   <path d="M 0 288 
L 288 288 
L 288 0 
L 0 0 
z
" style="fill:#ffffff;"/>
  </g>
  <g id="axes_1">
   <g id="patch_2">
    <path d="M 61.878125 246.821875 
L 273.7 246.821875 
L 273.7 14.3 
L 61.878125 14.3 
z
" style="fill:#ffffff;"/>
   </g>
   <g id="matplotlib.axis_1">
    <g id="xtick_1">
     <g id="line2d_1">
      <defs>
       <path d="M 0 0 
L 0 3.5 
" id="maeb7a38ed1" style="stroke:#000000;stroke-width:0.8;"/>
      </defs>
      <g>
       <use style="stroke:#000000;stroke-width:0.8;" x="95.11018" xlink:href="#maeb7a38ed1" y="246.821875"/>
      </g>
     </g>
     <g id="text_1">
      <!-- 0 -->
      <defs>
       <path d="M 31.78125 66.40625 
Q 24.171875 66.40625 20.328125 58.90625 
Q 16.5 51.421875 16.5 36.375 
Q 16.5 21.390625 20.328125 13.890625 
Q 24.171875 6.390625 31.78125 6.390625 
Q 39.453125 6.390625 43.28125 13.890625 
Q 47.125 21.390625 47.125 36.375 
Q 47.125 51.421875 43.28125 58.90625 
Q 39.453125 66.40625 31.78125 66.40625 
z
M 31.78125 74.21875 
Q 44.046875 74.21875 50.515625 64.515625 
Q 56.984375 54.828125 56.984375 36.375 
Q 56.984375 17.96875 50.515625 8.265625 
Q 44.046875 -1.421875 31.78125 -1.421875 
Q 19.53125 -1.421875 13.0625 8.265625 
Q 6.59375 17.96875 6.59375 36.375 
Q 6.59375 54.828125 13.0625 64.515625 
Q 19.53125 74.21875 31.78125 74.21875 
z
" id="DejaVuSans-30"/>
      </defs>
      <g transform="translate(91.92893 261.420313)scale(0.1 -0.1)">
       <use xlink:href="#DejaVuSans-30"/>
      </g>
     </g>
    </g>
    <g id="xtick_2">
     <g id="line2d_2">
      <g>
       <use style="stroke:#000000;stroke-width:0.8;" x="135.076571" xlink:href="#maeb7a38ed1" y="246.821875"/>
      </g>
     </g>
     <g id="text_2">
      <!-- 100 -->
      <defs>
       <path d="M 12.40625 8.296875 
L 28.515625 8.296875 
L 28.515625 63.921875 
L 10.984375 60.40625 
L 10.984375 69.390625 
L 28.421875 72.90625 
L 38.28125 72.90625 
L 38.28125 8.296875 
L 54.390625 8.296875 
L 54.390625 0 
L 12.40625 0 
z
" id="DejaVuSans-31"/>
      </defs>
      <g transform="translate(125.532821 261.420313)scale(0.1 -0.1)">
       <use xlink:href="#DejaVuSans-31"/>
       <use x="63.623047" xlink:href="#DejaVuSans-30"/>
       <use x="127.246094" xlink:href="#DejaVuSans-30"/>
      </g>
     </g>
    </g>
    <g id="xtick_3">
     <g id="line2d_3">
      <g>
       <use style="stroke:#000000;stroke-width:0.8;" x="175.042963" xlink:href="#maeb7a38ed1" y="246.821875"/>
      </g>
     </g>
     <g id="text_3">
      <!-- 200 -->
      <defs>
       <path d="M 19.1875 8.296875 
L 53.609375 8.296875 
L 53.609375 0 
L 7.328125 0 
L 7.328125 8.296875 
Q 12.9375 14.109375 22.625 23.890625 
Q 32.328125 33.6875 34.8125 36.53125 
Q 39.546875 41.84375 41.421875 45.53125 
Q 43.3125 49.21875 43.3125 52.78125 
Q 43.3125 58.59375 39.234375 62.25 
Q 35.15625 65.921875 28.609375 65.921875 
Q 23.96875 65.921875 18.8125 64.3125 
Q 13.671875 62.703125 7.8125 59.421875 
L 7.8125 69.390625 
Q 13.765625 71.78125 18.9375 73 
Q 24.125 74.21875 28.421875 74.21875 
Q 39.75 74.21875 46.484375 68.546875 
Q 53.21875 62.890625 53.21875 53.421875 
Q 53.21875 48.921875 51.53125 44.890625 
Q 49.859375 40.875 45.40625 35.40625 
Q 44.1875 33.984375 37.640625 27.21875 
Q 31.109375 20.453125 19.1875 8.296875 
z
" id="DejaVuSans-32"/>
      </defs>
      <g transform="translate(165.499213 261.420313)scale(0.1 -0.1)">
       <use xlink:href="#DejaVuSans-32"/>
       <use x="63.623047" xlink:href="#DejaVuSans-30"/>
       <use x="127.246094" xlink:href="#DejaVuSans-30"/>
      </g>
     </g>
    </g>
    <g id="xtick_4">
     <g id="line2d_4">
      <g>
       <use style="stroke:#000000;stroke-width:0.8;" x="215.009354" xlink:href="#maeb7a38ed1" y="246.821875"/>
      </g>
     </g>
     <g id="text_4">
      <!-- 300 -->
      <defs>
       <path d="M 40.578125 39.3125 
Q 47.65625 37.796875 51.625 33 
Q 55.609375 28.21875 55.609375 21.1875 
Q 55.609375 10.40625 48.1875 4.484375 
Q 40.765625 -1.421875 27.09375 -1.421875 
Q 22.515625 -1.421875 17.65625 -0.515625 
Q 12.796875 0.390625 7.625 2.203125 
L 7.625 11.71875 
Q 11.71875 9.328125 16.59375 8.109375 
Q 21.484375 6.890625 26.8125 6.890625 
Q 36.078125 6.890625 40.9375 10.546875 
Q 45.796875 14.203125 45.796875 21.1875 
Q 45.796875 27.640625 41.28125 31.265625 
Q 36.765625 34.90625 28.71875 34.90625 
L 20.21875 34.90625 
L 20.21875 43.015625 
L 29.109375 43.015625 
Q 36.375 43.015625 40.234375 45.921875 
Q 44.09375 48.828125 44.09375 54.296875 
Q 44.09375 59.90625 40.109375 62.90625 
Q 36.140625 65.921875 28.71875 65.921875 
Q 24.65625 65.921875 20.015625 65.03125 
Q 15.375 64.15625 9.8125 62.3125 
L 9.8125 71.09375 
Q 15.4375 72.65625 20.34375 73.4375 
Q 25.25 74.21875 29.59375 74.21875 
Q 40.828125 74.21875 47.359375 69.109375 
Q 53.90625 64.015625 53.90625 55.328125 
Q 53.90625 49.265625 50.4375 45.09375 
Q 46.96875 40.921875 40.578125 39.3125 
z
" id="DejaVuSans-33"/>
      </defs>
      <g transform="translate(205.465604 261.420313)scale(0.1 -0.1)">
       <use xlink:href="#DejaVuSans-33"/>
       <use x="63.623047" xlink:href="#DejaVuSans-30"/>
       <use x="127.246094" xlink:href="#DejaVuSans-30"/>
      </g>
     </g>
    </g>
    <g id="xtick_5">
     <g id="line2d_5">
      <g>
       <use style="stroke:#000000;stroke-width:0.8;" x="254.975746" xlink:href="#maeb7a38ed1" y="246.821875"/>
      </g>
     </g>
     <g id="text_5">
      <!-- 400 -->
      <defs>
       <path d="M 37.796875 64.3125 
L 12.890625 25.390625 
L 37.796875 25.390625 
z
M 35.203125 72.90625 
L 47.609375 72.90625 
L 47.609375 25.390625 
L 58.015625 25.390625 
L 58.015625 17.1875 
L 47.609375 17.1875 
L 47.609375 0 
L 37.796875 0 
L 37.796875 17.1875 
L 4.890625 17.1875 
L 4.890625 26.703125 
z
" id="DejaVuSans-34"/>
      </defs>
      <g transform="translate(245.431996 261.420313)scale(0.1 -0.1)">
       <use xlink:href="#DejaVuSans-34"/>
       <use x="63.623047" xlink:href="#DejaVuSans-30"/>
       <use x="127.246094" xlink:href="#DejaVuSans-30"/>
      </g>
     </g>
    </g>
    <g id="text_6">
     <!-- Temperature ($\mathregular{^{\circ}C}$) -->
     <defs>
      <path d="M -0.296875 72.90625 
L 61.375 72.90625 
L 61.375 64.59375 
L 35.5 64.59375 
L 35.5 0 
L 25.59375 0 
L 25.59375 64.59375 
L -0.296875 64.59375 
z
" id="DejaVuSans-54"/>
      <path d="M 56.203125 29.59375 
L 56.203125 25.203125 
L 14.890625 25.203125 
Q 15.484375 15.921875 20.484375 11.0625 
Q 25.484375 6.203125 34.421875 6.203125 
Q 39.59375 6.203125 44.453125 7.46875 
Q 49.3125 8.734375 54.109375 11.28125 
L 54.109375 2.78125 
Q 49.265625 0.734375 44.1875 -0.34375 
Q 39.109375 -1.421875 33.890625 -1.421875 
Q 20.796875 -1.421875 13.15625 6.1875 
Q 5.515625 13.8125 5.515625 26.8125 
Q 5.515625 40.234375 12.765625 48.109375 
Q 20.015625 56 32.328125 56 
Q 43.359375 56 49.78125 48.890625 
Q 56.203125 41.796875 56.203125 29.59375 
z
M 47.21875 32.234375 
Q 47.125 39.59375 43.09375 43.984375 
Q 39.0625 48.390625 32.421875 48.390625 
Q 24.90625 48.390625 20.390625 44.140625 
Q 15.875 39.890625 15.1875 32.171875 
z
" id="DejaVuSans-65"/>
      <path d="M 52 44.1875 
Q 55.375 50.25 60.0625 53.125 
Q 64.75 56 71.09375 56 
Q 79.640625 56 84.28125 50.015625 
Q 88.921875 44.046875 88.921875 33.015625 
L 88.921875 0 
L 79.890625 0 
L 79.890625 32.71875 
Q 79.890625 40.578125 77.09375 44.375 
Q 74.3125 48.1875 68.609375 48.1875 
Q 61.625 48.1875 57.5625 43.546875 
Q 53.515625 38.921875 53.515625 30.90625 
L 53.515625 0 
L 44.484375 0 
L 44.484375 32.71875 
Q 44.484375 40.625 41.703125 44.40625 
Q 38.921875 48.1875 33.109375 48.1875 
Q 26.21875 48.1875 22.15625 43.53125 
Q 18.109375 38.875 18.109375 30.90625 
L 18.109375 0 
L 9.078125 0 
L 9.078125 54.6875 
L 18.109375 54.6875 
L 18.109375 46.1875 
Q 21.1875 51.21875 25.484375 53.609375 
Q 29.78125 56 35.6875 56 
Q 41.65625 56 45.828125 52.96875 
Q 50 49.953125 52 44.1875 
z
" id="DejaVuSans-6d"/>
      <path d="M 18.109375 8.203125 
L 18.109375 -20.796875 
L 9.078125 -20.796875 
L 9.078125 54.6875 
L 18.109375 54.6875 
L 18.109375 46.390625 
Q 20.953125 51.265625 25.265625 53.625 
Q 29.59375 56 35.59375 56 
Q 45.5625 56 51.78125 48.09375 
Q 58.015625 40.1875 58.015625 27.296875 
Q 58.015625 14.40625 51.78125 6.484375 
Q 45.5625 -1.421875 35.59375 -1.421875 
Q 29.59375 -1.421875 25.265625 0.953125 
Q 20.953125 3.328125 18.109375 8.203125 
z
M 48.6875 27.296875 
Q 48.6875 37.203125 44.609375 42.84375 
Q 40.53125 48.484375 33.40625 48.484375 
Q 26.265625 48.484375 22.1875 42.84375 
Q 18.109375 37.203125 18.109375 27.296875 
Q 18.109375 17.390625 22.1875 11.75 
Q 26.265625 6.109375 33.40625 6.109375 
Q 40.53125 6.109375 44.609375 11.75 
Q 48.6875 17.390625 48.6875 27.296875 
z
" id="DejaVuSans-70"/>
      <path d="M 41.109375 46.296875 
Q 39.59375 47.171875 37.8125 47.578125 
Q 36.03125 48 33.890625 48 
Q 26.265625 48 22.1875 43.046875 
Q 18.109375 38.09375 18.109375 28.8125 
L 18.109375 0 
L 9.078125 0 
L 9.078125 54.6875 
L 18.109375 54.6875 
L 18.109375 46.1875 
Q 20.953125 51.171875 25.484375 53.578125 
Q 30.03125 56 36.53125 56 
Q 37.453125 56 38.578125 55.875 
Q 39.703125 55.765625 41.0625 55.515625 
z
" id="DejaVuSans-72"/>
      <path d="M 34.28125 27.484375 
Q 23.390625 27.484375 19.1875 25 
Q 14.984375 22.515625 14.984375 16.5 
Q 14.984375 11.71875 18.140625 8.90625 
Q 21.296875 6.109375 26.703125 6.109375 
Q 34.1875 6.109375 38.703125 11.40625 
Q 43.21875 16.703125 43.21875 25.484375 
L 43.21875 27.484375 
z
M 52.203125 31.203125 
L 52.203125 0 
L 43.21875 0 
L 43.21875 8.296875 
Q 40.140625 3.328125 35.546875 0.953125 
Q 30.953125 -1.421875 24.3125 -1.421875 
Q 15.921875 -1.421875 10.953125 3.296875 
Q 6 8.015625 6 15.921875 
Q 6 25.140625 12.171875 29.828125 
Q 18.359375 34.515625 30.609375 34.515625 
L 43.21875 34.515625 
L 43.21875 35.40625 
Q 43.21875 41.609375 39.140625 45 
Q 35.0625 48.390625 27.6875 48.390625 
Q 23 48.390625 18.546875 47.265625 
Q 14.109375 46.140625 10.015625 43.890625 
L 10.015625 52.203125 
Q 14.9375 54.109375 19.578125 55.046875 
Q 24.21875 56 28.609375 56 
Q 40.484375 56 46.34375 49.84375 
Q 52.203125 43.703125 52.203125 31.203125 
z
" id="DejaVuSans-61"/>
      <path d="M 18.3125 70.21875 
L 18.3125 54.6875 
L 36.8125 54.6875 
L 36.8125 47.703125 
L 18.3125 47.703125 
L 18.3125 18.015625 
Q 18.3125 11.328125 20.140625 9.421875 
Q 21.96875 7.515625 27.59375 7.515625 
L 36.8125 7.515625 
L 36.8125 0 
L 27.59375 0 
Q 17.1875 0 13.234375 3.875 
Q 9.28125 7.765625 9.28125 18.015625 
L 9.28125 47.703125 
L 2.6875 47.703125 
L 2.6875 54.6875 
L 9.28125 54.6875 
L 9.28125 70.21875 
z
" id="DejaVuSans-74"/>
      <path d="M 8.5 21.578125 
L 8.5 54.6875 
L 17.484375 54.6875 
L 17.484375 21.921875 
Q 17.484375 14.15625 20.5 10.265625 
Q 23.53125 6.390625 29.59375 6.390625 
Q 36.859375 6.390625 41.078125 11.03125 
Q 45.3125 15.671875 45.3125 23.6875 
L 45.3125 54.6875 
L 54.296875 54.6875 
L 54.296875 0 
L 45.3125 0 
L 45.3125 8.40625 
Q 42.046875 3.421875 37.71875 1 
Q 33.40625 -1.421875 27.6875 -1.421875 
Q 18.265625 -1.421875 13.375 4.4375 
Q 8.5 10.296875 8.5 21.578125 
z
M 31.109375 56 
z
" id="DejaVuSans-75"/>
      <path id="DejaVuSans-20"/>
      <path d="M 31 75.875 
Q 24.46875 64.65625 21.28125 53.65625 
Q 18.109375 42.671875 18.109375 31.390625 
Q 18.109375 20.125 21.3125 9.0625 
Q 24.515625 -2 31 -13.1875 
L 23.1875 -13.1875 
Q 15.875 -1.703125 12.234375 9.375 
Q 8.59375 20.453125 8.59375 31.390625 
Q 8.59375 42.28125 12.203125 53.3125 
Q 15.828125 64.359375 23.1875 75.875 
z
" id="DejaVuSans-28"/>
      <path d="M 31.25 40.921875 
Q 27.34375 40.921875 24.65625 38.203125 
Q 21.96875 35.5 21.96875 31.59375 
Q 21.96875 27.734375 24.65625 25.078125 
Q 27.34375 22.421875 31.25 22.421875 
Q 35.15625 22.421875 37.84375 25.078125 
Q 40.53125 27.734375 40.53125 31.59375 
Q 40.53125 35.453125 37.8125 38.1875 
Q 35.109375 40.921875 31.25 40.921875 
z
M 31.25 47.21875 
Q 34.375 47.21875 37.25 46.015625 
Q 40.140625 44.828125 42.234375 42.578125 
Q 44.484375 40.390625 45.609375 37.59375 
Q 46.734375 34.8125 46.734375 31.59375 
Q 46.734375 25.15625 42.21875 20.6875 
Q 37.703125 16.21875 31.15625 16.21875 
Q 24.5625 16.21875 20.15625 20.609375 
Q 15.765625 25 15.765625 31.59375 
Q 15.765625 38.140625 20.25 42.671875 
Q 24.75 47.21875 31.25 47.21875 
z
" id="DejaVuSans-2218"/>
      <path d="M 64.40625 67.28125 
L 64.40625 56.890625 
Q 59.421875 61.53125 53.78125 63.8125 
Q 48.140625 66.109375 41.796875 66.109375 
Q 29.296875 66.109375 22.65625 58.46875 
Q 16.015625 50.828125 16.015625 36.375 
Q 16.015625 21.96875 22.65625 14.328125 
Q 29.296875 6.6875 41.796875 6.6875 
Q 48.140625 6.6875 53.78125 8.984375 
Q 59.421875 11.28125 64.40625 15.921875 
L 64.40625 5.609375 
Q 59.234375 2.09375 53.4375 0.328125 
Q 47.65625 -1.421875 41.21875 -1.421875 
Q 24.65625 -1.421875 15.125 8.703125 
Q 5.609375 18.84375 5.609375 36.375 
Q 5.609375 53.953125 15.125 64.078125 
Q 24.65625 74.21875 41.21875 74.21875 
Q 47.75 74.21875 53.53125 72.484375 
Q 59.328125 70.75 64.40625 67.28125 
z
" id="DejaVuSans-43"/>
      <path d="M 8.015625 75.875 
L 15.828125 75.875 
Q 23.140625 64.359375 26.78125 53.3125 
Q 30.421875 42.28125 30.421875 31.390625 
Q 30.421875 20.453125 26.78125 9.375 
Q 23.140625 -1.703125 15.828125 -13.1875 
L 8.015625 -13.1875 
Q 14.5 -2 17.703125 9.0625 
Q 20.90625 20.125 20.90625 31.390625 
Q 20.90625 42.671875 17.703125 53.65625 
Q 14.5 64.65625 8.015625 75.875 
z
" id="DejaVuSans-29"/>
     </defs>
     <g transform="translate(123.789063 275.1)scale(0.1 -0.1)">
      <use transform="translate(0 0.125)" xlink:href="#DejaVuSans-54"/>
      <use transform="translate(61.083984 0.125)" xlink:href="#DejaVuSans-65"/>
      <use transform="translate(122.607422 0.125)" xlink:href="#DejaVuSans-6d"/>
      <use transform="translate(220.019531 0.125)" xlink:href="#DejaVuSans-70"/>
      <use transform="translate(283.496094 0.125)" xlink:href="#DejaVuSans-65"/>
      <use transform="translate(345.019531 0.125)" xlink:href="#DejaVuSans-72"/>
      <use transform="translate(386.132812 0.125)" xlink:href="#DejaVuSans-61"/>
      <use transform="translate(447.412109 0.125)" xlink:href="#DejaVuSans-74"/>
      <use transform="translate(486.621094 0.125)" xlink:href="#DejaVuSans-75"/>
      <use transform="translate(550 0.125)" xlink:href="#DejaVuSans-72"/>
      <use transform="translate(591.113281 0.125)" xlink:href="#DejaVuSans-65"/>
      <use transform="translate(652.636719 0.125)" xlink:href="#DejaVuSans-20"/>
      <use transform="translate(684.423828 0.125)" xlink:href="#DejaVuSans-28"/>
      <use transform="translate(724.394531 38.40625)scale(0.7)" xlink:href="#DejaVuSans-2218"/>
      <use transform="translate(770.947266 0.125)" xlink:href="#DejaVuSans-43"/>
      <use transform="translate(840.771484 0.125)" xlink:href="#DejaVuSans-29"/>
     </g>
    </g>
   </g>
   <g id="matplotlib.axis_2">
    <g id="ytick_1">
     <g id="line2d_6">
      <defs>
       <path d="M 0 0 
L -3.5 0 
" id="mf21489ebe7" style="stroke:#000000;stroke-width:0.8;"/>
      </defs>
      <g>
       <use style="stroke:#000000;stroke-width:0.8;" x="61.878125" xlink:href="#mf21489ebe7" y="246.821875"/>
      </g>
     </g>
    </g>
    <g id="ytick_2">
     <g id="line2d_7">
      <g>
       <use style="stroke:#000000;stroke-width:0.8;" x="61.878125" xlink:href="#mf21489ebe7" y="226.246593"/>
      </g>
     </g>
     <g id="text_7">
      <!-- $\mathregular{1\ Pa}$ -->
      <defs>
       <path d="M 19.671875 64.796875 
L 19.671875 37.40625 
L 32.078125 37.40625 
Q 38.96875 37.40625 42.71875 40.96875 
Q 46.484375 44.53125 46.484375 51.125 
Q 46.484375 57.671875 42.71875 61.234375 
Q 38.96875 64.796875 32.078125 64.796875 
z
M 9.8125 72.90625 
L 32.078125 72.90625 
Q 44.34375 72.90625 50.609375 67.359375 
Q 56.890625 61.8125 56.890625 51.125 
Q 56.890625 40.328125 50.609375 34.8125 
Q 44.34375 29.296875 32.078125 29.296875 
L 19.671875 29.296875 
L 19.671875 0 
L 9.8125 0 
z
" id="DejaVuSans-50"/>
      </defs>
      <g transform="translate(33.078125 230.045812)scale(0.1 -0.1)">
       <use transform="translate(0 0.09375)" xlink:href="#DejaVuSans-31"/>
       <use transform="translate(96.093425 0.09375)" xlink:href="#DejaVuSans-50"/>
       <use transform="translate(156.39616 0.09375)" xlink:href="#DejaVuSans-61"/>
      </g>
     </g>
    </g>
    <g id="ytick_3">
     <g id="line2d_8">
      <g>
       <use style="stroke:#000000;stroke-width:0.8;" x="61.878125" xlink:href="#mf21489ebe7" y="205.671312"/>
      </g>
     </g>
    </g>
    <g id="ytick_4">
     <g id="line2d_9">
      <g>
       <use style="stroke:#000000;stroke-width:0.8;" x="61.878125" xlink:href="#mf21489ebe7" y="185.09603"/>
      </g>
     </g>
    </g>
    <g id="ytick_5">
     <g id="line2d_10">
      <g>
       <use style="stroke:#000000;stroke-width:0.8;" x="61.878125" xlink:href="#mf21489ebe7" y="164.520748"/>
      </g>
     </g>
     <g id="text_8">
      <!-- $\mathregular{1\ kPa}$ -->
      <defs>
       <path d="M 9.078125 75.984375 
L 18.109375 75.984375 
L 18.109375 31.109375 
L 44.921875 54.6875 
L 56.390625 54.6875 
L 27.390625 29.109375 
L 57.625 0 
L 45.90625 0 
L 18.109375 26.703125 
L 18.109375 0 
L 9.078125 0 
z
" id="DejaVuSans-6b"/>
      </defs>
      <g transform="translate(27.278125 168.319967)scale(0.1 -0.1)">
       <use transform="translate(0 0.015625)" xlink:href="#DejaVuSans-31"/>
       <use transform="translate(96.093425 0.015625)" xlink:href="#DejaVuSans-6b"/>
       <use transform="translate(154.003582 0.015625)" xlink:href="#DejaVuSans-50"/>
       <use transform="translate(214.306316 0.015625)" xlink:href="#DejaVuSans-61"/>
      </g>
     </g>
    </g>
    <g id="ytick_6">
     <g id="line2d_11">
      <g>
       <use style="stroke:#000000;stroke-width:0.8;" x="61.878125" xlink:href="#mf21489ebe7" y="143.945467"/>
      </g>
     </g>
    </g>
    <g id="ytick_7">
     <g id="line2d_12">
      <g>
       <use style="stroke:#000000;stroke-width:0.8;" x="61.878125" xlink:href="#mf21489ebe7" y="123.370185"/>
      </g>
     </g>
    </g>
    <g id="ytick_8">
     <g id="line2d_13">
      <g>
       <use style="stroke:#000000;stroke-width:0.8;" x="61.878125" xlink:href="#mf21489ebe7" y="102.794904"/>
      </g>
     </g>
     <g id="text_9">
      <!-- $\mathregular{1\ MPa}$ -->
      <defs>
       <path d="M 9.8125 72.90625 
L 24.515625 72.90625 
L 43.109375 23.296875 
L 61.8125 72.90625 
L 76.515625 72.90625 
L 76.515625 0 
L 66.890625 0 
L 66.890625 64.015625 
L 48.09375 14.015625 
L 38.1875 14.015625 
L 19.390625 64.015625 
L 19.390625 0 
L 9.8125 0 
z
" id="DejaVuSans-4d"/>
      </defs>
      <g transform="translate(24.478125 106.594122)scale(0.1 -0.1)">
       <use transform="translate(0 0.09375)" xlink:href="#DejaVuSans-31"/>
       <use transform="translate(96.093425 0.09375)" xlink:href="#DejaVuSans-4d"/>
       <use transform="translate(182.372722 0.09375)" xlink:href="#DejaVuSans-50"/>
       <use transform="translate(242.675457 0.09375)" xlink:href="#DejaVuSans-61"/>
      </g>
     </g>
    </g>
    <g id="ytick_9">
     <g id="line2d_14">
      <g>
       <use style="stroke:#000000;stroke-width:0.8;" x="61.878125" xlink:href="#mf21489ebe7" y="82.219622"/>
      </g>
     </g>
    </g>
    <g id="ytick_10">
     <g id="line2d_15">
      <g>
       <use style="stroke:#000000;stroke-width:0.8;" x="61.878125" xlink:href="#mf21489ebe7" y="61.64434"/>
      </g>
     </g>
    </g>
    <g id="ytick_11">
     <g id="line2d_16">
      <g>
       <use style="stroke:#000000;stroke-width:0.8;" x="61.878125" xlink:href="#mf21489ebe7" y="41.069059"/>
      </g>
     </g>
     <g id="text_10">
      <!-- $\mathregular{1\ GPa}$ -->
      <defs>
       <path d="M 59.515625 10.40625 
L 59.515625 29.984375 
L 43.40625 29.984375 
L 43.40625 38.09375 
L 69.28125 38.09375 
L 69.28125 6.78125 
Q 63.578125 2.734375 56.6875 0.65625 
Q 49.8125 -1.421875 42 -1.421875 
Q 24.90625 -1.421875 15.25 8.5625 
Q 5.609375 18.5625 5.609375 36.375 
Q 5.609375 54.25 15.25 64.234375 
Q 24.90625 74.21875 42 74.21875 
Q 49.125 74.21875 55.546875 72.453125 
Q 61.96875 70.703125 67.390625 67.28125 
L 67.390625 56.78125 
Q 61.921875 61.421875 55.765625 63.765625 
Q 49.609375 66.109375 42.828125 66.109375 
Q 29.4375 66.109375 22.71875 58.640625 
Q 16.015625 51.171875 16.015625 36.375 
Q 16.015625 21.625 22.71875 14.15625 
Q 29.4375 6.6875 42.828125 6.6875 
Q 48.046875 6.6875 52.140625 7.59375 
Q 56.25 8.5 59.515625 10.40625 
z
" id="DejaVuSans-47"/>
      </defs>
      <g transform="translate(25.278125 44.868277)scale(0.1 -0.1)">
       <use transform="translate(0 0.78125)" xlink:href="#DejaVuSans-31"/>
       <use transform="translate(96.093425 0.78125)" xlink:href="#DejaVuSans-47"/>
       <use transform="translate(173.58366 0.78125)" xlink:href="#DejaVuSans-50"/>
       <use transform="translate(233.886394 0.78125)" xlink:href="#DejaVuSans-61"/>
      </g>
     </g>
    </g>
    <g id="ytick_12">
     <g id="line2d_17">
      <g>
       <use style="stroke:#000000;stroke-width:0.8;" x="61.878125" xlink:href="#mf21489ebe7" y="20.493777"/>
      </g>
     </g>
    </g>
    <g id="text_11">
     <!-- Pressure -->
     <defs>
      <path d="M 44.28125 53.078125 
L 44.28125 44.578125 
Q 40.484375 46.53125 36.375 47.5 
Q 32.28125 48.484375 27.875 48.484375 
Q 21.1875 48.484375 17.84375 46.4375 
Q 14.5 44.390625 14.5 40.28125 
Q 14.5 37.15625 16.890625 35.375 
Q 19.28125 33.59375 26.515625 31.984375 
L 29.59375 31.296875 
Q 39.15625 29.25 43.1875 25.515625 
Q 47.21875 21.78125 47.21875 15.09375 
Q 47.21875 7.46875 41.1875 3.015625 
Q 35.15625 -1.421875 24.609375 -1.421875 
Q 20.21875 -1.421875 15.453125 -0.5625 
Q 10.6875 0.296875 5.421875 2 
L 5.421875 11.28125 
Q 10.40625 8.6875 15.234375 7.390625 
Q 20.0625 6.109375 24.8125 6.109375 
Q 31.15625 6.109375 34.5625 8.28125 
Q 37.984375 10.453125 37.984375 14.40625 
Q 37.984375 18.0625 35.515625 20.015625 
Q 33.0625 21.96875 24.703125 23.78125 
L 21.578125 24.515625 
Q 13.234375 26.265625 9.515625 29.90625 
Q 5.8125 33.546875 5.8125 39.890625 
Q 5.8125 47.609375 11.28125 51.796875 
Q 16.75 56 26.8125 56 
Q 31.78125 56 36.171875 55.265625 
Q 40.578125 54.546875 44.28125 53.078125 
z
" id="DejaVuSans-73"/>
     </defs>
     <g transform="translate(18.398438 152.214062)rotate(-90)scale(0.1 -0.1)">
      <use xlink:href="#DejaVuSans-50"/>
      <use x="60.287109" xlink:href="#DejaVuSans-72"/>
      <use x="101.369141" xlink:href="#DejaVuSans-65"/>
      <use x="162.892578" xlink:href="#DejaVuSans-73"/>
      <use x="214.992188" xlink:href="#DejaVuSans-73"/>
      <use x="267.091797" xlink:href="#DejaVuSans-75"/>
      <use x="330.470703" xlink:href="#DejaVuSans-72"/>
      <use x="371.552734" xlink:href="#DejaVuSans-65"/>
     </g>
    </g>
   </g>
   <g id="line2d_18">
    <path clip-path="url(#p73796d83b2)" d="M 86.323568 55.075791 
L 86.502969 55.219208 
L 86.682369 55.365984 
L 86.861769 55.516271 
L 87.041169 55.670234 
L 87.220569 55.828048 
L 87.399969 55.989901 
L 87.579369 56.155996 
L 87.75877 56.32655 
L 87.93817 56.501795 
L 88.11757 56.681985 
L 88.29697 56.867391 
L 88.47637 57.058308 
L 88.65577 57.255056 
L 88.835171 57.457982 
L 89.014571 57.667464 
L 89.193971 57.883914 
L 89.373371 58.107786 
L 89.552771 58.339575 
L 89.732171 58.579826 
L 89.911572 58.829142 
L 90.090972 59.08819 
L 90.270372 59.357711 
L 90.449772 59.638531 
L 90.629172 59.931576 
L 90.808572 60.237886 
L 90.987973 60.558637 
L 91.167373 60.895163 
L 91.346773 61.248988 
L 91.526173 61.621863 
L 91.705573 62.015811 
L 91.884973 62.433186 
L 92.064373 62.876756 
L 92.243774 63.349794 
L 92.423174 63.856219 
L 92.602574 64.400768 
L 92.781974 64.989244 
L 92.961374 65.628862 
L 93.140774 66.328739 
L 93.320175 67.100626 
L 93.499575 67.960026 
L 93.678975 68.92797 
L 93.858375 70.033997 
L 94.037775 71.321427 
L 94.217175 72.857515 
L 94.396576 74.755053 
L 94.575976 77.225678 
L 94.755376 80.744819 
L 94.934776 86.830084 
L 95.114176 168.913407 
" style="fill:none;stroke:#000000;stroke-linecap:square;"/>
   </g>
   <g id="line2d_19">
    <path clip-path="url(#p73796d83b2)" d="M 86.323568 55.075815 
L 86.406815 54.94017 
L 86.490062 54.799911 
L 86.573308 54.654962 
L 86.656555 54.505252 
L 86.739802 54.350714 
L 86.823048 54.191285 
L 86.906295 54.026907 
L 86.989542 53.857528 
L 87.072788 53.683102 
L 87.156035 53.503586 
L 87.239282 53.318945 
L 87.322528 53.12915 
L 87.405775 52.934176 
L 87.489022 52.734008 
L 87.572268 52.528635 
L 87.655515 52.318051 
L 87.738762 52.102259 
L 87.822008 51.881269 
L 87.905255 51.655095 
L 87.988502 51.423758 
L 88.071748 51.187287 
L 88.154995 50.945715 
L 88.238242 50.699082 
L 88.321488 50.447434 
" style="fill:none;stroke:#000000;stroke-linecap:square;"/>
   </g>
   <g id="line2d_20">
    <path clip-path="url(#p73796d83b2)" d="M 88.321488 50.447434 
L 88.607015 50.211561 
L 88.892541 49.977295 
L 89.178068 49.744597 
L 89.463595 49.513429 
L 89.749121 49.283753 
L 90.034648 49.055536 
L 90.320174 48.828742 
L 90.605701 48.60334 
L 90.891227 48.379297 
L 91.176754 48.156585 
L 91.46228 47.935173 
L 91.747807 47.715035 
L 92.033334 47.496142 
L 92.31886 47.278469 
L 92.604387 47.061991 
L 92.889913 46.846684 
L 93.17544 46.632523 
L 93.460966 46.419487 
L 93.746493 46.207554 
L 94.03202 45.996703 
L 94.317546 45.786913 
L 94.603073 45.578165 
L 94.888599 45.370438 
L 95.174126 45.163716 
" style="fill:none;stroke:#000000;stroke-linecap:square;"/>
   </g>
   <g id="line2d_21">
    <path clip-path="url(#p73796d83b2)" d="M 95.174126 45.163707 
L 96.534482 44.618068 
L 97.894838 44.081241 
L 99.255194 43.552859 
L 100.61555 43.032581 
L 101.975906 42.520089 
L 103.336262 42.015088 
L 104.696618 41.517303 
L 106.056974 41.026476 
L 107.41733 40.542365 
L 108.777686 40.064745 
L 110.138042 39.5934 
L 111.498398 39.128132 
L 112.858754 38.66875 
L 114.21911 38.215075 
L 115.579467 37.766937 
L 116.939823 37.324177 
L 118.300179 36.886642 
L 119.660535 36.454187 
L 121.020891 36.026674 
L 122.381247 35.603972 
L 123.741603 35.185956 
L 125.101959 34.772506 
L 126.462315 34.363509 
L 127.822671 33.958854 
" style="fill:none;stroke:#000000;stroke-linecap:square;"/>
   </g>
   <g id="line2d_22">
    <path clip-path="url(#p73796d83b2)" d="M 127.822671 33.958864 
L 129.275994 33.776061 
L 130.729318 33.595365 
L 132.182641 33.416649 
L 133.635964 33.239789 
L 135.089288 33.064664 
L 136.542611 32.891157 
L 137.995934 32.719153 
L 139.449258 32.548537 
L 140.902581 32.3792 
L 142.355904 32.211032 
L 143.809228 32.043927 
L 145.262551 31.877781 
L 146.715874 31.712488 
L 148.169198 31.547949 
L 149.622521 31.384062 
L 151.075844 31.22073 
L 152.529168 31.057853 
L 153.982491 30.895337 
L 155.435814 30.733085 
L 156.889138 30.571004 
L 158.342461 30.409001 
L 159.795784 30.246982 
L 161.249108 30.084857 
L 162.702431 29.922534 
L 164.155754 29.759923 
L 165.609078 29.596936 
L 167.062401 29.433482 
L 168.515724 29.269475 
L 169.969047 29.104825 
L 171.422371 28.939445 
L 172.875694 28.773249 
L 174.329017 28.606151 
L 175.782341 28.438063 
L 177.235664 28.2689 
L 178.688987 28.098576 
L 180.142311 27.927008 
L 181.595634 27.754109 
L 183.048957 27.579796 
L 184.502281 27.403984 
L 185.955604 27.22659 
L 187.408927 27.047532 
L 188.862251 26.866725 
L 190.315574 26.68409 
L 191.768897 26.499543 
L 193.222221 26.313005 
L 194.675544 26.124396 
L 196.128867 25.933636 
L 197.582191 25.740648 
L 199.035514 25.545356 
L 200.488837 25.347685 
L 201.942161 25.147561 
L 203.395484 24.944913 
L 204.848807 24.739672 
L 206.302131 24.531772 
L 207.755454 24.321147 
L 209.208777 24.107739 
L 210.662101 23.89149 
L 212.115424 23.672348 
L 213.568747 23.450266 
L 215.022071 23.225201 
L 216.475394 22.997119 
L 217.928717 22.76599 
L 219.382041 22.531794 
L 220.835364 22.29452 
L 222.288687 22.054166 
L 223.742011 21.810742 
L 225.195334 21.564271 
L 226.648657 21.314791 
L 228.101981 21.062356 
L 229.555304 20.807036 
L 231.008627 20.548924 
L 232.461951 20.288135 
L 233.915274 20.024808 
L 235.368597 19.759111 
L 236.821921 19.491244 
L 238.275244 19.221442 
L 239.728567 18.949978 
L 241.181891 18.677167 
L 242.635214 18.403376 
L 244.088537 18.129023 
L 245.541861 17.854584 
L 246.995184 17.580602 
L 248.448507 17.307694 
L 249.901831 17.036555 
L 251.355154 16.767971 
L 252.808477 16.502825 
L 254.2618 16.242109 
L 255.715124 15.986935 
L 257.168447 15.738549 
L 258.62177 15.49834 
L 260.075094 15.267862 
L 261.528417 15.048842 
L 262.98174 14.843206 
L 264.435064 14.653092 
L 265.888387 14.480876 
L 267.34171 14.329193 
L 268.795034 14.200964 
L 270.248357 14.099423 
L 271.70168 14.028147 
" style="fill:none;stroke:#000000;stroke-linecap:square;"/>
   </g>
   <g id="line2d_23">
    <path clip-path="url(#p73796d83b2)" d="M 54.266459 289 
L 54.573722 287.556645 
L 55.474621 283.432811 
L 56.37552 279.413004 
L 57.276419 275.493348 
L 58.177318 271.670162 
L 59.078217 267.93994 
L 59.979116 264.299349 
L 60.880015 260.745214 
L 61.780914 257.274509 
L 62.681813 253.884347 
L 63.582712 250.571977 
L 64.483611 247.334771 
L 65.38451 244.170219 
L 66.285409 241.075923 
L 67.186308 238.049591 
L 68.087207 235.089029 
L 68.988106 232.192137 
L 69.889005 229.356907 
L 70.789904 226.581412 
L 71.690803 223.863807 
L 72.591702 221.202323 
L 73.492601 218.595262 
L 74.3935 216.040996 
L 75.294399 213.53796 
L 76.195298 211.084652 
L 77.096197 208.679628 
L 77.997096 206.3215 
L 78.897994 204.008935 
L 79.798893 201.740649 
L 80.699792 199.515404 
L 81.600691 197.332013 
L 82.50159 195.189329 
L 83.402489 193.086249 
L 84.303388 191.021708 
L 85.204287 188.994681 
L 86.105186 187.004178 
L 87.006085 185.049245 
L 87.906984 183.12896 
L 88.807883 181.242435 
L 89.708782 179.388811 
L 90.609681 177.567257 
L 91.51058 175.776972 
L 92.411479 174.017182 
L 93.312378 172.287137 
L 94.213277 170.586113 
L 95.114176 168.913407 
" style="fill:none;stroke:#000000;stroke-linecap:square;"/>
   </g>
   <g id="line2d_24">
    <path clip-path="url(#p73796d83b2)" d="M 95.114176 168.913406 
L 96.623759 166.498901 
L 98.133342 164.157355 
L 99.642925 161.885748 
L 101.152509 159.681221 
L 102.662092 157.541057 
L 104.171675 155.462675 
L 105.681258 153.443625 
L 107.190841 151.481574 
L 108.700424 149.574305 
L 110.210007 147.719707 
L 111.71959 145.915767 
L 113.229173 144.160568 
L 114.738756 142.452282 
L 116.248339 140.789165 
L 117.757923 139.169552 
L 119.267506 137.591854 
L 120.777089 136.054551 
L 122.286672 134.556191 
L 123.796255 133.095387 
L 125.305838 131.67081 
L 126.815421 130.281188 
L 128.325004 128.925306 
L 129.834587 127.601997 
L 131.34417 126.310145 
L 132.853753 125.048679 
L 134.363336 123.816573 
L 135.87292 122.612842 
L 137.382503 121.436543 
L 138.892086 120.286768 
L 140.401669 119.162647 
L 141.911252 118.063344 
L 143.420835 116.988057 
L 144.930418 115.936014 
L 146.440001 114.906472 
L 147.949584 113.89872 
L 149.459167 112.91207 
L 150.96875 111.945863 
L 152.478334 110.999465 
L 153.987917 110.072263 
L 155.4975 109.16367 
L 157.007083 108.273118 
L 158.516666 107.400063 
L 160.026249 106.543977 
L 161.535832 105.704354 
L 163.045415 104.880705 
L 164.554998 104.072559 
L 166.064581 103.279461 
L 167.574164 102.500973 
L 169.083748 101.736671 
L 170.593331 100.986147 
L 172.102914 100.249006 
L 173.612497 99.524868 
L 175.12208 98.813364 
L 176.631663 98.114138 
L 178.141246 97.426846 
L 179.650829 96.751156 
L 181.160412 96.086746 
L 182.669995 95.433304 
L 184.179578 94.790529 
L 185.689161 94.158129 
L 187.198745 93.53582 
L 188.708328 92.923329 
L 190.217911 92.320388 
L 191.727494 91.726741 
L 193.237077 91.142136 
L 194.74666 90.56633 
L 196.256243 89.999086 
L 197.765826 89.440173 
L 199.275409 88.889366 
L 200.784992 88.346449 
L 202.294575 87.811206 
L 203.804159 87.28343 
L 205.313742 86.762917 
L 206.823325 86.249468 
L 208.332908 85.742889 
L 209.842491 85.242986 
L 211.352074 84.749572 
L 212.861657 84.262462 
L 214.37124 83.781472 
L 215.880823 83.306421 
L 217.390406 82.83713 
L 218.899989 82.37342 
L 220.409573 81.915113 
L 221.919156 81.462031 
L 223.428739 81.013993 
L 224.938322 80.570818 
L 226.447905 80.132323 
L 227.957488 79.698316 
L 229.467071 79.268605 
L 230.976654 78.842983 
L 232.486237 78.421238 
L 233.99582 78.003136 
L 235.505403 77.588427 
L 237.014986 77.176825 
L 238.52457 76.767998 
L 240.034153 76.361536 
L 241.543736 75.956891 
L 243.053319 75.553194 
L 244.562902 75.148222 
" style="fill:none;stroke:#000000;stroke-linecap:square;"/>
   </g>
   <g id="line2d_25">
    <defs>
     <path d="M 0 2 
C 0.530406 2 1.03916 1.789267 1.414214 1.414214 
C 1.789267 1.03916 2 0.530406 2 0 
C 2 -0.530406 1.789267 -1.03916 1.414214 -1.414214 
C 1.03916 -1.789267 0.530406 -2 0 -2 
C -0.530406 -2 -1.03916 -1.789267 -1.414214 -1.414214 
C -1.789267 -1.03916 -2 -0.530406 -2 0 
C -2 0.530406 -1.789267 1.03916 -1.414214 1.414214 
C -1.03916 1.789267 -0.530406 2 0 2 
z
" id="m241d0ee1f8" style="stroke:#000000;"/>
    </defs>
    <g clip-path="url(#p73796d83b2)">
     <use style="stroke:#000000;" x="95.114176" xlink:href="#m241d0ee1f8" y="168.913407"/>
    </g>
   </g>
   <g id="line2d_26">
    <g clip-path="url(#p73796d83b2)">
     <use style="stroke:#000000;" x="86.323568" xlink:href="#m241d0ee1f8" y="55.075815"/>
    </g>
   </g>
   <g id="line2d_27">
    <g clip-path="url(#p73796d83b2)">
     <use style="stroke:#000000;" x="88.321488" xlink:href="#m241d0ee1f8" y="50.447434"/>
    </g>
   </g>
   <g id="line2d_28">
    <g clip-path="url(#p73796d83b2)">
     <use style="stroke:#000000;" x="95.174126" xlink:href="#m241d0ee1f8" y="45.163707"/>
    </g>
   </g>
   <g id="line2d_29">
    <g clip-path="url(#p73796d83b2)">
     <use style="stroke:#000000;" x="127.822671" xlink:href="#m241d0ee1f8" y="33.958864"/>
    </g>
   </g>
   <g id="line2d_30">
    <g clip-path="url(#p73796d83b2)">
     <use style="stroke:#000000;" x="244.562902" xlink:href="#m241d0ee1f8" y="75.148222"/>
    </g>
   </g>
   <g id="line2d_31">
    <path clip-path="url(#p73796d83b2)" d="M 69.871403 55.075815 
L 86.323568 55.075815 
" style="fill:none;stroke:#000000;stroke-dasharray:5.55,2.4;stroke-dashoffset:0;stroke-width:1.5;"/>
   </g>
   <g id="line2d_32">
    <path clip-path="url(#p73796d83b2)" d="M 71.869723 43.063009 
L 88.321488 50.447434 
" style="fill:none;stroke:#000000;stroke-dasharray:5.55,2.4;stroke-dashoffset:0;stroke-width:1.5;"/>
   </g>
   <g id="line2d_33">
    <path clip-path="url(#p73796d83b2)" d="M 81.861321 31.252154 
L 95.174126 43.063009 
" style="fill:none;stroke:#000000;stroke-dasharray:5.55,2.4;stroke-dashoffset:0;stroke-width:1.5;"/>
   </g>
   <g id="line2d_34">
    <path clip-path="url(#p73796d83b2)" d="M 125.824351 18.864601 
L 127.822671 33.958864 
" style="fill:none;stroke:#000000;stroke-dasharray:5.55,2.4;stroke-dashoffset:0;stroke-width:1.5;"/>
   </g>
   <g id="line2d_35">
    <path clip-path="url(#p73796d83b2)" d="M 61.878125 123.252564 
L 273.7 123.252564 
" style="fill:none;stroke:#000000;stroke-dasharray:1,1.65;stroke-dashoffset:0;"/>
   </g>
   <g id="patch_3">
    <path d="M 61.878125 246.821875 
L 61.878125 14.3 
" style="fill:none;stroke:#000000;stroke-linecap:square;stroke-linejoin:miter;stroke-width:0.8;"/>
   </g>
   <g id="patch_4">
    <path d="M 273.7 246.821875 
L 273.7 14.3 
" style="fill:none;stroke:#000000;stroke-linecap:square;stroke-linejoin:miter;stroke-width:0.8;"/>
   </g>
   <g id="patch_5">
    <path d="M 61.878125 246.821875 
L 273.7 246.821875 
" style="fill:none;stroke:#000000;stroke-linecap:square;stroke-linejoin:miter;stroke-width:0.8;"/>
   </g>
   <g id="patch_6">
    <path d="M 61.878125 14.3 
L 273.7 14.3 
" style="fill:none;stroke:#000000;stroke-linecap:square;stroke-linejoin:miter;stroke-width:0.8;"/>
   </g>
   <g id="text_12">
    <!-- Triple -->
    <defs>
     <path d="M 9.421875 54.6875 
L 18.40625 54.6875 
L 18.40625 0 
L 9.421875 0 
z
M 9.421875 75.984375 
L 18.40625 75.984375 
L 18.40625 64.59375 
L 9.421875 64.59375 
z
" id="DejaVuSans-69"/>
     <path d="M 9.421875 75.984375 
L 18.40625 75.984375 
L 18.40625 0 
L 9.421875 0 
z
" id="DejaVuSans-6c"/>
    </defs>
    <g transform="translate(101.844517 175.017999)scale(0.09 -0.09)">
     <use xlink:href="#DejaVuSans-54"/>
     <use x="60.865234" xlink:href="#DejaVuSans-72"/>
     <use x="101.978516" xlink:href="#DejaVuSans-69"/>
     <use x="129.761719" xlink:href="#DejaVuSans-70"/>
     <use x="193.238281" xlink:href="#DejaVuSans-6c"/>
     <use x="221.021484" xlink:href="#DejaVuSans-65"/>
    </g>
    <!-- point -->
    <defs>
     <path d="M 30.609375 48.390625 
Q 23.390625 48.390625 19.1875 42.75 
Q 14.984375 37.109375 14.984375 27.296875 
Q 14.984375 17.484375 19.15625 11.84375 
Q 23.34375 6.203125 30.609375 6.203125 
Q 37.796875 6.203125 41.984375 11.859375 
Q 46.1875 17.53125 46.1875 27.296875 
Q 46.1875 37.015625 41.984375 42.703125 
Q 37.796875 48.390625 30.609375 48.390625 
z
M 30.609375 56 
Q 42.328125 56 49.015625 48.375 
Q 55.71875 40.765625 55.71875 27.296875 
Q 55.71875 13.875 49.015625 6.21875 
Q 42.328125 -1.421875 30.609375 -1.421875 
Q 18.84375 -1.421875 12.171875 6.21875 
Q 5.515625 13.875 5.515625 27.296875 
Q 5.515625 40.765625 12.171875 48.375 
Q 18.84375 56 30.609375 56 
z
" id="DejaVuSans-6f"/>
     <path d="M 54.890625 33.015625 
L 54.890625 0 
L 45.90625 0 
L 45.90625 32.71875 
Q 45.90625 40.484375 42.875 44.328125 
Q 39.84375 48.1875 33.796875 48.1875 
Q 26.515625 48.1875 22.3125 43.546875 
Q 18.109375 38.921875 18.109375 30.90625 
L 18.109375 0 
L 9.078125 0 
L 9.078125 54.6875 
L 18.109375 54.6875 
L 18.109375 46.1875 
Q 21.34375 51.125 25.703125 53.5625 
Q 30.078125 56 35.796875 56 
Q 45.21875 56 50.046875 50.171875 
Q 54.890625 44.34375 54.890625 33.015625 
z
" id="DejaVuSans-6e"/>
    </defs>
    <g transform="translate(101.844517 185.09603)scale(0.09 -0.09)">
     <use xlink:href="#DejaVuSans-70"/>
     <use x="63.476562" xlink:href="#DejaVuSans-6f"/>
     <use x="124.658203" xlink:href="#DejaVuSans-69"/>
     <use x="152.441406" xlink:href="#DejaVuSans-6e"/>
     <use x="215.820312" xlink:href="#DejaVuSans-74"/>
    </g>
   </g>
   <g id="text_13">
    <!-- Critical -->
    <defs>
     <path d="M 48.78125 52.59375 
L 48.78125 44.1875 
Q 44.96875 46.296875 41.140625 47.34375 
Q 37.3125 48.390625 33.40625 48.390625 
Q 24.65625 48.390625 19.8125 42.84375 
Q 14.984375 37.3125 14.984375 27.296875 
Q 14.984375 17.28125 19.8125 11.734375 
Q 24.65625 6.203125 33.40625 6.203125 
Q 37.3125 6.203125 41.140625 7.25 
Q 44.96875 8.296875 48.78125 10.40625 
L 48.78125 2.09375 
Q 45.015625 0.34375 40.984375 -0.53125 
Q 36.96875 -1.421875 32.421875 -1.421875 
Q 20.0625 -1.421875 12.78125 6.34375 
Q 5.515625 14.109375 5.515625 27.296875 
Q 5.515625 40.671875 12.859375 48.328125 
Q 20.21875 56 33.015625 56 
Q 37.15625 56 41.109375 55.140625 
Q 45.0625 54.296875 48.78125 52.59375 
z
" id="DejaVuSans-63"/>
    </defs>
    <g transform="translate(229.736969 57.760086)scale(0.09 -0.09)">
     <use xlink:href="#DejaVuSans-43"/>
     <use x="69.824219" xlink:href="#DejaVuSans-72"/>
     <use x="110.9375" xlink:href="#DejaVuSans-69"/>
     <use x="138.720703" xlink:href="#DejaVuSans-74"/>
     <use x="177.929688" xlink:href="#DejaVuSans-69"/>
     <use x="205.712891" xlink:href="#DejaVuSans-63"/>
     <use x="260.693359" xlink:href="#DejaVuSans-61"/>
     <use x="321.972656" xlink:href="#DejaVuSans-6c"/>
    </g>
    <!-- point -->
    <g transform="translate(229.736969 67.838117)scale(0.09 -0.09)">
     <use xlink:href="#DejaVuSans-70"/>
     <use x="63.476562" xlink:href="#DejaVuSans-6f"/>
     <use x="124.658203" xlink:href="#DejaVuSans-69"/>
     <use x="152.441406" xlink:href="#DejaVuSans-6e"/>
     <use x="215.820312" xlink:href="#DejaVuSans-74"/>
    </g>
   </g>
   <g id="text_14">
    <!-- Ih -->
    <defs>
     <path d="M 9.8125 72.90625 
L 19.671875 72.90625 
L 19.671875 0 
L 9.8125 0 
z
" id="DejaVuSans-49"/>
     <path d="M 54.890625 33.015625 
L 54.890625 0 
L 45.90625 0 
L 45.90625 32.71875 
Q 45.90625 40.484375 42.875 44.328125 
Q 39.84375 48.1875 33.796875 48.1875 
Q 26.515625 48.1875 22.3125 43.546875 
Q 18.109375 38.921875 18.109375 30.90625 
L 18.109375 0 
L 9.078125 0 
L 9.078125 75.984375 
L 18.109375 75.984375 
L 18.109375 46.1875 
Q 21.34375 51.125 25.703125 53.5625 
Q 30.078125 56 35.796875 56 
Q 45.21875 56 50.046875 50.171875 
Q 54.890625 44.34375 54.890625 33.015625 
z
" id="DejaVuSans-68"/>
    </defs>
    <g transform="translate(73.868042 96.601127)scale(0.09 -0.09)">
     <use xlink:href="#DejaVuSans-49"/>
     <use x="29.492188" xlink:href="#DejaVuSans-68"/>
    </g>
   </g>
   <g id="text_15">
    <!-- III -->
    <g transform="translate(65.874764 52.768909)scale(0.09 -0.09)">
     <use xlink:href="#DejaVuSans-49"/>
     <use x="29.492188" xlink:href="#DejaVuSans-49"/>
     <use x="58.984375" xlink:href="#DejaVuSans-49"/>
    </g>
   </g>
   <g id="text_16">
    <!-- V -->
    <defs>
     <path d="M 28.609375 0 
L 0.78125 72.90625 
L 11.078125 72.90625 
L 34.1875 11.53125 
L 57.328125 72.90625 
L 67.578125 72.90625 
L 39.796875 0 
z
" id="DejaVuSans-56"/>
    </defs>
    <g transform="translate(77.864682 43.063009)scale(0.09 -0.09)">
     <use xlink:href="#DejaVuSans-56"/>
    </g>
   </g>
   <g id="text_17">
    <!-- VI -->
    <g transform="translate(101.844517 31.252154)scale(0.09 -0.09)">
     <use xlink:href="#DejaVuSans-56"/>
     <use x="68.408203" xlink:href="#DejaVuSans-49"/>
    </g>
   </g>
   <g id="text_18">
    <!-- VII -->
    <g transform="translate(151.802506 25.058377)scale(0.09 -0.09)">
     <use xlink:href="#DejaVuSans-56"/>
     <use x="68.408203" xlink:href="#DejaVuSans-49"/>
     <use x="97.900391" xlink:href="#DejaVuSans-49"/>
    </g>
   </g>
   <g id="text_19">
    <!-- Liquid -->
    <defs>
     <path d="M 9.8125 72.90625 
L 19.671875 72.90625 
L 19.671875 8.296875 
L 55.171875 8.296875 
L 55.171875 0 
L 9.8125 0 
z
" id="DejaVuSans-4c"/>
     <path d="M 14.796875 27.296875 
Q 14.796875 17.390625 18.875 11.75 
Q 22.953125 6.109375 30.078125 6.109375 
Q 37.203125 6.109375 41.296875 11.75 
Q 45.40625 17.390625 45.40625 27.296875 
Q 45.40625 37.203125 41.296875 42.84375 
Q 37.203125 48.484375 30.078125 48.484375 
Q 22.953125 48.484375 18.875 42.84375 
Q 14.796875 37.203125 14.796875 27.296875 
z
M 45.40625 8.203125 
Q 42.578125 3.328125 38.25 0.953125 
Q 33.9375 -1.421875 27.875 -1.421875 
Q 17.96875 -1.421875 11.734375 6.484375 
Q 5.515625 14.40625 5.515625 27.296875 
Q 5.515625 40.1875 11.734375 48.09375 
Q 17.96875 56 27.875 56 
Q 33.9375 56 38.25 53.625 
Q 42.578125 51.265625 45.40625 46.390625 
L 45.40625 54.6875 
L 54.390625 54.6875 
L 54.390625 -20.796875 
L 45.40625 -20.796875 
z
" id="DejaVuSans-71"/>
     <path d="M 45.40625 46.390625 
L 45.40625 75.984375 
L 54.390625 75.984375 
L 54.390625 0 
L 45.40625 0 
L 45.40625 8.203125 
Q 42.578125 3.328125 38.25 0.953125 
Q 33.9375 -1.421875 27.875 -1.421875 
Q 17.96875 -1.421875 11.734375 6.484375 
Q 5.515625 14.40625 5.515625 27.296875 
Q 5.515625 40.1875 11.734375 48.09375 
Q 17.96875 56 27.875 56 
Q 33.9375 56 38.25 53.625 
Q 42.578125 51.265625 45.40625 46.390625 
z
M 14.796875 27.296875 
Q 14.796875 17.390625 18.875 11.75 
Q 22.953125 6.109375 30.078125 6.109375 
Q 37.203125 6.109375 41.296875 11.75 
Q 45.40625 17.390625 45.40625 27.296875 
Q 45.40625 37.203125 41.296875 42.84375 
Q 37.203125 48.484375 30.078125 48.484375 
Q 22.953125 48.484375 18.875 42.84375 
Q 14.796875 37.203125 14.796875 27.296875 
z
" id="DejaVuSans-64"/>
    </defs>
    <g transform="translate(115.093375 96.601127)scale(0.09 -0.09)">
     <use xlink:href="#DejaVuSans-4c"/>
     <use x="55.712891" xlink:href="#DejaVuSans-69"/>
     <use x="83.496094" xlink:href="#DejaVuSans-71"/>
     <use x="146.972656" xlink:href="#DejaVuSans-75"/>
     <use x="210.351562" xlink:href="#DejaVuSans-69"/>
     <use x="238.134766" xlink:href="#DejaVuSans-64"/>
    </g>
   </g>
   <g id="text_20">
    <!-- Vapour -->
    <g transform="translate(165.790743 137.75169)scale(0.09 -0.09)">
     <use xlink:href="#DejaVuSans-56"/>
     <use x="68.298828" xlink:href="#DejaVuSans-61"/>
     <use x="129.578125" xlink:href="#DejaVuSans-70"/>
     <use x="193.054688" xlink:href="#DejaVuSans-6f"/>
     <use x="254.236328" xlink:href="#DejaVuSans-75"/>
     <use x="317.615234" xlink:href="#DejaVuSans-72"/>
    </g>
   </g>
   <g id="text_21">
    <!-- Solid -->
    <defs>
     <path d="M 53.515625 70.515625 
L 53.515625 60.890625 
Q 47.90625 63.578125 42.921875 64.890625 
Q 37.9375 66.21875 33.296875 66.21875 
Q 25.25 66.21875 20.875 63.09375 
Q 16.5 59.96875 16.5 54.203125 
Q 16.5 49.359375 19.40625 46.890625 
Q 22.3125 44.4375 30.421875 42.921875 
L 36.375 41.703125 
Q 47.40625 39.59375 52.65625 34.296875 
Q 57.90625 29 57.90625 20.125 
Q 57.90625 9.515625 50.796875 4.046875 
Q 43.703125 -1.421875 29.984375 -1.421875 
Q 24.8125 -1.421875 18.96875 -0.25 
Q 13.140625 0.921875 6.890625 3.21875 
L 6.890625 13.375 
Q 12.890625 10.015625 18.65625 8.296875 
Q 24.421875 6.59375 29.984375 6.59375 
Q 38.421875 6.59375 43.015625 9.90625 
Q 47.609375 13.234375 47.609375 19.390625 
Q 47.609375 24.75 44.3125 27.78125 
Q 41.015625 30.8125 33.5 32.328125 
L 27.484375 33.5 
Q 16.453125 35.6875 11.515625 40.375 
Q 6.59375 45.0625 6.59375 53.421875 
Q 6.59375 63.09375 13.40625 68.65625 
Q 20.21875 74.21875 32.171875 74.21875 
Q 37.3125 74.21875 42.625 73.28125 
Q 47.953125 72.359375 53.515625 70.515625 
z
" id="DejaVuSans-53"/>
    </defs>
    <g transform="translate(65.874764 137.75169)scale(0.09 -0.09)">
     <use xlink:href="#DejaVuSans-53"/>
     <use x="63.476562" xlink:href="#DejaVuSans-6f"/>
     <use x="124.658203" xlink:href="#DejaVuSans-6c"/>
     <use x="152.441406" xlink:href="#DejaVuSans-69"/>
     <use x="180.224609" xlink:href="#DejaVuSans-64"/>
    </g>
   </g>
  </g>
  <g id="axes_2">
   <g id="patch_7">
    <path d="M 172.8 216 
L 259.2 216 
L 259.2 158.4 
L 172.8 158.4 
z
" style="fill:#ffffff;"/>
   </g>
   <g id="matplotlib.axis_3">
    <g id="xtick_6">
     <g id="line2d_36">
      <g>
       <use style="stroke:#000000;stroke-width:0.8;" x="187.2" xlink:href="#maeb7a38ed1" y="216"/>
      </g>
     </g>
     <g id="text_22">
      <!-- -0.02 -->
      <defs>
       <path d="M 4.890625 31.390625 
L 31.203125 31.390625 
L 31.203125 23.390625 
L 4.890625 23.390625 
z
" id="DejaVuSans-2d"/>
       <path d="M 10.6875 12.40625 
L 21 12.40625 
L 21 0 
L 10.6875 0 
z
" id="DejaVuSans-2e"/>
      </defs>
      <g transform="translate(175.556953 229.838594)scale(0.09 -0.09)">
       <use xlink:href="#DejaVuSans-2d"/>
       <use x="36.083984" xlink:href="#DejaVuSans-30"/>
       <use x="99.707031" xlink:href="#DejaVuSans-2e"/>
       <use x="131.494141" xlink:href="#DejaVuSans-30"/>
       <use x="195.117188" xlink:href="#DejaVuSans-32"/>
      </g>
     </g>
    </g>
    <g id="xtick_7">
     <g id="line2d_37">
      <g>
       <use style="stroke:#000000;stroke-width:0.8;" x="216" xlink:href="#maeb7a38ed1" y="216"/>
      </g>
     </g>
     <g id="text_23">
      <!-- 0 -->
      <g transform="translate(213.136875 229.838594)scale(0.09 -0.09)">
       <use xlink:href="#DejaVuSans-30"/>
      </g>
     </g>
    </g>
    <g id="xtick_8">
     <g id="line2d_38">
      <g>
       <use style="stroke:#000000;stroke-width:0.8;" x="244.8" xlink:href="#maeb7a38ed1" y="216"/>
      </g>
     </g>
     <g id="text_24">
      <!-- 0.02 -->
      <g transform="translate(234.780469 229.838594)scale(0.09 -0.09)">
       <use xlink:href="#DejaVuSans-30"/>
       <use x="63.623047" xlink:href="#DejaVuSans-2e"/>
       <use x="95.410156" xlink:href="#DejaVuSans-30"/>
       <use x="159.033203" xlink:href="#DejaVuSans-32"/>
      </g>
     </g>
    </g>
    <g id="xtick_9">
     <g id="line2d_39">
      <defs>
       <path d="M 0 0 
L 0 2 
" id="md41d0d8564" style="stroke:#000000;stroke-width:0.6;"/>
      </defs>
      <g>
       <use style="stroke:#000000;stroke-width:0.6;" x="201.6" xlink:href="#md41d0d8564" y="216"/>
      </g>
     </g>
    </g>
    <g id="xtick_10">
     <g id="line2d_40">
      <g>
       <use style="stroke:#000000;stroke-width:0.6;" x="230.4" xlink:href="#md41d0d8564" y="216"/>
      </g>
     </g>
    </g>
   </g>
   <g id="matplotlib.axis_4">
    <g id="ytick_13">
     <g id="line2d_41">
      <g>
       <use style="stroke:#000000;stroke-width:0.8;" x="172.8" xlink:href="#mf21489ebe7" y="205.115707"/>
      </g>
     </g>
    </g>
    <g id="ytick_14">
     <g id="line2d_42">
      <g>
       <use style="stroke:#000000;stroke-width:0.8;" x="172.8" xlink:href="#mf21489ebe7" y="189.543805"/>
      </g>
     </g>
    </g>
    <g id="ytick_15">
     <g id="line2d_43">
      <g>
       <use style="stroke:#000000;stroke-width:0.8;" x="172.8" xlink:href="#mf21489ebe7" y="173.971902"/>
      </g>
     </g>
    </g>
   </g>
   <g id="line2d_44">
    <path clip-path="url(#p61a56437a9)" d="M 172.8 162.584464 
L 173.381818 162.652966 
L 173.963636 162.72217 
L 174.545455 162.792092 
L 175.127273 162.862746 
L 175.709091 162.934147 
L 176.290909 163.006312 
L 176.872727 163.079257 
L 177.454545 163.153 
L 178.036364 163.227556 
L 178.618182 163.302946 
L 179.2 163.379188 
L 179.781818 163.4563 
L 180.363636 163.534304 
L 180.945455 163.61322 
L 181.527273 163.693069 
L 182.109091 163.773875 
L 182.690909 163.855659 
L 183.272727 163.938447 
L 183.854545 164.022263 
L 184.436364 164.107132 
L 185.018182 164.193082 
L 185.6 164.28014 
L 186.181818 164.368336 
L 186.763636 164.4577 
L 187.345455 164.548262 
L 187.927273 164.640055 
L 188.509091 164.733114 
L 189.090909 164.827473 
L 189.672727 164.92317 
L 190.254545 165.020243 
L 190.836364 165.118732 
L 191.418182 165.218678 
L 192 165.320126 
L 192.581818 165.423122 
L 193.163636 165.527713 
L 193.745455 165.633949 
L 194.327273 165.741884 
L 194.909091 165.851571 
L 195.490909 165.96307 
L 196.072727 166.07644 
L 196.654545 166.191746 
L 197.236364 166.309055 
L 197.818182 166.428438 
L 198.4 166.549969 
L 198.981818 166.673727 
L 199.563636 166.799794 
L 200.145455 166.92826 
L 200.727273 167.059216 
L 201.309091 167.192761 
L 201.890909 167.329 
L 202.472727 167.468043 
L 203.054545 167.610008 
L 203.636364 167.755021 
L 204.218182 167.903215 
L 204.8 168.054733 
L 205.381818 168.209728 
L 205.963636 168.368361 
L 206.545455 168.530809 
L 207.127273 168.69726 
L 207.709091 168.867915 
L 208.290909 169.042992 
L 208.872727 169.222726 
L 209.454545 169.407372 
L 210.036364 169.597206 
L 210.618182 169.792528 
L 211.2 169.993663 
L 211.781818 170.20097 
L 212.363636 170.414838 
L 212.945455 170.635696 
L 213.527273 170.864016 
L 214.109091 171.10032 
L 214.690909 171.345187 
L 215.272727 171.59926 
L 215.854545 171.863259 
L 216.436364 172.13799 
L 217.018182 172.424362 
L 217.6 172.723407 
L 218.181818 173.036297 
L 218.763636 173.364376 
L 219.345455 173.709194 
L 219.927273 174.072551 
L 220.509091 174.456555 
L 221.090909 174.863692 
L 221.672727 175.296929 
L 222.254545 175.759842 
L 222.836364 176.256798 
L 223.418182 176.793201 
L 224 177.375859 
L 224.581818 178.013505 
L 225.163636 178.717609 
L 225.745455 179.503651 
L 226.327273 180.393242 
L 226.909091 181.41786 
L 227.490909 182.625953 
L 228.072727 184.097871 
L 228.654545 185.981979 
L 229.236364 188.602928 
L 229.818182 192.939792 
L 230.4 208.440185 
" style="fill:none;stroke:#000000;stroke-linecap:square;"/>
   </g>
   <g id="line2d_45">
    <path clip-path="url(#p61a56437a9)" d="M 172.8 208.462465 
L 173.381818 208.46224 
L 173.963636 208.462015 
L 174.545455 208.46179 
L 175.127273 208.461565 
L 175.709091 208.46134 
L 176.290909 208.461115 
L 176.872727 208.46089 
L 177.454545 208.460665 
L 178.036364 208.460439 
L 178.618182 208.460214 
L 179.2 208.459989 
L 179.781818 208.459764 
L 180.363636 208.459539 
L 180.945455 208.459314 
L 181.527273 208.459089 
L 182.109091 208.458864 
L 182.690909 208.458639 
L 183.272727 208.458414 
L 183.854545 208.458189 
L 184.436364 208.457964 
L 185.018182 208.457738 
L 185.6 208.457513 
L 186.181818 208.457288 
L 186.763636 208.457063 
L 187.345455 208.456838 
L 187.927273 208.456613 
L 188.509091 208.456388 
L 189.090909 208.456163 
L 189.672727 208.455938 
L 190.254545 208.455713 
L 190.836364 208.455488 
L 191.418182 208.455263 
L 192 208.455038 
L 192.581818 208.454813 
L 193.163636 208.454587 
L 193.745455 208.454362 
L 194.327273 208.454137 
L 194.909091 208.453912 
L 195.490909 208.453687 
L 196.072727 208.453462 
L 196.654545 208.453237 
L 197.236364 208.453012 
L 197.818182 208.452787 
L 198.4 208.452562 
L 198.981818 208.452337 
L 199.563636 208.452112 
L 200.145455 208.451887 
L 200.727273 208.451662 
L 201.309091 208.451437 
L 201.890909 208.451212 
L 202.472727 208.450987 
L 203.054545 208.450761 
L 203.636364 208.450536 
L 204.218182 208.450311 
L 204.8 208.450086 
L 205.381818 208.449861 
L 205.963636 208.449636 
L 206.545455 208.449411 
L 207.127273 208.449186 
L 207.709091 208.448961 
L 208.290909 208.448736 
L 208.872727 208.448511 
L 209.454545 208.448286 
L 210.036364 208.448061 
L 210.618182 208.447836 
L 211.2 208.447611 
L 211.781818 208.447386 
L 212.363636 208.447161 
L 212.945455 208.446936 
L 213.527273 208.446711 
L 214.109091 208.446486 
L 214.690909 208.446261 
L 215.272727 208.446035 
L 215.854545 208.44581 
L 216.436364 208.445585 
L 217.018182 208.44536 
L 217.6 208.445135 
L 218.181818 208.44491 
L 218.763636 208.444685 
L 219.345455 208.44446 
L 219.927273 208.444235 
L 220.509091 208.44401 
L 221.090909 208.443785 
L 221.672727 208.44356 
L 222.254545 208.443335 
L 222.836364 208.44311 
L 223.418182 208.442885 
L 224 208.44266 
L 224.581818 208.442435 
L 225.163636 208.44221 
L 225.745455 208.441985 
L 226.327273 208.44176 
L 226.909091 208.441535 
L 227.490909 208.44131 
L 228.072727 208.441085 
L 228.654545 208.44086 
L 229.236364 208.440635 
L 229.818182 208.44041 
L 230.4 208.440185 
" style="fill:none;stroke:#000000;stroke-linecap:square;"/>
   </g>
   <g id="line2d_46">
    <path clip-path="url(#p61a56437a9)" d="M 230.4 208.440184 
L 230.981818 208.439985 
L 231.563636 208.439787 
L 232.145455 208.439588 
L 232.727273 208.43939 
L 233.309091 208.439191 
L 233.890909 208.438993 
L 234.472727 208.438794 
L 235.054545 208.438596 
L 235.636364 208.438397 
L 236.218182 208.438199 
L 236.8 208.438 
L 237.381818 208.437802 
L 237.963636 208.437603 
L 238.545455 208.437405 
L 239.127273 208.437206 
L 239.709091 208.437008 
L 240.290909 208.436809 
L 240.872727 208.436611 
L 241.454545 208.436412 
L 242.036364 208.436214 
L 242.618182 208.436015 
L 243.2 208.435817 
L 243.781818 208.435618 
L 244.363636 208.43542 
L 244.945455 208.435221 
L 245.527273 208.435023 
L 246.109091 208.434824 
L 246.690909 208.434626 
L 247.272727 208.434427 
L 247.854545 208.434229 
L 248.436364 208.43403 
L 249.018182 208.433832 
L 249.6 208.433633 
L 250.181818 208.433435 
L 250.763636 208.433236 
L 251.345455 208.433038 
L 251.927273 208.432839 
L 252.509091 208.432641 
L 253.090909 208.432442 
L 253.672727 208.432244 
L 254.254545 208.432045 
L 254.836364 208.431847 
L 255.418182 208.431649 
L 256 208.43145 
L 256.581818 208.431252 
L 257.163636 208.431053 
L 257.745455 208.430855 
L 258.327273 208.430656 
L 258.909091 208.430458 
L 259.490909 208.430259 
L 260.072727 208.430061 
L 260.654545 208.429862 
L 261.236364 208.429664 
L 261.818182 208.429465 
L 262.4 208.429267 
L 262.981818 208.429068 
L 263.563636 208.42887 
L 264.145455 208.428671 
L 264.727273 208.428473 
L 265.309091 208.428274 
L 265.890909 208.428076 
L 266.472727 208.427877 
L 267.054545 208.427679 
L 267.636364 208.427481 
L 268.218182 208.427282 
L 268.8 208.427084 
L 269.381818 208.426885 
L 269.963636 208.426687 
L 270.545455 208.426488 
L 271.127273 208.42629 
L 271.709091 208.426091 
L 272.290909 208.425893 
L 272.872727 208.425694 
L 273.454545 208.425496 
L 274.036364 208.425297 
L 274.618182 208.425099 
L 275.2 208.4249 
L 275.781818 208.424702 
L 276.363636 208.424504 
L 276.945455 208.424305 
L 277.527273 208.424107 
L 278.109091 208.423908 
L 278.690909 208.42371 
L 279.272727 208.423511 
L 279.854545 208.423313 
L 280.436364 208.423114 
L 281.018182 208.422916 
L 281.6 208.422717 
L 282.181818 208.422519 
L 282.763636 208.422321 
L 283.345455 208.422122 
L 283.927273 208.421924 
L 284.509091 208.421725 
L 285.090909 208.421527 
L 285.672727 208.421328 
L 286.254545 208.42113 
L 286.836364 208.420931 
L 287.418182 208.420733 
L 288 208.420535 
" style="fill:none;stroke:#000000;stroke-linecap:square;"/>
   </g>
   <g id="line2d_47">
    <g clip-path="url(#p61a56437a9)">
     <use style="stroke:#000000;" x="230.4" xlink:href="#m241d0ee1f8" y="208.440185"/>
    </g>
   </g>
   <g id="line2d_48">
    <path clip-path="url(#p61a56437a9)" d="M -1 173.882884 
L 289 173.882884 
" style="fill:none;stroke:#000000;stroke-dasharray:1,1.65;stroke-dashoffset:0;"/>
   </g>
   <g id="patch_8">
    <path d="M 172.8 216 
L 172.8 158.4 
" style="fill:none;stroke:#000000;stroke-linecap:square;stroke-linejoin:miter;stroke-width:0.8;"/>
   </g>
   <g id="patch_9">
    <path d="M 259.2 216 
L 259.2 158.4 
" style="fill:none;stroke:#000000;stroke-linecap:square;stroke-linejoin:miter;stroke-width:0.8;"/>
   </g>
   <g id="patch_10">
    <path d="M 172.8 216 
L 259.2 216 
" style="fill:none;stroke:#000000;stroke-linecap:square;stroke-linejoin:miter;stroke-width:0.8;"/>
   </g>
   <g id="patch_11">
    <path d="M 172.8 158.4 
L 259.2 158.4 
" style="fill:none;stroke:#000000;stroke-linecap:square;stroke-linejoin:miter;stroke-width:0.8;"/>
   </g>
   <g id="text_25">
    <!-- S -->
    <g transform="translate(194.4 194.231415)scale(0.09 -0.09)">
     <use xlink:href="#DejaVuSans-53"/>
    </g>
   </g>
   <g id="text_26">
    <!-- L -->
    <g transform="translate(241.92 194.231415)scale(0.09 -0.09)">
     <use xlink:href="#DejaVuSans-4c"/>
    </g>
   </g>
  </g>
 </g>
 <defs>
  <clipPath id="p73796d83b2">
   <rect height="232.521875" width="211.821875" x="61.878125" y="14.3"/>
  </clipPath>
  <clipPath id="p61a56437a9">
   <rect height="57.6" width="86.4" x="172.8" y="158.4"/>
  </clipPath>
 </defs>
</svg>
