<?xml version="1.0" encoding="utf-8" standalone="no"?>
<!DOCTYPE svg PUBLIC "-//W3C//DTD SVG 1.1//EN"
  "http://www.w3.org/Graphics/SVG/1.1/DTD/svg11.dtd">
<!-- Created with matplotlib (http://matplotlib.org/) -->
<svg height="201pt" version="1.1" viewBox="0 0 288 201" width="288pt" xmlns="http://www.w3.org/2000/svg" xmlns:xlink="http://www.w3.org/1999/xlink">
 <defs>
  <style type="text/css">
*{stroke-linecap:butt;stroke-linejoin:round;}
  </style>
 </defs>
 <g id="figure_1">
  <g id="patch_1">
   <path d="M 0 201.6 
L 288 201.6 
L 288 0 
L 0 0 
z
" style="fill:#ffffff;"/>
  </g>
  <g id="axes_1">
   <g id="patch_2">
    <path d="M 47.38125 160.44375 
L 270.8375 160.44375 
L 270.8375 14.599219 
L 47.38125 14.599219 
z
" style="fill:#ffffff;"/>
   </g>
   <g id="matplotlib.axis_1">
    <g id="xtick_1">
     <g id="line2d_1">
      <defs>
       <path d="M 0 0 
L 0 3.5 
" id="m834f6b40d7" style="stroke:#000000;stroke-width:0.8;"/>
      </defs>
      <g>
       <use style="stroke:#000000;stroke-width:0.8;" x="47.38125" xlink:href="#m834f6b40d7" y="160.44375"/>
      </g>
     </g>
     <g id="text_1">
      <!-- 0 -->
      <defs>
       <path d="M 31.78125 66.40625 
Q 24.171875 66.40625 20.328125 58.90625 
Q 16.5 51.421875 16.5 36.375 
Q 16.5 21.390625 20.328125 13.890625 
Q 24.171875 6.390625 31.78125 6.390625 
Q 39.453125 6.390625 43.28125 13.890625 
Q 47.125 21.390625 47.125 36.375 
Q 47.125 51.421875 43.28125 58.90625 
Q 39.453125 66.40625 31.78125 66.40625 
z
M 31.78125 74.21875 
Q 44.046875 74.21875 50.515625 64.515625 
Q 56.984375 54.828125 56.984375 36.375 
Q 56.984375 17.96875 50.515625 8.265625 
Q 44.046875 -1.421875 31.78125 -1.421875 
Q 19.53125 -1.421875 13.0625 8.265625 
Q 6.59375 17.96875 6.59375 36.375 
Q 6.59375 54.828125 13.0625 64.515625 
Q 19.53125 74.21875 31.78125 74.21875 
z
" id="DejaVuSans-30"/>
      </defs>
      <g transform="translate(44.2 175.042188)scale(0.1 -0.1)">
       <use xlink:href="#DejaVuSans-30"/>
      </g>
     </g>
    </g>
    <g id="xtick_2">
     <g id="line2d_2">
      <g>
       <use style="stroke:#000000;stroke-width:0.8;" x="92.0725" xlink:href="#m834f6b40d7" y="160.44375"/>
      </g>
     </g>
     <g id="text_2">
      <!-- 2 -->
      <defs>
       <path d="M 19.1875 8.296875 
L 53.609375 8.296875 
L 53.609375 0 
L 7.328125 0 
L 7.328125 8.296875 
Q 12.9375 14.109375 22.625 23.890625 
Q 32.328125 33.6875 34.8125 36.53125 
Q 39.546875 41.84375 41.421875 45.53125 
Q 43.3125 49.21875 43.3125 52.78125 
Q 43.3125 58.59375 39.234375 62.25 
Q 35.15625 65.921875 28.609375 65.921875 
Q 23.96875 65.921875 18.8125 64.3125 
Q 13.671875 62.703125 7.8125 59.421875 
L 7.8125 69.390625 
Q 13.765625 71.78125 18.9375 73 
Q 24.125 74.21875 28.421875 74.21875 
Q 39.75 74.21875 46.484375 68.546875 
Q 53.21875 62.890625 53.21875 53.421875 
Q 53.21875 48.921875 51.53125 44.890625 
Q 49.859375 40.875 45.40625 35.40625 
Q 44.1875 33.984375 37.640625 27.21875 
Q 31.109375 20.453125 19.1875 8.296875 
z
" id="DejaVuSans-32"/>
      </defs>
      <g transform="translate(88.89125 175.042188)scale(0.1 -0.1)">
       <use xlink:href="#DejaVuSans-32"/>
      </g>
     </g>
    </g>
    <g id="xtick_3">
     <g id="line2d_3">
      <g>
       <use style="stroke:#000000;stroke-width:0.8;" x="136.76375" xlink:href="#m834f6b40d7" y="160.44375"/>
      </g>
     </g>
     <g id="text_3">
      <!-- 4 -->
      <defs>
       <path d="M 37.796875 64.3125 
L 12.890625 25.390625 
L 37.796875 25.390625 
z
M 35.203125 72.90625 
L 47.609375 72.90625 
L 47.609375 25.390625 
L 58.015625 25.390625 
L 58.015625 17.1875 
L 47.609375 17.1875 
L 47.609375 0 
L 37.796875 0 
L 37.796875 17.1875 
L 4.890625 17.1875 
L 4.890625 26.703125 
z
" id="DejaVuSans-34"/>
      </defs>
      <g transform="translate(133.5825 175.042188)scale(0.1 -0.1)">
       <use xlink:href="#DejaVuSans-34"/>
      </g>
     </g>
    </g>
    <g id="xtick_4">
     <g id="line2d_4">
      <g>
       <use style="stroke:#000000;stroke-width:0.8;" x="181.455" xlink:href="#m834f6b40d7" y="160.44375"/>
      </g>
     </g>
     <g id="text_4">
      <!-- 6 -->
      <defs>
       <path d="M 33.015625 40.375 
Q 26.375 40.375 22.484375 35.828125 
Q 18.609375 31.296875 18.609375 23.390625 
Q 18.609375 15.53125 22.484375 10.953125 
Q 26.375 6.390625 33.015625 6.390625 
Q 39.65625 6.390625 43.53125 10.953125 
Q 47.40625 15.53125 47.40625 23.390625 
Q 47.40625 31.296875 43.53125 35.828125 
Q 39.65625 40.375 33.015625 40.375 
z
M 52.59375 71.296875 
L 52.59375 62.3125 
Q 48.875 64.0625 45.09375 64.984375 
Q 41.3125 65.921875 37.59375 65.921875 
Q 27.828125 65.921875 22.671875 59.328125 
Q 17.53125 52.734375 16.796875 39.40625 
Q 19.671875 43.65625 24.015625 45.921875 
Q 28.375 48.1875 33.59375 48.1875 
Q 44.578125 48.1875 50.953125 41.515625 
Q 57.328125 34.859375 57.328125 23.390625 
Q 57.328125 12.15625 50.6875 5.359375 
Q 44.046875 -1.421875 33.015625 -1.421875 
Q 20.359375 -1.421875 13.671875 8.265625 
Q 6.984375 17.96875 6.984375 36.375 
Q 6.984375 53.65625 15.1875 63.9375 
Q 23.390625 74.21875 37.203125 74.21875 
Q 40.921875 74.21875 44.703125 73.484375 
Q 48.484375 72.75 52.59375 71.296875 
z
" id="DejaVuSans-36"/>
      </defs>
      <g transform="translate(178.27375 175.042188)scale(0.1 -0.1)">
       <use xlink:href="#DejaVuSans-36"/>
      </g>
     </g>
    </g>
    <g id="xtick_5">
     <g id="line2d_5">
      <g>
       <use style="stroke:#000000;stroke-width:0.8;" x="226.14625" xlink:href="#m834f6b40d7" y="160.44375"/>
      </g>
     </g>
     <g id="text_5">
      <!-- 8 -->
      <defs>
       <path d="M 31.78125 34.625 
Q 24.75 34.625 20.71875 30.859375 
Q 16.703125 27.09375 16.703125 20.515625 
Q 16.703125 13.921875 20.71875 10.15625 
Q 24.75 6.390625 31.78125 6.390625 
Q 38.8125 6.390625 42.859375 10.171875 
Q 46.921875 13.96875 46.921875 20.515625 
Q 46.921875 27.09375 42.890625 30.859375 
Q 38.875 34.625 31.78125 34.625 
z
M 21.921875 38.8125 
Q 15.578125 40.375 12.03125 44.71875 
Q 8.5 49.078125 8.5 55.328125 
Q 8.5 64.0625 14.71875 69.140625 
Q 20.953125 74.21875 31.78125 74.21875 
Q 42.671875 74.21875 48.875 69.140625 
Q 55.078125 64.0625 55.078125 55.328125 
Q 55.078125 49.078125 51.53125 44.71875 
Q 48 40.375 41.703125 38.8125 
Q 48.828125 37.15625 52.796875 32.3125 
Q 56.78125 27.484375 56.78125 20.515625 
Q 56.78125 9.90625 50.3125 4.234375 
Q 43.84375 -1.421875 31.78125 -1.421875 
Q 19.734375 -1.421875 13.25 4.234375 
Q 6.78125 9.90625 6.78125 20.515625 
Q 6.78125 27.484375 10.78125 32.3125 
Q 14.796875 37.15625 21.921875 38.8125 
z
M 18.3125 54.390625 
Q 18.3125 48.734375 21.84375 45.5625 
Q 25.390625 42.390625 31.78125 42.390625 
Q 38.140625 42.390625 41.71875 45.5625 
Q 45.3125 48.734375 45.3125 54.390625 
Q 45.3125 60.0625 41.71875 63.234375 
Q 38.140625 66.40625 31.78125 66.40625 
Q 25.390625 66.40625 21.84375 63.234375 
Q 18.3125 60.0625 18.3125 54.390625 
z
" id="DejaVuSans-38"/>
      </defs>
      <g transform="translate(222.965 175.042188)scale(0.1 -0.1)">
       <use xlink:href="#DejaVuSans-38"/>
      </g>
     </g>
    </g>
    <g id="xtick_6">
     <g id="line2d_6">
      <g>
       <use style="stroke:#000000;stroke-width:0.8;" x="270.8375" xlink:href="#m834f6b40d7" y="160.44375"/>
      </g>
     </g>
     <g id="text_6">
      <!-- 10 -->
      <defs>
       <path d="M 12.40625 8.296875 
L 28.515625 8.296875 
L 28.515625 63.921875 
L 10.984375 60.40625 
L 10.984375 69.390625 
L 28.421875 72.90625 
L 38.28125 72.90625 
L 38.28125 8.296875 
L 54.390625 8.296875 
L 54.390625 0 
L 12.40625 0 
z
" id="DejaVuSans-31"/>
      </defs>
      <g transform="translate(264.475 175.042188)scale(0.1 -0.1)">
       <use xlink:href="#DejaVuSans-31"/>
       <use x="63.623047" xlink:href="#DejaVuSans-30"/>
      </g>
     </g>
    </g>
    <g id="text_7">
     <!-- Entropy (kJ/K/kg) -->
     <defs>
      <path d="M 9.8125 72.90625 
L 55.90625 72.90625 
L 55.90625 64.59375 
L 19.671875 64.59375 
L 19.671875 43.015625 
L 54.390625 43.015625 
L 54.390625 34.71875 
L 19.671875 34.71875 
L 19.671875 8.296875 
L 56.78125 8.296875 
L 56.78125 0 
L 9.8125 0 
z
" id="DejaVuSans-45"/>
      <path d="M 54.890625 33.015625 
L 54.890625 0 
L 45.90625 0 
L 45.90625 32.71875 
Q 45.90625 40.484375 42.875 44.328125 
Q 39.84375 48.1875 33.796875 48.1875 
Q 26.515625 48.1875 22.3125 43.546875 
Q 18.109375 38.921875 18.109375 30.90625 
L 18.109375 0 
L 9.078125 0 
L 9.078125 54.6875 
L 18.109375 54.6875 
L 18.109375 46.1875 
Q 21.34375 51.125 25.703125 53.5625 
Q 30.078125 56 35.796875 56 
Q 45.21875 56 50.046875 50.171875 
Q 54.890625 44.34375 54.890625 33.015625 
z
" id="DejaVuSans-6e"/>
      <path d="M 18.3125 70.21875 
L 18.3125 54.6875 
L 36.8125 54.6875 
L 36.8125 47.703125 
L 18.3125 47.703125 
L 18.3125 18.015625 
Q 18.3125 11.328125 20.140625 9.421875 
Q 21.96875 7.515625 27.59375 7.515625 
L 36.8125 7.515625 
L 36.8125 0 
L 27.59375 0 
Q 17.1875 0 13.234375 3.875 
Q 9.28125 7.765625 9.28125 18.015625 
L 9.28125 47.703125 
L 2.6875 47.703125 
L 2.6875 54.6875 
L 9.28125 54.6875 
L 9.28125 70.21875 
z
" id="DejaVuSans-74"/>
      <path d="M 41.109375 46.296875 
Q 39.59375 47.171875 37.8125 47.578125 
Q 36.03125 48 33.890625 48 
Q 26.265625 48 22.1875 43.046875 
Q 18.109375 38.09375 18.109375 28.8125 
L 18.109375 0 
L 9.078125 0 
L 9.078125 54.6875 
L 18.109375 54.6875 
L 18.109375 46.1875 
Q 20.953125 51.171875 25.484375 53.578125 
Q 30.03125 56 36.53125 56 
Q 37.453125 56 38.578125 55.875 
Q 39.703125 55.765625 41.0625 55.515625 
z
" id="DejaVuSans-72"/>
      <path d="M 30.609375 48.390625 
Q 23.390625 48.390625 19.1875 42.75 
Q 14.984375 37.109375 14.984375 27.296875 
Q 14.984375 17.484375 19.15625 11.84375 
Q 23.34375 6.203125 30.609375 6.203125 
Q 37.796875 6.203125 41.984375 11.859375 
Q 46.1875 17.53125 46.1875 27.296875 
Q 46.1875 37.015625 41.984375 42.703125 
Q 37.796875 48.390625 30.609375 48.390625 
z
M 30.609375 56 
Q 42.328125 56 49.015625 48.375 
Q 55.71875 40.765625 55.71875 27.296875 
Q 55.71875 13.875 49.015625 6.21875 
Q 42.328125 -1.421875 30.609375 -1.421875 
Q 18.84375 -1.421875 12.171875 6.21875 
Q 5.515625 13.875 5.515625 27.296875 
Q 5.515625 40.765625 12.171875 48.375 
Q 18.84375 56 30.609375 56 
z
" id="DejaVuSans-6f"/>
      <path d="M 18.109375 8.203125 
L 18.109375 -20.796875 
L 9.078125 -20.796875 
L 9.078125 54.6875 
L 18.109375 54.6875 
L 18.109375 46.390625 
Q 20.953125 51.265625 25.265625 53.625 
Q 29.59375 56 35.59375 56 
Q 45.5625 56 51.78125 48.09375 
Q 58.015625 40.1875 58.015625 27.296875 
Q 58.015625 14.40625 51.78125 6.484375 
Q 45.5625 -1.421875 35.59375 -1.421875 
Q 29.59375 -1.421875 25.265625 0.953125 
Q 20.953125 3.328125 18.109375 8.203125 
z
M 48.6875 27.296875 
Q 48.6875 37.203125 44.609375 42.84375 
Q 40.53125 48.484375 33.40625 48.484375 
Q 26.265625 48.484375 22.1875 42.84375 
Q 18.109375 37.203125 18.109375 27.296875 
Q 18.109375 17.390625 22.1875 11.75 
Q 26.265625 6.109375 33.40625 6.109375 
Q 40.53125 6.109375 44.609375 11.75 
Q 48.6875 17.390625 48.6875 27.296875 
z
" id="DejaVuSans-70"/>
      <path d="M 32.171875 -5.078125 
Q 28.375 -14.84375 24.75 -17.8125 
Q 21.140625 -20.796875 15.09375 -20.796875 
L 7.90625 -20.796875 
L 7.90625 -13.28125 
L 13.1875 -13.28125 
Q 16.890625 -13.28125 18.9375 -11.515625 
Q 21 -9.765625 23.484375 -3.21875 
L 25.09375 0.875 
L 2.984375 54.6875 
L 12.5 54.6875 
L 29.59375 11.921875 
L 46.6875 54.6875 
L 56.203125 54.6875 
z
" id="DejaVuSans-79"/>
      <path id="DejaVuSans-20"/>
      <path d="M 31 75.875 
Q 24.46875 64.65625 21.28125 53.65625 
Q 18.109375 42.671875 18.109375 31.390625 
Q 18.109375 20.125 21.3125 9.0625 
Q 24.515625 -2 31 -13.1875 
L 23.1875 -13.1875 
Q 15.875 -1.703125 12.234375 9.375 
Q 8.59375 20.453125 8.59375 31.390625 
Q 8.59375 42.28125 12.203125 53.3125 
Q 15.828125 64.359375 23.1875 75.875 
z
" id="DejaVuSans-28"/>
      <path d="M 9.078125 75.984375 
L 18.109375 75.984375 
L 18.109375 31.109375 
L 44.921875 54.6875 
L 56.390625 54.6875 
L 27.390625 29.109375 
L 57.625 0 
L 45.90625 0 
L 18.109375 26.703125 
L 18.109375 0 
L 9.078125 0 
z
" id="DejaVuSans-6b"/>
      <path d="M 9.8125 72.90625 
L 19.671875 72.90625 
L 19.671875 5.078125 
Q 19.671875 -8.109375 14.671875 -14.0625 
Q 9.671875 -20.015625 -1.421875 -20.015625 
L -5.171875 -20.015625 
L -5.171875 -11.71875 
L -2.09375 -11.71875 
Q 4.4375 -11.71875 7.125 -8.046875 
Q 9.8125 -4.390625 9.8125 5.078125 
z
" id="DejaVuSans-4a"/>
      <path d="M 25.390625 72.90625 
L 33.6875 72.90625 
L 8.296875 -9.28125 
L 0 -9.28125 
z
" id="DejaVuSans-2f"/>
      <path d="M 9.8125 72.90625 
L 19.671875 72.90625 
L 19.671875 42.09375 
L 52.390625 72.90625 
L 65.09375 72.90625 
L 28.90625 38.921875 
L 67.671875 0 
L 54.6875 0 
L 19.671875 35.109375 
L 19.671875 0 
L 9.8125 0 
z
" id="DejaVuSans-4b"/>
      <path d="M 45.40625 27.984375 
Q 45.40625 37.75 41.375 43.109375 
Q 37.359375 48.484375 30.078125 48.484375 
Q 22.859375 48.484375 18.828125 43.109375 
Q 14.796875 37.75 14.796875 27.984375 
Q 14.796875 18.265625 18.828125 12.890625 
Q 22.859375 7.515625 30.078125 7.515625 
Q 37.359375 7.515625 41.375 12.890625 
Q 45.40625 18.265625 45.40625 27.984375 
z
M 54.390625 6.78125 
Q 54.390625 -7.171875 48.1875 -13.984375 
Q 42 -20.796875 29.203125 -20.796875 
Q 24.46875 -20.796875 20.265625 -20.09375 
Q 16.0625 -19.390625 12.109375 -17.921875 
L 12.109375 -9.1875 
Q 16.0625 -11.328125 19.921875 -12.34375 
Q 23.78125 -13.375 27.78125 -13.375 
Q 36.625 -13.375 41.015625 -8.765625 
Q 45.40625 -4.15625 45.40625 5.171875 
L 45.40625 9.625 
Q 42.625 4.78125 38.28125 2.390625 
Q 33.9375 0 27.875 0 
Q 17.828125 0 11.671875 7.65625 
Q 5.515625 15.328125 5.515625 27.984375 
Q 5.515625 40.671875 11.671875 48.328125 
Q 17.828125 56 27.875 56 
Q 33.9375 56 38.28125 53.609375 
Q 42.625 51.21875 45.40625 46.390625 
L 45.40625 54.6875 
L 54.390625 54.6875 
z
" id="DejaVuSans-67"/>
      <path d="M 8.015625 75.875 
L 15.828125 75.875 
Q 23.140625 64.359375 26.78125 53.3125 
Q 30.421875 42.28125 30.421875 31.390625 
Q 30.421875 20.453125 26.78125 9.375 
Q 23.140625 -1.703125 15.828125 -13.1875 
L 8.015625 -13.1875 
Q 14.5 -2 17.703125 9.0625 
Q 20.90625 20.125 20.90625 31.390625 
Q 20.90625 42.671875 17.703125 53.65625 
Q 14.5 64.65625 8.015625 75.875 
z
" id="DejaVuSans-29"/>
     </defs>
     <g transform="translate(116.996094 188.720313)scale(0.1 -0.1)">
      <use xlink:href="#DejaVuSans-45"/>
      <use x="63.183594" xlink:href="#DejaVuSans-6e"/>
      <use x="126.5625" xlink:href="#DejaVuSans-74"/>
      <use x="165.771484" xlink:href="#DejaVuSans-72"/>
      <use x="206.853516" xlink:href="#DejaVuSans-6f"/>
      <use x="268.035156" xlink:href="#DejaVuSans-70"/>
      <use x="331.511719" xlink:href="#DejaVuSans-79"/>
      <use x="390.691406" xlink:href="#DejaVuSans-20"/>
      <use x="422.478516" xlink:href="#DejaVuSans-28"/>
      <use x="461.492188" xlink:href="#DejaVuSans-6b"/>
      <use x="519.402344" xlink:href="#DejaVuSans-4a"/>
      <use x="548.894531" xlink:href="#DejaVuSans-2f"/>
      <use x="582.585938" xlink:href="#DejaVuSans-4b"/>
      <use x="648.162109" xlink:href="#DejaVuSans-2f"/>
      <use x="681.853516" xlink:href="#DejaVuSans-6b"/>
      <use x="739.763672" xlink:href="#DejaVuSans-67"/>
      <use x="803.240234" xlink:href="#DejaVuSans-29"/>
     </g>
    </g>
   </g>
   <g id="matplotlib.axis_2">
    <g id="ytick_1">
     <g id="line2d_7">
      <defs>
       <path d="M 0 0 
L -3.5 0 
" id="mf98f57ea4f" style="stroke:#000000;stroke-width:0.8;"/>
      </defs>
      <g>
       <use style="stroke:#000000;stroke-width:0.8;" x="47.38125" xlink:href="#mf98f57ea4f" y="160.44375"/>
      </g>
     </g>
     <g id="text_8">
      <!-- 1.0 -->
      <defs>
       <path d="M 10.6875 12.40625 
L 21 12.40625 
L 21 0 
L 10.6875 0 
z
" id="DejaVuSans-2e"/>
      </defs>
      <g transform="translate(24.478125 164.242969)scale(0.1 -0.1)">
       <use xlink:href="#DejaVuSans-31"/>
       <use x="63.623047" xlink:href="#DejaVuSans-2e"/>
       <use x="95.410156" xlink:href="#DejaVuSans-30"/>
      </g>
     </g>
    </g>
    <g id="ytick_2">
     <g id="line2d_8">
      <g>
       <use style="stroke:#000000;stroke-width:0.8;" x="47.38125" xlink:href="#mf98f57ea4f" y="136.136328"/>
      </g>
     </g>
     <g id="text_9">
      <!-- 1.5 -->
      <defs>
       <path d="M 10.796875 72.90625 
L 49.515625 72.90625 
L 49.515625 64.59375 
L 19.828125 64.59375 
L 19.828125 46.734375 
Q 21.96875 47.46875 24.109375 47.828125 
Q 26.265625 48.1875 28.421875 48.1875 
Q 40.625 48.1875 47.75 41.5 
Q 54.890625 34.8125 54.890625 23.390625 
Q 54.890625 11.625 47.5625 5.09375 
Q 40.234375 -1.421875 26.90625 -1.421875 
Q 22.3125 -1.421875 17.546875 -0.640625 
Q 12.796875 0.140625 7.71875 1.703125 
L 7.71875 11.625 
Q 12.109375 9.234375 16.796875 8.0625 
Q 21.484375 6.890625 26.703125 6.890625 
Q 35.15625 6.890625 40.078125 11.328125 
Q 45.015625 15.765625 45.015625 23.390625 
Q 45.015625 31 40.078125 35.4375 
Q 35.15625 39.890625 26.703125 39.890625 
Q 22.75 39.890625 18.8125 39.015625 
Q 14.890625 38.140625 10.796875 36.28125 
z
" id="DejaVuSans-35"/>
      </defs>
      <g transform="translate(24.478125 139.935547)scale(0.1 -0.1)">
       <use xlink:href="#DejaVuSans-31"/>
       <use x="63.623047" xlink:href="#DejaVuSans-2e"/>
       <use x="95.410156" xlink:href="#DejaVuSans-35"/>
      </g>
     </g>
    </g>
    <g id="ytick_3">
     <g id="line2d_9">
      <g>
       <use style="stroke:#000000;stroke-width:0.8;" x="47.38125" xlink:href="#mf98f57ea4f" y="111.828906"/>
      </g>
     </g>
     <g id="text_10">
      <!-- 2.0 -->
      <g transform="translate(24.478125 115.628125)scale(0.1 -0.1)">
       <use xlink:href="#DejaVuSans-32"/>
       <use x="63.623047" xlink:href="#DejaVuSans-2e"/>
       <use x="95.410156" xlink:href="#DejaVuSans-30"/>
      </g>
     </g>
    </g>
    <g id="ytick_4">
     <g id="line2d_10">
      <g>
       <use style="stroke:#000000;stroke-width:0.8;" x="47.38125" xlink:href="#mf98f57ea4f" y="87.521484"/>
      </g>
     </g>
     <g id="text_11">
      <!-- 2.5 -->
      <g transform="translate(24.478125 91.320703)scale(0.1 -0.1)">
       <use xlink:href="#DejaVuSans-32"/>
       <use x="63.623047" xlink:href="#DejaVuSans-2e"/>
       <use x="95.410156" xlink:href="#DejaVuSans-35"/>
      </g>
     </g>
    </g>
    <g id="ytick_5">
     <g id="line2d_11">
      <g>
       <use style="stroke:#000000;stroke-width:0.8;" x="47.38125" xlink:href="#mf98f57ea4f" y="63.214062"/>
      </g>
     </g>
     <g id="text_12">
      <!-- 3.0 -->
      <defs>
       <path d="M 40.578125 39.3125 
Q 47.65625 37.796875 51.625 33 
Q 55.609375 28.21875 55.609375 21.1875 
Q 55.609375 10.40625 48.1875 4.484375 
Q 40.765625 -1.421875 27.09375 -1.421875 
Q 22.515625 -1.421875 17.65625 -0.515625 
Q 12.796875 0.390625 7.625 2.203125 
L 7.625 11.71875 
Q 11.71875 9.328125 16.59375 8.109375 
Q 21.484375 6.890625 26.8125 6.890625 
Q 36.078125 6.890625 40.9375 10.546875 
Q 45.796875 14.203125 45.796875 21.1875 
Q 45.796875 27.640625 41.28125 31.265625 
Q 36.765625 34.90625 28.71875 34.90625 
L 20.21875 34.90625 
L 20.21875 43.015625 
L 29.109375 43.015625 
Q 36.375 43.015625 40.234375 45.921875 
Q 44.09375 48.828125 44.09375 54.296875 
Q 44.09375 59.90625 40.109375 62.90625 
Q 36.140625 65.921875 28.71875 65.921875 
Q 24.65625 65.921875 20.015625 65.03125 
Q 15.375 64.15625 9.8125 62.3125 
L 9.8125 71.09375 
Q 15.4375 72.65625 20.34375 73.4375 
Q 25.25 74.21875 29.59375 74.21875 
Q 40.828125 74.21875 47.359375 69.109375 
Q 53.90625 64.015625 53.90625 55.328125 
Q 53.90625 49.265625 50.4375 45.09375 
Q 46.96875 40.921875 40.578125 39.3125 
z
" id="DejaVuSans-33"/>
      </defs>
      <g transform="translate(24.478125 67.013281)scale(0.1 -0.1)">
       <use xlink:href="#DejaVuSans-33"/>
       <use x="63.623047" xlink:href="#DejaVuSans-2e"/>
       <use x="95.410156" xlink:href="#DejaVuSans-30"/>
      </g>
     </g>
    </g>
    <g id="ytick_6">
     <g id="line2d_12">
      <g>
       <use style="stroke:#000000;stroke-width:0.8;" x="47.38125" xlink:href="#mf98f57ea4f" y="38.906641"/>
      </g>
     </g>
     <g id="text_13">
      <!-- 3.5 -->
      <g transform="translate(24.478125 42.705859)scale(0.1 -0.1)">
       <use xlink:href="#DejaVuSans-33"/>
       <use x="63.623047" xlink:href="#DejaVuSans-2e"/>
       <use x="95.410156" xlink:href="#DejaVuSans-35"/>
      </g>
     </g>
    </g>
    <g id="ytick_7">
     <g id="line2d_13">
      <g>
       <use style="stroke:#000000;stroke-width:0.8;" x="47.38125" xlink:href="#mf98f57ea4f" y="14.599219"/>
      </g>
     </g>
     <g id="text_14">
      <!-- 4.0 -->
      <g transform="translate(24.478125 18.398437)scale(0.1 -0.1)">
       <use xlink:href="#DejaVuSans-34"/>
       <use x="63.623047" xlink:href="#DejaVuSans-2e"/>
       <use x="95.410156" xlink:href="#DejaVuSans-30"/>
      </g>
     </g>
    </g>
    <g id="text_15">
     <!-- Enthalpy (MJ/kg) -->
     <defs>
      <path d="M 54.890625 33.015625 
L 54.890625 0 
L 45.90625 0 
L 45.90625 32.71875 
Q 45.90625 40.484375 42.875 44.328125 
Q 39.84375 48.1875 33.796875 48.1875 
Q 26.515625 48.1875 22.3125 43.546875 
Q 18.109375 38.921875 18.109375 30.90625 
L 18.109375 0 
L 9.078125 0 
L 9.078125 75.984375 
L 18.109375 75.984375 
L 18.109375 46.1875 
Q 21.34375 51.125 25.703125 53.5625 
Q 30.078125 56 35.796875 56 
Q 45.21875 56 50.046875 50.171875 
Q 54.890625 44.34375 54.890625 33.015625 
z
" id="DejaVuSans-68"/>
      <path d="M 34.28125 27.484375 
Q 23.390625 27.484375 19.1875 25 
Q 14.984375 22.515625 14.984375 16.5 
Q 14.984375 11.71875 18.140625 8.90625 
Q 21.296875 6.109375 26.703125 6.109375 
Q 34.1875 6.109375 38.703125 11.40625 
Q 43.21875 16.703125 43.21875 25.484375 
L 43.21875 27.484375 
z
M 52.203125 31.203125 
L 52.203125 0 
L 43.21875 0 
L 43.21875 8.296875 
Q 40.140625 3.328125 35.546875 0.953125 
Q 30.953125 -1.421875 24.3125 -1.421875 
Q 15.921875 -1.421875 10.953125 3.296875 
Q 6 8.015625 6 15.921875 
Q 6 25.140625 12.171875 29.828125 
Q 18.359375 34.515625 30.609375 34.515625 
L 43.21875 34.515625 
L 43.21875 35.40625 
Q 43.21875 41.609375 39.140625 45 
Q 35.0625 48.390625 27.6875 48.390625 
Q 23 48.390625 18.546875 47.265625 
Q 14.109375 46.140625 10.015625 43.890625 
L 10.015625 52.203125 
Q 14.9375 54.109375 19.578125 55.046875 
Q 24.21875 56 28.609375 56 
Q 40.484375 56 46.34375 49.84375 
Q 52.203125 43.703125 52.203125 31.203125 
z
" id="DejaVuSans-61"/>
      <path d="M 9.421875 75.984375 
L 18.40625 75.984375 
L 18.40625 0 
L 9.421875 0 
z
" id="DejaVuSans-6c"/>
      <path d="M 9.8125 72.90625 
L 24.515625 72.90625 
L 43.109375 23.296875 
L 61.8125 72.90625 
L 76.515625 72.90625 
L 76.515625 0 
L 66.890625 0 
L 66.890625 64.015625 
L 48.09375 14.015625 
L 38.1875 14.015625 
L 19.390625 64.015625 
L 19.390625 0 
L 9.8125 0 
z
" id="DejaVuSans-4d"/>
     </defs>
     <g transform="translate(18.398438 128.598828)rotate(-90)scale(0.1 -0.1)">
      <use xlink:href="#DejaVuSans-45"/>
      <use x="63.183594" xlink:href="#DejaVuSans-6e"/>
      <use x="126.5625" xlink:href="#DejaVuSans-74"/>
      <use x="165.771484" xlink:href="#DejaVuSans-68"/>
      <use x="229.150391" xlink:href="#DejaVuSans-61"/>
      <use x="290.429688" xlink:href="#DejaVuSans-6c"/>
      <use x="318.212891" xlink:href="#DejaVuSans-70"/>
      <use x="381.689453" xlink:href="#DejaVuSans-79"/>
      <use x="440.869141" xlink:href="#DejaVuSans-20"/>
      <use x="472.65625" xlink:href="#DejaVuSans-28"/>
      <use x="511.669922" xlink:href="#DejaVuSans-4d"/>
      <use x="597.949219" xlink:href="#DejaVuSans-4a"/>
      <use x="627.441406" xlink:href="#DejaVuSans-2f"/>
      <use x="661.132812" xlink:href="#DejaVuSans-6b"/>
      <use x="719.042969" xlink:href="#DejaVuSans-67"/>
      <use x="782.519531" xlink:href="#DejaVuSans-29"/>
     </g>
    </g>
   </g>
   <g id="line2d_14">
    <path clip-path="url(#pc5e00d7e55)" d="M 58.008574 202.6 
L 251.732217 84.43199 
L 255.630957 81.705772 
L 259.593097 78.663421 
L 263.587825 75.293127 
L 267.271096 71.892628 
L 270.996098 68.144205 
L 274.744214 64.034107 
L 278.241804 59.870001 
L 281.771954 55.322875 
L 285.323192 50.376599 
L 288.887182 45.013469 
L 289 44.836705 
L 289 44.836705 
" style="fill:none;stroke:#000000;stroke-linecap:square;"/>
   </g>
   <g id="line2d_15">
    <path clip-path="url(#pc5e00d7e55)" d="M 57.663619 202.6 
L 61.88772 199.734124 
L 233.165345 80.768197 
L 236.905094 77.811523 
L 240.682105 74.550121 
L 244.480537 70.96703 
L 248.003843 67.349712 
L 251.562688 63.387142 
L 255.143114 59.065037 
L 258.734532 54.368175 
L 262.329291 49.280149 
L 265.922229 43.783139 
L 269.316132 38.189873 
L 272.7236 32.160274 
L 276.141189 25.673821 
L 279.566378 18.709239 
L 282.997141 11.245042 
L 286.584155 2.89321 
L 288.176204 -1 
L 288.176204 -1 
" style="fill:none;stroke:#000000;stroke-linecap:square;"/>
   </g>
   <g id="line2d_16">
    <path clip-path="url(#pc5e00d7e55)" d="M 57.656986 202.6 
L 63.676184 198.476694 
L 69.617334 194.137949 
L 75.477232 189.580382 
L 76.492191 188.761709 
L 215.68336 75.746447 
L 219.467751 72.258362 
L 223.213408 68.499111 
L 226.93366 64.436288 
L 230.632133 60.045911 
L 234.086427 55.605705 
L 237.546014 50.807424 
L 241.006543 45.633787 
L 244.465039 40.066696 
L 247.919711 34.087063 
L 251.369647 27.674895 
L 254.814455 20.809609 
L 258.253925 13.470494 
L 261.833604 5.292993 
L 264.431091 -1 
L 264.431091 -1 
" style="fill:none;stroke:#000000;stroke-linecap:square;"/>
   </g>
   <g id="line2d_17">
    <path clip-path="url(#pc5e00d7e55)" d="M 57.590648 202.6 
L 63.600926 198.485595 
L 69.471883 194.20268 
L 75.321302 189.659898 
L 81.003702 184.967867 
L 86.687715 179.984338 
L 92.256446 174.806567 
L 95.157629 171.989051 
L 198.418079 70.080911 
L 202.270284 65.851031 
L 205.94006 61.503287 
L 209.506574 56.947676 
L 213.007904 52.130408 
L 216.649538 46.72908 
L 220.234962 40.993812 
L 223.775812 34.896617 
L 227.280318 28.412328 
L 230.754588 21.51747 
L 234.203181 14.189929 
L 237.76323 6.094604 
L 240.696747 -1 
L 240.696747 -1 
" style="fill:none;stroke:#000000;stroke-linecap:square;"/>
   </g>
   <g id="line2d_18">
    <path clip-path="url(#pc5e00d7e55)" d="M 56.010698 202.6 
L 61.968662 198.58352 
L 67.591141 194.547897 
L 73.765407 189.824543 
L 79.581664 185.078683 
L 85.094061 180.299854 
L 90.351683 175.473964 
L 96.106139 169.878109 
L 101.650594 164.163464 
L 107.050381 158.283303 
L 112.380866 152.167921 
L 117.745368 145.700633 
L 123.323902 138.649394 
L 129.570262 130.386917 
L 136.048663 121.480374 
L 141.469781 113.870528 
L 165.84572 79.28597 
L 172.920858 68.798058 
L 178.390131 60.287635 
L 183.213479 52.359189 
L 187.442831 44.989742 
L 191.585989 37.317784 
L 195.481768 29.635321 
L 199.22189 21.783026 
L 203.044067 13.230016 
L 206.773039 4.329038 
L 208.896287 -1 
L 208.896287 -1 
" style="fill:none;stroke:#000000;stroke-linecap:square;"/>
   </g>
   <g id="line2d_19">
    <path clip-path="url(#pc5e00d7e55)" d="M 50.201313 202.6 
L 55.438857 199.281986 
L 61.217465 195.386584 
L 66.670695 191.472419 
L 72.660731 186.890017 
L 78.295646 182.292177 
L 83.620596 177.675934 
L 89.378576 172.370322 
L 94.837406 167.022449 
L 100.042443 161.620087 
L 105.643545 155.460357 
L 111.022351 149.192663 
L 116.223108 142.791672 
L 121.287006 136.227318 
L 126.80127 128.697859 
L 132.248568 120.863179 
L 137.67632 112.661432 
L 143.110042 104.055268 
L 148.518887 95.095391 
L 154.30199 85.075078 
L 159.719644 75.255703 
L 165.048244 65.153622 
L 170.097086 55.123923 
L 175.11145 44.653303 
L 179.723377 34.502713 
L 184.253424 23.972234 
L 188.492363 13.547282 
L 192.708145 2.565754 
L 194.024969 -1 
L 194.024969 -1 
" style="fill:none;stroke:#000000;stroke-linecap:square;"/>
   </g>
   <g id="line2d_20">
    <path clip-path="url(#pc5e00d7e55)" d="M 44.278825 188.609415 
L 50.098211 185.024157 
L 55.709633 181.323072 
L 61.830362 176.997295 
L 67.512016 172.692369 
L 72.81157 168.406905 
L 78.468261 163.524266 
L 83.758998 158.649389 
L 88.733018 153.776689 
L 93.997751 148.293866 
L 98.953263 142.808458 
L 104.138465 136.710652 
L 109.022815 130.611158 
L 113.637913 124.512021 
L 118.434997 117.806131 
L 122.967954 111.10658 
L 127.641298 103.808733 
L 132.415535 95.919351 
L 136.919283 88.050844 
L 141.49707 79.60354 
L 146.119771 70.58586 
L 150.479888 61.604432 
L 154.869577 52.067228 
L 159.265725 41.988427 
L 163.646077 31.388323 
L 167.989228 20.293875 
L 172.275767 8.736098 
L 172.275767 8.736098 
" style="fill:none;stroke:#000000;stroke-linecap:square;"/>
   </g>
   <g id="line2d_21">
    <path clip-path="url(#pc5e00d7e55)" d="M 32.698302 138.386596 
L 39.274318 134.339335 
L 45.07917 130.511402 
L 51.261689 126.142425 
L 56.90668 121.865651 
L 62.095887 117.669713 
L 67.566003 112.948422 
L 72.633341 108.279576 
L 77.937515 103.064716 
L 82.888314 97.872898 
L 87.535468 92.695064 
L 92.38752 86.953799 
L 96.949332 81.223943 
L 101.669287 74.935103 
L 106.110197 68.662529 
L 110.670484 61.83999 
L 115.311981 54.474039 
L 119.676608 47.134507 
L 124.101545 39.259109 
L 128.560908 30.852148 
L 133.033162 21.91668 
L 137.2454 13.010187 
L 141.46836 3.574181 
L 143.434156 -1 
L 143.434156 -1 
" style="fill:none;stroke:#000000;stroke-linecap:square;"/>
   </g>
   <g id="line2d_22">
    <path clip-path="url(#pc5e00d7e55)" d="M 270.8375 86.550506 
L 246.253437 86.587668 
L 57.926098 202.6 
M 50.356226 202.6 
L 49.777818 198.994968 
L 48.596513 193.18725 
L 44.499527 174.96744 
L 39.32483 151.290601 
L 18.240183 53.761269 
L 12.676872 29.38863 
L 7.335179 6.831657 
L 5.429588 -1 
L 5.429588 -1 
" style="fill:none;stroke:#000000;stroke-dasharray:1,1.65;stroke-dashoffset:0;"/>
   </g>
   <g id="line2d_23">
    <path clip-path="url(#pc5e00d7e55)" d="M 270.8375 82.921364 
L 230.779095 83.041106 
L 227.818015 83.083497 
L 63.108421 198.881992 
L 56.328115 170.963372 
L 53.464615 158.042392 
L 50.756851 144.781091 
L 48.068061 130.428591 
L 45.504199 115.46654 
L 43.162539 100.544593 
L 40.706049 83.401165 
L 38.588376 67.208961 
L 36.424812 49.09534 
L 34.235601 28.875887 
L 32.043684 6.360552 
L 31.379093 -1 
L 31.379093 -1 
" style="fill:none;stroke:#000000;stroke-dasharray:1,1.65;stroke-dashoffset:0;"/>
   </g>
   <g id="line2d_24">
    <path clip-path="url(#pc5e00d7e55)" d="M 270.8375 78.350914 
L 228.904865 78.469199 
L 217.440978 78.714351 
L 211.714916 78.986102 
L 76.591784 188.681072 
L 75.464471 186.094526 
L 74.099681 182.394566 
L 72.435185 177.172291 
L 70.603425 170.669839 
L 68.576228 162.676035 
L 66.326056 152.906987 
L 63.827405 140.983085 
L 61.383292 128.183282 
L 59.07007 114.947293 
L 56.600923 99.477814 
L 54.372745 84.171768 
L 52.058812 66.719248 
L 49.682097 46.857553 
L 47.674639 28.264544 
L 45.664655 7.634633 
L 44.885467 -1 
L 44.885467 -1 
" style="fill:none;stroke:#000000;stroke-dasharray:1,1.65;stroke-dashoffset:0;"/>
   </g>
   <g id="line2d_25">
    <path clip-path="url(#pc5e00d7e55)" d="M 270.8375 69.047256 
L 228.833226 69.166171 
L 217.369958 69.411382 
L 210.195968 69.774565 
L 204.821058 70.261334 
L 200.464688 70.874874 
L 196.819226 71.604145 
L 193.55332 72.479716 
L 191.067116 73.325595 
L 99.457923 167.625251 
L 98.526721 167.007389 
L 97.375795 165.942901 
L 96.188189 164.487412 
L 94.962813 162.598105 
L 93.697869 160.230127 
L 92.390923 157.336171 
L 90.808841 153.226952 
L 89.158882 148.241838 
L 87.433022 142.274855 
L 85.621901 135.198836 
L 83.715548 126.860382 
L 81.70443 117.07635 
L 79.580631 105.632082 
L 77.338967 92.281127 
L 74.977899 76.745852 
L 72.50024 58.718463 
L 70.289432 41.028379 
L 68.006493 21.032207 
L 65.713634 -1 
L 65.713634 -1 
" style="fill:none;stroke:#000000;stroke-dasharray:1,1.65;stroke-dashoffset:0;"/>
   </g>
   <g id="line2d_26">
    <path clip-path="url(#pc5e00d7e55)" d="M 270.8375 59.474189 
L 230.694058 59.594201 
L 219.32217 59.838433 
L 212.017737 60.20916 
L 206.635136 60.698228 
L 202.276107 61.311643 
L 198.58195 62.048599 
L 195.172729 62.960869 
L 192.051354 64.037165 
L 189.231167 65.241286 
L 186.504999 66.638343 
L 183.875119 68.218295 
L 181.089182 70.148816 
L 178.108995 72.505806 
L 175.1873 75.099581 
L 174.881825 75.386324 
L 119.953755 143.765933 
L 118.647069 144.359189 
L 117.437198 144.659029 
L 116.352032 144.711446 
L 115.223161 144.536009 
L 114.051009 144.091775 
L 113.04131 143.483988 
L 112.001729 142.630424 
L 110.932225 141.50132 
L 109.609152 139.738332 
L 108.242401 137.475823 
L 106.831179 134.652613 
L 105.374141 131.202799 
L 103.869234 127.054174 
L 102.313618 122.126109 
L 100.703707 116.327161 
L 99.035347 109.552712 
L 97.304092 101.682928 
L 95.505551 92.581241 
L 93.635751 82.093398 
L 91.691465 70.047046 
L 89.670494 56.251698 
L 87.571879 40.498998 
L 85.39607 22.563212 
L 83.145073 2.202019 
L 82.809488 -1 
L 82.809488 -1 
" style="fill:none;stroke:#000000;stroke-dasharray:1,1.65;stroke-dashoffset:0;"/>
   </g>
   <g id="line2d_27">
    <path clip-path="url(#pc5e00d7e55)" d="M 270.8375 39.406821 
L 235.410156 39.53114 
L 224.186214 39.781429 
L 217.04794 40.151448 
L 211.817172 40.629051 
L 207.51934 41.230679 
L 203.91633 41.941227 
L 200.498438 42.844371 
L 197.533745 43.852208 
L 194.764023 45.017269 
L 192.195718 46.316685 
L 189.540314 47.903489 
L 186.780837 49.83117 
L 184.225794 51.87644 
L 181.561014 54.274396 
L 178.774404 57.059013 
L 175.481681 60.683741 
L 172.013553 64.840664 
L 167.951087 70.060962 
L 162.339482 77.671385 
L 153.805677 89.269614 
L 150.62194 93.234338 
L 148.340196 95.802675 
L 145.890709 98.196919 
L 143.920878 99.767714 
L 142.535826 100.642289 
L 141.088063 101.321999 
L 139.573106 101.743387 
L 137.986403 101.826675 
L 137.164697 101.71136 
L 136.323311 101.472598 
L 135.461665 101.094432 
L 134.579197 100.55933 
L 133.675361 99.848129 
L 132.749639 98.939983 
L 131.801536 97.812318 
L 130.830581 96.440773 
L 129.836313 94.79912 
L 128.818272 92.859143 
L 127.775975 90.590475 
L 126.708898 87.960357 
L 125.616458 84.933354 
L 124.497997 81.470992 
L 123.352766 77.531358 
L 122.179929 73.068662 
L 120.978562 68.032798 
L 119.747668 62.368908 
L 118.4862 56.016986 
L 117.193079 48.911534 
L 115.867226 40.98127 
L 114.507588 32.14891 
L 113.113163 22.331006 
L 111.683025 11.43786 
L 110.174228 -1 
L 110.174228 -1 
" style="fill:none;stroke:#000000;stroke-dasharray:1,1.65;stroke-dashoffset:0;"/>
   </g>
   <g id="line2d_28">
    <path clip-path="url(#pc5e00d7e55)" d="M 270.8375 6.797292 
L 242.010383 6.930569 
L 231.312717 7.18639 
L 224.348978 7.561964 
L 219.126552 8.054238 
L 214.752832 8.688207 
L 211.007081 9.459867 
L 207.663548 10.383614 
L 204.732197 11.418905 
L 201.976838 12.617509 
L 199.1394 14.108717 
L 196.471946 15.767191 
L 193.702099 17.761236 
L 190.808243 20.13467 
L 187.764313 22.924122 
L 184.203967 26.498021 
L 178.509709 32.592201 
L 174.110156 37.177166 
L 171.480934 39.63357 
L 169.132158 41.522517 
L 167.131399 42.832882 
L 165.550774 43.632599 
L 163.895214 44.208308 
L 162.747158 44.427043 
L 161.561712 44.476514 
L 160.337137 44.316079 
L 159.071502 43.895589 
L 157.762583 43.15389 
L 156.407779 42.017534 
L 155.004073 40.399735 
L 153.548057 38.199495 
L 152.036015 35.300587 
L 150.464053 31.56996 
L 148.828245 26.855016 
L 147.124736 20.979396 
L 145.349792 13.737211 
L 143.499772 4.886118 
L 142.412248 -1 
L 142.412248 -1 
" style="fill:none;stroke:#000000;stroke-dasharray:1,1.65;stroke-dashoffset:0;"/>
   </g>
   <g id="line2d_29">
    <path clip-path="url(#pc5e00d7e55)" d="M 251.935666 87.4953 
L 249.734898 87.145662 
L 247.602204 86.801158 
L 245.536526 86.4606 
L 243.536421 86.123088 
L 241.600175 85.787947 
L 239.725894 85.454682 
L 237.911568 85.122944 
L 236.155118 84.792496 
L 234.454437 84.463197 
L 232.807416 84.134978 
L 231.211965 83.80783 
L 229.666029 83.481794 
L 228.167598 83.156948 
L 226.714715 82.833402 
L 225.305482 82.511288 
L 223.938065 82.190762 
L 222.610691 81.871993 
L 221.321655 81.555163 
L 220.069315 81.240464 
L 218.852093 80.928095 
L 217.668475 80.61826 
L 216.517007 80.311169 
L 215.396297 80.007033 
L 214.305007 79.706067 
L 213.241859 79.408484 
L 212.205624 79.114501 
L 211.195128 78.824333 
L 210.209245 78.538196 
L 209.246893 78.256305 
L 208.30704 77.978873 
L 207.388693 77.706114 
L 206.4909 77.438241 
L 205.612749 77.175466 
L 204.753363 76.917998 
L 203.911901 76.666051 
L 203.087554 76.419833 
L 202.279544 76.179555 
L 201.487121 75.945428 
L 200.709563 75.717665 
L 199.946175 75.496478 
L 199.196284 75.282082 
L 198.459239 75.074694 
L 197.734411 74.874535 
L 197.021187 74.681828 
L 196.318975 74.496802 
L 195.627197 74.319689 
L 194.945288 74.150729 
L 194.272698 73.990168 
L 193.608887 73.83826 
L 192.953326 73.695266 
L 192.305493 73.561458 
L 191.664875 73.437119 
L 191.030962 73.322543 
L 190.403251 73.218037 
L 189.78124 73.123922 
L 189.16443 73.040536 
L 188.552322 72.968231 
L 187.944416 72.907381 
L 187.340206 72.858377 
L 186.739188 72.821632 
L 186.140846 72.797585 
L 185.544662 72.786698 
L 184.950105 72.789461 
L 184.356634 72.806397 
L 183.763697 72.838057 
L 183.170725 72.885033 
L 182.577131 72.947953 
L 181.982308 73.027491 
L 181.385625 73.124367 
L 180.786425 73.239356 
L 180.184018 73.37329 
L 179.577678 73.52707 
L 178.966636 73.701669 
L 178.350074 73.898148 
L 177.727117 74.117663 
L 177.096824 74.361481 
L 176.458172 74.630998 
L 175.810047 74.927759 
L 175.151221 75.253486 
L 174.480335 75.610108 
L 173.795866 75.999802 
L 173.096096 76.425048 
L 172.379063 76.888689 
L 171.642506 77.394019 
L 170.883787 77.944897 
L 170.099784 78.545891 
L 169.286758 79.20249 
L 168.440148 79.921381 
L 167.554295 80.710861 
L 166.622025 81.581432 
L 165.634016 82.546719 
L 164.577775 83.624933 
L 163.435923 84.841333 
L 162.183073 86.232698 
L 160.779606 87.856213 
L 159.157508 89.809637 
L 157.180876 92.28743 
L 154.486013 95.807341 
L 145.935127 107.620115 
" style="fill:none;stroke:#000000;stroke-dasharray:3.7,1.6;stroke-dashoffset:0;"/>
   </g>
   <g id="line2d_30">
    <path clip-path="url(#pc5e00d7e55)" d="M 57.662302 202.6 
L 58.366421 202.132348 
L 59.507933 201.364802 
L 60.635689 200.597227 
L 61.750099 199.829563 
L 62.851551 199.061756 
L 63.940412 198.29376 
L 65.017031 197.525529 
L 66.081743 196.75702 
L 67.13487 195.988191 
L 68.176724 195.218999 
L 69.207604 194.449401 
L 70.227804 193.679353 
L 71.237607 192.90881 
L 72.23729 192.137723 
L 73.227125 191.366044 
L 74.207374 190.59372 
L 75.178297 189.820699 
L 76.140145 189.046924 
L 77.093167 188.272336 
L 78.037606 187.496873 
L 78.973699 186.720473 
L 79.901681 185.943069 
L 80.821781 185.16459 
L 81.734225 184.384965 
L 82.639236 183.604119 
L 83.537033 182.821974 
L 84.427829 182.038448 
L 85.311838 181.253459 
L 86.189269 180.466918 
L 87.060327 179.678736 
L 87.925216 178.88882 
L 88.784138 178.097072 
L 89.637291 177.303393 
L 90.484872 176.507679 
L 91.327075 175.709823 
L 92.164094 174.909713 
L 92.99612 174.107235 
L 93.823343 173.30227 
L 94.645953 172.494694 
L 95.464138 171.684378 
L 96.278085 170.871191 
L 97.087983 170.054994 
L 97.89402 169.235643 
L 98.696382 168.41299 
L 99.49526 167.586879 
L 100.290844 166.757147 
L 101.083324 165.923626 
L 101.872894 165.086138 
L 102.659752 164.244498 
L 103.444095 163.398512 
L 104.226127 162.547974 
L 105.006054 161.692671 
L 105.784091 160.832374 
L 106.560453 159.966845 
L 107.335368 159.095828 
L 108.109068 158.219053 
L 108.881796 157.336234 
L 109.653803 156.447064 
L 110.425356 155.551214 
L 111.196732 154.648332 
L 111.968226 153.738039 
L 112.74015 152.819925 
L 113.512837 151.893546 
L 114.286644 150.95842 
L 115.061955 150.014021 
L 115.839186 149.059771 
L 116.618791 148.095037 
L 117.401263 147.119115 
L 118.18715 146.131229 
L 118.977055 145.130509 
L 119.771653 144.11598 
L 120.571701 143.086542 
L 121.378053 142.040946 
L 122.191686 140.977761 
L 123.013723 139.895341 
L 123.845466 138.791769 
L 124.688443 137.664794 
L 125.544468 136.511745 
L 126.415723 135.329409 
L 127.30487 134.113868 
L 128.215219 132.86026 
L 129.150969 131.562431 
L 130.117579 130.212392 
L 131.122373 128.799463 
L 132.175562 127.308801 
L 133.292122 125.718714 
L 134.495595 123.995243 
L 135.826912 122.079607 
L 137.369697 119.852277 
L 139.357196 116.981572 
L 145.935127 107.620115 
" style="fill:none;stroke:#000000;stroke-dasharray:3.7,1.6;stroke-dashoffset:0;"/>
   </g>
   <g id="patch_3">
    <path d="M 47.38125 160.44375 
L 47.38125 14.599219 
" style="fill:none;stroke:#000000;stroke-linecap:square;stroke-linejoin:miter;stroke-width:0.8;"/>
   </g>
   <g id="patch_4">
    <path d="M 270.8375 160.44375 
L 270.8375 14.599219 
" style="fill:none;stroke:#000000;stroke-linecap:square;stroke-linejoin:miter;stroke-width:0.8;"/>
   </g>
   <g id="patch_5">
    <path d="M 47.38125 160.44375 
L 270.8375 160.44375 
" style="fill:none;stroke:#000000;stroke-linecap:square;stroke-linejoin:miter;stroke-width:0.8;"/>
   </g>
   <g id="patch_6">
    <path d="M 47.38125 14.599219 
L 270.8375 14.599219 
" style="fill:none;stroke:#000000;stroke-linecap:square;stroke-linejoin:miter;stroke-width:0.8;"/>
   </g>
  </g>
 </g>
 <defs>
  <clipPath id="pc5e00d7e55">
   <rect height="145.844531" width="223.45625" x="47.38125" y="14.599219"/>
  </clipPath>
 </defs>
</svg>
