<?xml version="1.0" encoding="utf-8" standalone="no"?>
<!DOCTYPE svg PUBLIC "-//W3C//DTD SVG 1.1//EN"
  "http://www.w3.org/Graphics/SVG/1.1/DTD/svg11.dtd">
<!-- Created with matplotlib (http://matplotlib.org/) -->
<svg height="324pt" version="1.1" viewBox="0 0 324 324" width="324pt" xmlns="http://www.w3.org/2000/svg" xmlns:xlink="http://www.w3.org/1999/xlink">
 <defs>
  <style type="text/css">
*{stroke-linecap:butt;stroke-linejoin:round;stroke-miterlimit:100000;}
  </style>
 </defs>
 <g id="figure_1">
  <g id="patch_1">
   <path d="M 0 324 
L 324 324 
L 324 0 
L 0 0 
z
" style="fill:#ffffff;"/>
  </g>
  <g id="axes_1">
   <g id="patch_2">
    <path d="M 72.786121 273.015 
L 311.04 273.015 
L 311.04 12.96 
L 72.786121 12.96 
z
" style="fill:#ffffff;"/>
   </g>
   <g id="line2d_1">
    <path clip-path="url(#pd45ed19a26)" d="M 100.281967 58.564089 
L 100.483753 58.724489 
L 100.68554 58.888644 
L 100.887326 59.056727 
L 101.089113 59.228921 
L 101.290899 59.405422 
L 101.492686 59.58644 
L 101.694472 59.772203 
L 101.896258 59.962951 
L 102.098045 60.158948 
L 102.299831 60.360474 
L 102.501618 60.567834 
L 102.703404 60.781358 
L 102.905191 61.001403 
L 103.106977 61.228357 
L 103.308764 61.462644 
L 103.51055 61.704725 
L 103.712337 61.955106 
L 103.914123 62.214341 
L 104.115909 62.48304 
L 104.317696 62.761878 
L 104.519482 63.0516 
L 104.721269 63.353035 
L 104.923055 63.667107 
L 105.124842 63.994852 
L 105.326628 64.337432 
L 105.528415 64.696164 
L 105.730201 65.072538 
L 105.931987 65.468261 
L 106.133774 65.885288 
L 106.33556 66.325883 
L 106.537347 66.79268 
L 106.739133 67.288773 
L 106.94092 67.817825 
L 107.142706 68.384216 
L 107.344493 68.993245 
L 107.546279 69.651403 
L 107.748065 70.366759 
L 107.949852 71.149509 
L 108.151638 72.012796 
L 108.353425 72.973958 
L 108.555211 74.056518 
L 108.756998 75.29351 
L 108.958784 76.733386 
L 109.160571 78.451363 
L 109.362357 80.573591 
L 109.564144 83.336764 
L 109.76593 87.272609 
L 109.967716 94.078437 
L 110.169503 185.881321 
" style="fill:none;stroke:#0000ff;stroke-linecap:square;stroke-width:2.0;"/>
   </g>
   <g id="line2d_2">
    <path clip-path="url(#pd45ed19a26)" d="M 100.281967 58.564116 
L 100.375601 58.412409 
L 100.469236 58.255541 
L 100.56287 58.093429 
L 100.656505 57.925992 
L 100.750139 57.753155 
L 100.843774 57.574848 
L 100.937409 57.391006 
L 101.031043 57.201571 
L 101.124678 57.006491 
L 101.218312 56.805718 
L 101.311947 56.599214 
L 101.405581 56.386944 
L 101.499216 56.168884 
L 101.59285 55.945014 
L 101.686485 55.715322 
L 101.780119 55.479803 
L 101.873754 55.238459 
L 101.967388 54.991301 
L 102.061023 54.738345 
L 102.154657 54.479616 
L 102.248292 54.215144 
L 102.341926 53.944967 
L 102.435561 53.66913 
L 102.529195 53.387684 
" style="fill:none;stroke:#0000ff;stroke-linecap:square;stroke-width:2.0;"/>
   </g>
   <g id="line2d_3">
    <path clip-path="url(#pd45ed19a26)" d="M 102.529195 53.387685 
L 102.850351 53.123881 
L 103.171507 52.861876 
L 103.492663 52.601624 
L 103.813818 52.343083 
L 104.134974 52.086211 
L 104.45613 51.83097 
L 104.777286 51.577321 
L 105.098441 51.325229 
L 105.419597 51.074658 
L 105.740753 50.825574 
L 106.061909 50.577945 
L 106.383064 50.331739 
L 106.70422 50.086927 
L 107.025376 49.843479 
L 107.346532 49.601368 
L 107.667687 49.360566 
L 107.988843 49.121046 
L 108.309999 48.882785 
L 108.631155 48.645757 
L 108.95231 48.409938 
L 109.273466 48.175307 
L 109.594622 47.94184 
L 109.915777 47.709517 
L 110.236933 47.478317 
" style="fill:none;stroke:#0000ff;stroke-linecap:square;stroke-width:2.0;"/>
   </g>
   <g id="line2d_4">
    <path clip-path="url(#pd45ed19a26)" d="M 110.236933 47.478306 
L 111.76704 46.868057 
L 113.297147 46.267665 
L 114.827254 45.676717 
L 116.357361 45.094832 
L 117.887468 44.521655 
L 119.417574 43.956857 
L 120.947681 43.400129 
L 122.477788 42.851182 
L 124.007895 42.309748 
L 125.538002 41.775571 
L 127.068109 41.248415 
L 128.598216 40.728053 
L 130.128323 40.214275 
L 131.658429 39.70688 
L 133.188536 39.205679 
L 134.718643 38.710491 
L 136.24875 38.221147 
L 137.778857 37.737484 
L 139.308964 37.259349 
L 140.839071 36.786595 
L 142.369178 36.319081 
L 143.899284 35.856674 
L 145.429391 35.399247 
L 146.959498 34.946677 
" style="fill:none;stroke:#0000ff;stroke-linecap:square;stroke-width:2.0;"/>
   </g>
   <g id="line2d_5">
    <path clip-path="url(#pd45ed19a26)" d="M 146.959498 34.946687 
L 148.594173 34.742239 
L 150.228848 34.540147 
L 151.863523 34.340269 
L 153.498198 34.142467 
L 155.132873 33.946605 
L 156.767548 33.752553 
L 158.402223 33.560181 
L 160.036898 33.369363 
L 161.671573 33.179974 
L 163.306248 32.991894 
L 164.940923 32.805002 
L 166.575598 32.619181 
L 168.210273 32.434317 
L 169.844948 32.250294 
L 171.479623 32.067002 
L 173.114298 31.884329 
L 174.748973 31.702166 
L 176.383648 31.520406 
L 178.018323 31.338942 
L 179.652998 31.157669 
L 181.287673 30.976482 
L 182.922348 30.795279 
L 184.557023 30.613956 
L 186.191698 30.432412 
L 187.826373 30.250547 
L 189.461048 30.06826 
L 191.095723 29.885452 
L 192.730398 29.702023 
L 194.365073 29.517877 
L 195.999748 29.332915 
L 197.634423 29.14704 
L 199.269098 28.960155 
L 200.903773 28.772163 
L 202.538448 28.58297 
L 204.173123 28.392478 
L 205.807798 28.200594 
L 207.442473 28.007222 
L 209.077148 27.812268 
L 210.711823 27.615638 
L 212.346498 27.417239 
L 213.981173 27.216978 
L 215.615848 27.014763 
L 217.250523 26.810501 
L 218.885198 26.604102 
L 220.519873 26.395476 
L 222.154548 26.184533 
L 223.789223 25.971185 
L 225.423898 25.755346 
L 227.058573 25.536929 
L 228.693248 25.315852 
L 230.327922 25.092031 
L 231.962597 24.865387 
L 233.597272 24.635843 
L 235.231947 24.403325 
L 236.866622 24.16776 
L 238.501297 23.929082 
L 240.135972 23.687227 
L 241.770647 23.442136 
L 243.405322 23.193757 
L 245.039997 22.942042 
L 246.674672 22.686953 
L 248.309347 22.428455 
L 249.944022 22.166528 
L 251.578697 21.901158 
L 253.213372 21.632343 
L 254.848047 21.360095 
L 256.482722 21.08444 
L 258.117397 20.805419 
L 259.752072 20.523092 
L 261.386747 20.23754 
L 263.021422 19.948865 
L 264.656097 19.657195 
L 266.290772 19.362687 
L 267.925447 19.065529 
L 269.560122 18.765944 
L 271.194797 18.464195 
L 272.829472 18.160586 
L 274.464147 17.855472 
L 276.098822 17.549261 
L 277.733497 17.242421 
L 279.368172 16.935485 
L 281.002847 16.629061 
L 282.637522 16.323838 
L 284.272197 16.020593 
L 285.906872 15.720206 
L 287.541547 15.423663 
L 289.176222 15.132076 
L 290.810897 14.846687 
L 292.445572 14.568889 
L 294.080247 14.300237 
L 295.714922 14.042467 
L 297.349597 13.797513 
L 298.984272 13.567527 
L 300.618947 13.354902 
L 302.253622 13.162294 
L 303.888297 12.99265 
L 305.522972 12.849238 
L 307.157647 12.735673 
L 308.792322 12.655957 
" style="fill:none;stroke:#0000ff;stroke-linecap:square;stroke-width:2.0;"/>
   </g>
   <g id="line2d_6">
    <path clip-path="url(#pd45ed19a26)" d="M 9.851134 1163.871374 
M 63.203689 325 
L 63.556927 323.306257 
L 64.570244 318.573211 
L 65.583561 313.96107 
L 66.596878 309.465274 
L 67.610195 305.081488 
L 68.623512 300.805595 
L 69.636828 296.633674 
L 70.650145 292.561998 
L 71.663462 288.587015 
L 72.676779 284.70534 
L 73.690096 280.913746 
L 74.703413 277.209155 
L 75.71673 273.588628 
L 76.730046 270.049359 
L 77.743363 266.588665 
L 78.75668 263.203982 
L 79.769997 259.892857 
L 80.783314 256.652942 
L 81.796631 253.481989 
L 82.809948 250.377845 
L 83.823264 247.338447 
L 84.836581 244.361814 
L 85.849898 241.446049 
L 86.863215 238.589329 
L 87.876532 235.789906 
L 88.889849 233.0461 
L 89.903166 230.356295 
L 90.916482 227.71894 
L 91.929799 225.132542 
L 92.943116 222.595665 
L 93.956433 220.106928 
L 94.96975 217.664999 
L 95.983067 215.268598 
L 96.996384 212.91649 
L 98.009701 210.607485 
L 99.023017 208.340436 
L 100.036334 206.114235 
L 101.049651 203.927817 
L 102.062968 201.78015 
L 103.076285 199.670239 
L 104.089602 197.597126 
L 105.102919 195.55988 
L 106.116235 193.557606 
L 107.129552 191.589438 
L 108.142869 189.654537 
L 109.156186 187.752092 
L 110.169503 185.881321 
" style="fill:none;stroke:#008000;stroke-linecap:square;stroke-width:2.0;"/>
   </g>
   <g id="line2d_7">
    <path clip-path="url(#pd45ed19a26)" d="M 110.169503 185.881319 
L 111.867458 183.180911 
L 113.565413 180.562099 
L 115.263368 178.02151 
L 116.961323 175.555943 
L 118.659278 173.162359 
L 120.357233 170.837875 
L 122.055188 168.579747 
L 123.753143 166.385368 
L 125.451099 164.252258 
L 127.149054 162.178055 
L 128.847009 160.160508 
L 130.544964 158.197475 
L 132.242919 156.286909 
L 133.940874 154.426861 
L 135.638829 152.615469 
L 137.336784 150.850954 
L 139.034739 149.131617 
L 140.732694 147.455835 
L 142.430649 145.822056 
L 144.128604 144.228793 
L 145.826559 142.674625 
L 147.524514 141.158192 
L 149.22247 139.678188 
L 150.920425 138.233367 
L 152.61838 136.822529 
L 154.316335 135.444529 
L 156.01429 134.098263 
L 157.712245 132.782677 
L 159.4102 131.496756 
L 161.108155 130.239527 
L 162.80611 129.010056 
L 164.504065 127.807443 
L 166.20202 126.630826 
L 167.899975 125.479375 
L 169.59793 124.352294 
L 171.295885 123.248814 
L 172.993841 122.168198 
L 174.691796 121.109736 
L 176.389751 120.072743 
L 178.087706 119.056563 
L 179.785661 118.06056 
L 181.483616 117.084125 
L 183.181571 116.126669 
L 184.879526 115.187626 
L 186.577481 114.266448 
L 188.275436 113.362608 
L 189.973391 112.475599 
L 191.671346 111.60493 
L 193.369301 110.750126 
L 195.067256 109.910732 
L 196.765212 109.086306 
L 198.463167 108.276422 
L 200.161122 107.480668 
L 201.859077 106.698646 
L 203.557032 105.929971 
L 205.254987 105.174272 
L 206.952942 104.431189 
L 208.650897 103.700372 
L 210.348852 102.981485 
L 212.046807 102.274202 
L 213.744762 101.578205 
L 215.442717 100.893188 
L 217.140672 100.218853 
L 218.838628 99.554912 
L 220.536583 98.901083 
L 222.234538 98.257095 
L 223.932493 97.622683 
L 225.630448 96.997588 
L 227.328403 96.381561 
L 229.026358 95.774355 
L 230.724313 95.175734 
L 232.422268 94.585464 
L 234.120223 94.003316 
L 235.818178 93.42907 
L 237.516133 92.862505 
L 239.214088 92.303409 
L 240.912043 91.75157 
L 242.609999 91.20678 
L 244.307954 90.668836 
L 246.005909 90.137534 
L 247.703864 89.612674 
L 249.401819 89.094055 
L 251.099774 88.58148 
L 252.797729 88.074747 
L 254.495684 87.573657 
L 256.193639 87.078006 
L 257.891594 86.587587 
L 259.589549 86.10219 
L 261.287504 85.621596 
L 262.985459 85.145576 
L 264.683414 84.673891 
L 266.38137 84.206282 
L 268.079325 83.742466 
L 269.77728 83.282126 
L 271.475235 82.824889 
L 273.17319 82.370299 
L 274.871145 81.917739 
L 276.5691 81.46624 
L 278.267055 81.013314 
" style="fill:none;stroke:#ff0000;stroke-linecap:square;stroke-width:2.0;"/>
   </g>
   <g id="line2d_8">
    <defs>
     <path d="M 0 3 
C 0.795609 3 1.55874 2.683901 2.12132 2.12132 
C 2.683901 1.55874 3 0.795609 3 0 
C 3 -0.795609 2.683901 -1.55874 2.12132 -2.12132 
C 1.55874 -2.683901 0.795609 -3 0 -3 
C -0.795609 -3 -1.55874 -2.683901 -2.12132 -2.12132 
C -2.683901 -1.55874 -3 -0.795609 -3 0 
C -3 0.795609 -2.683901 1.55874 -2.12132 2.12132 
C -1.55874 2.683901 -0.795609 3 0 3 
z
" id="mc23dc4ee56" style="stroke:#000000;stroke-width:0.5;"/>
    </defs>
    <g clip-path="url(#pd45ed19a26)">
     <use style="fill:#0000ff;stroke:#000000;stroke-width:0.5;" x="110.169502869" xlink:href="#mc23dc4ee56" y="185.881320557"/>
    </g>
   </g>
   <g id="line2d_9">
    <defs>
     <path d="M 0 2 
C 0.530406 2 1.03916 1.789267 1.414214 1.414214 
C 1.789267 1.03916 2 0.530406 2 0 
C 2 -0.530406 1.789267 -1.03916 1.414214 -1.414214 
C 1.03916 -1.789267 0.530406 -2 0 -2 
C -0.530406 -2 -1.03916 -1.789267 -1.414214 -1.414214 
C -1.789267 -1.03916 -2 -0.530406 -2 0 
C -2 0.530406 -1.789267 1.03916 -1.414214 1.414214 
C -1.03916 1.789267 -0.530406 2 0 2 
z
" id="me46145c765" style="stroke:#000000;stroke-width:0.5;"/>
    </defs>
    <g clip-path="url(#pd45ed19a26)">
     <use style="fill:#0000ff;stroke:#000000;stroke-width:0.5;" x="100.281966873" xlink:href="#me46145c765" y="58.5641161017"/>
    </g>
   </g>
   <g id="line2d_10">
    <g clip-path="url(#pd45ed19a26)">
     <use style="fill:#0000ff;stroke:#000000;stroke-width:0.5;" x="102.529195445" xlink:href="#me46145c765" y="53.3876845856"/>
    </g>
   </g>
   <g id="line2d_11">
    <g clip-path="url(#pd45ed19a26)">
     <use style="fill:#0000ff;stroke:#000000;stroke-width:0.5;" x="110.236933212" xlink:href="#me46145c765" y="47.4783064899"/>
    </g>
   </g>
   <g id="line2d_12">
    <g clip-path="url(#pd45ed19a26)">
     <use style="fill:#0000ff;stroke:#000000;stroke-width:0.5;" x="146.959498136" xlink:href="#me46145c765" y="34.9466872937"/>
    </g>
   </g>
   <g id="line2d_13">
    <defs>
     <path d="M 0 3 
C 0.795609 3 1.55874 2.683901 2.12132 2.12132 
C 2.683901 1.55874 3 0.795609 3 0 
C 3 -0.795609 2.683901 -1.55874 2.12132 -2.12132 
C 1.55874 -2.683901 0.795609 -3 0 -3 
C -0.795609 -3 -1.55874 -2.683901 -2.12132 -2.12132 
C -2.683901 -1.55874 -3 -0.795609 -3 0 
C -3 0.795609 -2.683901 1.55874 -2.12132 2.12132 
C -1.55874 2.683901 -0.795609 3 0 3 
z
" id="m3ed85ed238" style="stroke:#000000;stroke-width:0.5;"/>
    </defs>
    <g clip-path="url(#pd45ed19a26)">
     <use style="fill:#ff0000;stroke:#000000;stroke-width:0.5;" x="278.267055047" xlink:href="#m3ed85ed238" y="81.0133144755"/>
    </g>
   </g>
   <g id="line2d_14">
    <path clip-path="url(#pd45ed19a26)" d="M 81.776833 58.564116 
L 100.281967 58.564116 
" style="fill:none;stroke:#0000ff;stroke-dasharray:6.000000,6.000000;stroke-dashoffset:0.0;"/>
   </g>
   <g id="line2d_15">
    <path clip-path="url(#pd45ed19a26)" d="M 84.024511 45.128863 
L 102.529195 53.387685 
" style="fill:none;stroke:#0000ff;stroke-dasharray:6.000000,6.000000;stroke-dashoffset:0.0;"/>
   </g>
   <g id="line2d_16">
    <path clip-path="url(#pd45ed19a26)" d="M 95.262902 31.919474 
L 110.236933 45.128863 
" style="fill:none;stroke:#0000ff;stroke-dasharray:6.000000,6.000000;stroke-dashoffset:0.0;"/>
   </g>
   <g id="line2d_17">
    <path clip-path="url(#pd45ed19a26)" d="M 144.71182 18.065099 
L 146.959498 34.946687 
" style="fill:none;stroke:#0000ff;stroke-dasharray:6.000000,6.000000;stroke-dashoffset:0.0;"/>
   </g>
   <g id="line2d_18">
    <path clip-path="url(#pd45ed19a26)" d="M 72.786121 134.813736 
L 311.04 134.813736 
" style="fill:none;stroke:#000000;stroke-dasharray:1.000000,3.000000;stroke-dashoffset:0.0;stroke-width:1.5;"/>
   </g>
   <g id="patch_3">
    <path d="M 72.786121 273.015 
L 72.786121 12.96 
" style="fill:none;stroke:#000000;stroke-linecap:square;stroke-linejoin:miter;"/>
   </g>
   <g id="patch_4">
    <path d="M 311.04 273.015 
L 311.04 12.96 
" style="fill:none;stroke:#000000;stroke-linecap:square;stroke-linejoin:miter;"/>
   </g>
   <g id="patch_5">
    <path d="M 72.786121 12.96 
L 311.04 12.96 
" style="fill:none;stroke:#000000;stroke-linecap:square;stroke-linejoin:miter;"/>
   </g>
   <g id="patch_6">
    <path d="M 72.786121 273.015 
L 311.04 273.015 
" style="fill:none;stroke:#000000;stroke-linecap:square;stroke-linejoin:miter;"/>
   </g>
   <g id="matplotlib.axis_1">
    <g id="xtick_1">
     <g id="line2d_19">
      <defs>
       <path d="M 0 0 
L 0 -4 
" id="m47b3e005eb" style="stroke:#000000;stroke-width:0.5;"/>
      </defs>
      <g>
       <use style="stroke:#000000;stroke-width:0.5;" x="110.165007513" xlink:href="#m47b3e005eb" y="273.015"/>
      </g>
     </g>
     <g id="line2d_20">
      <defs>
       <path d="M 0 0 
L 0 4 
" id="m3fbd9dfde3" style="stroke:#000000;stroke-width:0.5;"/>
      </defs>
      <g>
       <use style="stroke:#000000;stroke-width:0.5;" x="110.165007513" xlink:href="#m3fbd9dfde3" y="12.96"/>
      </g>
     </g>
     <g id="text_1">
      <!-- 0 -->
      <defs>
       <path d="M 31.78125 66.40625 
Q 24.171875 66.40625 20.328125 58.90625 
Q 16.5 51.421875 16.5 36.375 
Q 16.5 21.390625 20.328125 13.890625 
Q 24.171875 6.390625 31.78125 6.390625 
Q 39.453125 6.390625 43.28125 13.890625 
Q 47.125 21.390625 47.125 36.375 
Q 47.125 51.421875 43.28125 58.90625 
Q 39.453125 66.40625 31.78125 66.40625 
M 31.78125 74.21875 
Q 44.046875 74.21875 50.515625 64.515625 
Q 56.984375 54.828125 56.984375 36.375 
Q 56.984375 17.96875 50.515625 8.265625 
Q 44.046875 -1.421875 31.78125 -1.421875 
Q 19.53125 -1.421875 13.0625 8.265625 
Q 6.59375 17.96875 6.59375 36.375 
Q 6.59375 54.828125 13.0625 64.515625 
Q 19.53125 74.21875 31.78125 74.21875 
" id="BitstreamVeraSans-Roman-30"/>
      </defs>
      <g transform="translate(106.347507513 286.133125)scale(0.12 -0.12)">
       <use xlink:href="#BitstreamVeraSans-Roman-30"/>
      </g>
     </g>
    </g>
    <g id="xtick_2">
     <g id="line2d_21">
      <g>
       <use style="stroke:#000000;stroke-width:0.5;" x="155.118569667" xlink:href="#m47b3e005eb" y="273.015"/>
      </g>
     </g>
     <g id="line2d_22">
      <g>
       <use style="stroke:#000000;stroke-width:0.5;" x="155.118569667" xlink:href="#m3fbd9dfde3" y="12.96"/>
      </g>
     </g>
     <g id="text_2">
      <!-- 100 -->
      <defs>
       <path d="M 12.40625 8.296875 
L 28.515625 8.296875 
L 28.515625 63.921875 
L 10.984375 60.40625 
L 10.984375 69.390625 
L 28.421875 72.90625 
L 38.28125 72.90625 
L 38.28125 8.296875 
L 54.390625 8.296875 
L 54.390625 0 
L 12.40625 0 
z
" id="BitstreamVeraSans-Roman-31"/>
      </defs>
      <g transform="translate(143.666069667 286.133125)scale(0.12 -0.12)">
       <use xlink:href="#BitstreamVeraSans-Roman-31"/>
       <use x="63.623046875" xlink:href="#BitstreamVeraSans-Roman-30"/>
       <use x="127.24609375" xlink:href="#BitstreamVeraSans-Roman-30"/>
      </g>
     </g>
    </g>
    <g id="xtick_3">
     <g id="line2d_23">
      <g>
       <use style="stroke:#000000;stroke-width:0.5;" x="200.072131822" xlink:href="#m47b3e005eb" y="273.015"/>
      </g>
     </g>
     <g id="line2d_24">
      <g>
       <use style="stroke:#000000;stroke-width:0.5;" x="200.072131822" xlink:href="#m3fbd9dfde3" y="12.96"/>
      </g>
     </g>
     <g id="text_3">
      <!-- 200 -->
      <defs>
       <path d="M 19.1875 8.296875 
L 53.609375 8.296875 
L 53.609375 0 
L 7.328125 0 
L 7.328125 8.296875 
Q 12.9375 14.109375 22.625 23.890625 
Q 32.328125 33.6875 34.8125 36.53125 
Q 39.546875 41.84375 41.421875 45.53125 
Q 43.3125 49.21875 43.3125 52.78125 
Q 43.3125 58.59375 39.234375 62.25 
Q 35.15625 65.921875 28.609375 65.921875 
Q 23.96875 65.921875 18.8125 64.3125 
Q 13.671875 62.703125 7.8125 59.421875 
L 7.8125 69.390625 
Q 13.765625 71.78125 18.9375 73 
Q 24.125 74.21875 28.421875 74.21875 
Q 39.75 74.21875 46.484375 68.546875 
Q 53.21875 62.890625 53.21875 53.421875 
Q 53.21875 48.921875 51.53125 44.890625 
Q 49.859375 40.875 45.40625 35.40625 
Q 44.1875 33.984375 37.640625 27.21875 
Q 31.109375 20.453125 19.1875 8.296875 
" id="BitstreamVeraSans-Roman-32"/>
      </defs>
      <g transform="translate(188.619631822 286.133125)scale(0.12 -0.12)">
       <use xlink:href="#BitstreamVeraSans-Roman-32"/>
       <use x="63.623046875" xlink:href="#BitstreamVeraSans-Roman-30"/>
       <use x="127.24609375" xlink:href="#BitstreamVeraSans-Roman-30"/>
      </g>
     </g>
    </g>
    <g id="xtick_4">
     <g id="line2d_25">
      <g>
       <use style="stroke:#000000;stroke-width:0.5;" x="245.025693976" xlink:href="#m47b3e005eb" y="273.015"/>
      </g>
     </g>
     <g id="line2d_26">
      <g>
       <use style="stroke:#000000;stroke-width:0.5;" x="245.025693976" xlink:href="#m3fbd9dfde3" y="12.96"/>
      </g>
     </g>
     <g id="text_4">
      <!-- 300 -->
      <defs>
       <path d="M 40.578125 39.3125 
Q 47.65625 37.796875 51.625 33 
Q 55.609375 28.21875 55.609375 21.1875 
Q 55.609375 10.40625 48.1875 4.484375 
Q 40.765625 -1.421875 27.09375 -1.421875 
Q 22.515625 -1.421875 17.65625 -0.515625 
Q 12.796875 0.390625 7.625 2.203125 
L 7.625 11.71875 
Q 11.71875 9.328125 16.59375 8.109375 
Q 21.484375 6.890625 26.8125 6.890625 
Q 36.078125 6.890625 40.9375 10.546875 
Q 45.796875 14.203125 45.796875 21.1875 
Q 45.796875 27.640625 41.28125 31.265625 
Q 36.765625 34.90625 28.71875 34.90625 
L 20.21875 34.90625 
L 20.21875 43.015625 
L 29.109375 43.015625 
Q 36.375 43.015625 40.234375 45.921875 
Q 44.09375 48.828125 44.09375 54.296875 
Q 44.09375 59.90625 40.109375 62.90625 
Q 36.140625 65.921875 28.71875 65.921875 
Q 24.65625 65.921875 20.015625 65.03125 
Q 15.375 64.15625 9.8125 62.3125 
L 9.8125 71.09375 
Q 15.4375 72.65625 20.34375 73.4375 
Q 25.25 74.21875 29.59375 74.21875 
Q 40.828125 74.21875 47.359375 69.109375 
Q 53.90625 64.015625 53.90625 55.328125 
Q 53.90625 49.265625 50.4375 45.09375 
Q 46.96875 40.921875 40.578125 39.3125 
" id="BitstreamVeraSans-Roman-33"/>
      </defs>
      <g transform="translate(233.573193976 286.133125)scale(0.12 -0.12)">
       <use xlink:href="#BitstreamVeraSans-Roman-33"/>
       <use x="63.623046875" xlink:href="#BitstreamVeraSans-Roman-30"/>
       <use x="127.24609375" xlink:href="#BitstreamVeraSans-Roman-30"/>
      </g>
     </g>
    </g>
    <g id="xtick_5">
     <g id="line2d_27">
      <g>
       <use style="stroke:#000000;stroke-width:0.5;" x="289.979256131" xlink:href="#m47b3e005eb" y="273.015"/>
      </g>
     </g>
     <g id="line2d_28">
      <g>
       <use style="stroke:#000000;stroke-width:0.5;" x="289.979256131" xlink:href="#m3fbd9dfde3" y="12.96"/>
      </g>
     </g>
     <g id="text_5">
      <!-- 400 -->
      <defs>
       <path d="M 37.796875 64.3125 
L 12.890625 25.390625 
L 37.796875 25.390625 
z
M 35.203125 72.90625 
L 47.609375 72.90625 
L 47.609375 25.390625 
L 58.015625 25.390625 
L 58.015625 17.1875 
L 47.609375 17.1875 
L 47.609375 0 
L 37.796875 0 
L 37.796875 17.1875 
L 4.890625 17.1875 
L 4.890625 26.703125 
z
" id="BitstreamVeraSans-Roman-34"/>
      </defs>
      <g transform="translate(278.526756131 286.133125)scale(0.12 -0.12)">
       <use xlink:href="#BitstreamVeraSans-Roman-34"/>
       <use x="63.623046875" xlink:href="#BitstreamVeraSans-Roman-30"/>
       <use x="127.24609375" xlink:href="#BitstreamVeraSans-Roman-30"/>
      </g>
     </g>
    </g>
    <g id="text_6">
     <!-- Temperature ($\mathregular{^{\circ}C}$) -->
     <defs>
      <path d="M 23.203125 38.703125 
Q 31 30.796875 31 25.1875 
Q 31 19.59375 27.046875 15.640625 
Q 23.09375 11.703125 17.5 11.703125 
Q 11.796875 11.703125 7.890625 15.640625 
Q 4 19.59375 4 25.40625 
Q 4 31 7.953125 34.84375 
Q 11.90625 38.703125 17.703125 38.703125 
Q 23.203125 38.703125 31 30.796875 
M 20.40625 18.296875 
Q 24.40625 22.296875 24.40625 25.1875 
Q 24.40625 28.09375 22.40625 30.09375 
Q 20.40625 32.09375 17.703125 32.09375 
Q 14.59375 32.09375 12.59375 30.140625 
Q 10.59375 28.203125 10.59375 25.40625 
Q 10.59375 22.296875 12.546875 20.296875 
Q 14.5 18.296875 17.5 18.296875 
Q 20.40625 18.296875 24.40625 22.296875 
" id="STIXGeneral-Regular-2218"/>
      <path d="M 52 44.1875 
Q 55.375 50.25 60.0625 53.125 
Q 64.75 56 71.09375 56 
Q 79.640625 56 84.28125 50.015625 
Q 88.921875 44.046875 88.921875 33.015625 
L 88.921875 0 
L 79.890625 0 
L 79.890625 32.71875 
Q 79.890625 40.578125 77.09375 44.375 
Q 74.3125 48.1875 68.609375 48.1875 
Q 61.625 48.1875 57.5625 43.546875 
Q 53.515625 38.921875 53.515625 30.90625 
L 53.515625 0 
L 44.484375 0 
L 44.484375 32.71875 
Q 44.484375 40.625 41.703125 44.40625 
Q 38.921875 48.1875 33.109375 48.1875 
Q 26.21875 48.1875 22.15625 43.53125 
Q 18.109375 38.875 18.109375 30.90625 
L 18.109375 0 
L 9.078125 0 
L 9.078125 54.6875 
L 18.109375 54.6875 
L 18.109375 46.1875 
Q 21.1875 51.21875 25.484375 53.609375 
Q 29.78125 56 35.6875 56 
Q 41.65625 56 45.828125 52.96875 
Q 50 49.953125 52 44.1875 
" id="BitstreamVeraSans-Roman-6d"/>
      <path d="M 8.015625 75.875 
L 15.828125 75.875 
Q 23.140625 64.359375 26.78125 53.3125 
Q 30.421875 42.28125 30.421875 31.390625 
Q 30.421875 20.453125 26.78125 9.375 
Q 23.140625 -1.703125 15.828125 -13.1875 
L 8.015625 -13.1875 
Q 14.5 -2 17.703125 9.0625 
Q 20.90625 20.125 20.90625 31.390625 
Q 20.90625 42.671875 17.703125 53.65625 
Q 14.5 64.65625 8.015625 75.875 
" id="BitstreamVeraSans-Roman-29"/>
      <path id="BitstreamVeraSans-Roman-20"/>
      <path d="M 56.203125 29.59375 
L 56.203125 25.203125 
L 14.890625 25.203125 
Q 15.484375 15.921875 20.484375 11.0625 
Q 25.484375 6.203125 34.421875 6.203125 
Q 39.59375 6.203125 44.453125 7.46875 
Q 49.3125 8.734375 54.109375 11.28125 
L 54.109375 2.78125 
Q 49.265625 0.734375 44.1875 -0.34375 
Q 39.109375 -1.421875 33.890625 -1.421875 
Q 20.796875 -1.421875 13.15625 6.1875 
Q 5.515625 13.8125 5.515625 26.8125 
Q 5.515625 40.234375 12.765625 48.109375 
Q 20.015625 56 32.328125 56 
Q 43.359375 56 49.78125 48.890625 
Q 56.203125 41.796875 56.203125 29.59375 
M 47.21875 32.234375 
Q 47.125 39.59375 43.09375 43.984375 
Q 39.0625 48.390625 32.421875 48.390625 
Q 24.90625 48.390625 20.390625 44.140625 
Q 15.875 39.890625 15.1875 32.171875 
z
" id="BitstreamVeraSans-Roman-65"/>
      <path d="M -0.296875 72.90625 
L 61.375 72.90625 
L 61.375 64.59375 
L 35.5 64.59375 
L 35.5 0 
L 25.59375 0 
L 25.59375 64.59375 
L -0.296875 64.59375 
z
" id="BitstreamVeraSans-Roman-54"/>
      <path d="M 8.5 21.578125 
L 8.5 54.6875 
L 17.484375 54.6875 
L 17.484375 21.921875 
Q 17.484375 14.15625 20.5 10.265625 
Q 23.53125 6.390625 29.59375 6.390625 
Q 36.859375 6.390625 41.078125 11.03125 
Q 45.3125 15.671875 45.3125 23.6875 
L 45.3125 54.6875 
L 54.296875 54.6875 
L 54.296875 0 
L 45.3125 0 
L 45.3125 8.40625 
Q 42.046875 3.421875 37.71875 1 
Q 33.40625 -1.421875 27.6875 -1.421875 
Q 18.265625 -1.421875 13.375 4.4375 
Q 8.5 10.296875 8.5 21.578125 
" id="BitstreamVeraSans-Roman-75"/>
      <path d="M 41.109375 46.296875 
Q 39.59375 47.171875 37.8125 47.578125 
Q 36.03125 48 33.890625 48 
Q 26.265625 48 22.1875 43.046875 
Q 18.109375 38.09375 18.109375 28.8125 
L 18.109375 0 
L 9.078125 0 
L 9.078125 54.6875 
L 18.109375 54.6875 
L 18.109375 46.1875 
Q 20.953125 51.171875 25.484375 53.578125 
Q 30.03125 56 36.53125 56 
Q 37.453125 56 38.578125 55.875 
Q 39.703125 55.765625 41.0625 55.515625 
z
" id="BitstreamVeraSans-Roman-72"/>
      <path d="M 18.3125 70.21875 
L 18.3125 54.6875 
L 36.8125 54.6875 
L 36.8125 47.703125 
L 18.3125 47.703125 
L 18.3125 18.015625 
Q 18.3125 11.328125 20.140625 9.421875 
Q 21.96875 7.515625 27.59375 7.515625 
L 36.8125 7.515625 
L 36.8125 0 
L 27.59375 0 
Q 17.1875 0 13.234375 3.875 
Q 9.28125 7.765625 9.28125 18.015625 
L 9.28125 47.703125 
L 2.6875 47.703125 
L 2.6875 54.6875 
L 9.28125 54.6875 
L 9.28125 70.21875 
z
" id="BitstreamVeraSans-Roman-74"/>
      <path d="M 31 75.875 
Q 24.46875 64.65625 21.28125 53.65625 
Q 18.109375 42.671875 18.109375 31.390625 
Q 18.109375 20.125 21.3125 9.0625 
Q 24.515625 -2 31 -13.1875 
L 23.1875 -13.1875 
Q 15.875 -1.703125 12.234375 9.375 
Q 8.59375 20.453125 8.59375 31.390625 
Q 8.59375 42.28125 12.203125 53.3125 
Q 15.828125 64.359375 23.1875 75.875 
z
" id="BitstreamVeraSans-Roman-28"/>
      <path d="M 34.28125 27.484375 
Q 23.390625 27.484375 19.1875 25 
Q 14.984375 22.515625 14.984375 16.5 
Q 14.984375 11.71875 18.140625 8.90625 
Q 21.296875 6.109375 26.703125 6.109375 
Q 34.1875 6.109375 38.703125 11.40625 
Q 43.21875 16.703125 43.21875 25.484375 
L 43.21875 27.484375 
z
M 52.203125 31.203125 
L 52.203125 0 
L 43.21875 0 
L 43.21875 8.296875 
Q 40.140625 3.328125 35.546875 0.953125 
Q 30.953125 -1.421875 24.3125 -1.421875 
Q 15.921875 -1.421875 10.953125 3.296875 
Q 6 8.015625 6 15.921875 
Q 6 25.140625 12.171875 29.828125 
Q 18.359375 34.515625 30.609375 34.515625 
L 43.21875 34.515625 
L 43.21875 35.40625 
Q 43.21875 41.609375 39.140625 45 
Q 35.0625 48.390625 27.6875 48.390625 
Q 23 48.390625 18.546875 47.265625 
Q 14.109375 46.140625 10.015625 43.890625 
L 10.015625 52.203125 
Q 14.9375 54.109375 19.578125 55.046875 
Q 24.21875 56 28.609375 56 
Q 40.484375 56 46.34375 49.84375 
Q 52.203125 43.703125 52.203125 31.203125 
" id="BitstreamVeraSans-Roman-61"/>
      <path d="M 18.109375 8.203125 
L 18.109375 -20.796875 
L 9.078125 -20.796875 
L 9.078125 54.6875 
L 18.109375 54.6875 
L 18.109375 46.390625 
Q 20.953125 51.265625 25.265625 53.625 
Q 29.59375 56 35.59375 56 
Q 45.5625 56 51.78125 48.09375 
Q 58.015625 40.1875 58.015625 27.296875 
Q 58.015625 14.40625 51.78125 6.484375 
Q 45.5625 -1.421875 35.59375 -1.421875 
Q 29.59375 -1.421875 25.265625 0.953125 
Q 20.953125 3.328125 18.109375 8.203125 
M 48.6875 27.296875 
Q 48.6875 37.203125 44.609375 42.84375 
Q 40.53125 48.484375 33.40625 48.484375 
Q 26.265625 48.484375 22.1875 42.84375 
Q 18.109375 37.203125 18.109375 27.296875 
Q 18.109375 17.390625 22.1875 11.75 
Q 26.265625 6.109375 33.40625 6.109375 
Q 40.53125 6.109375 44.609375 11.75 
Q 48.6875 17.390625 48.6875 27.296875 
" id="BitstreamVeraSans-Roman-70"/>
      <path d="M 64.40625 67.28125 
L 64.40625 56.890625 
Q 59.421875 61.53125 53.78125 63.8125 
Q 48.140625 66.109375 41.796875 66.109375 
Q 29.296875 66.109375 22.65625 58.46875 
Q 16.015625 50.828125 16.015625 36.375 
Q 16.015625 21.96875 22.65625 14.328125 
Q 29.296875 6.6875 41.796875 6.6875 
Q 48.140625 6.6875 53.78125 8.984375 
Q 59.421875 11.28125 64.40625 15.921875 
L 64.40625 5.609375 
Q 59.234375 2.09375 53.4375 0.328125 
Q 47.65625 -1.421875 41.21875 -1.421875 
Q 24.65625 -1.421875 15.125 8.703125 
Q 5.609375 18.84375 5.609375 36.375 
Q 5.609375 53.953125 15.125 64.078125 
Q 24.65625 74.21875 41.21875 74.21875 
Q 47.75 74.21875 53.53125 72.484375 
Q 59.328125 70.75 64.40625 67.28125 
" id="BitstreamVeraSans-Roman-43"/>
     </defs>
     <g transform="translate(130.943060291 304.26875)scale(0.14 -0.14)">
      <use transform="translate(0.0 0.125)" xlink:href="#BitstreamVeraSans-Roman-54"/>
      <use transform="translate(61.083984375 0.125)" xlink:href="#BitstreamVeraSans-Roman-65"/>
      <use transform="translate(122.607421875 0.125)" xlink:href="#BitstreamVeraSans-Roman-6d"/>
      <use transform="translate(220.01953125 0.125)" xlink:href="#BitstreamVeraSans-Roman-70"/>
      <use transform="translate(283.49609375 0.125)" xlink:href="#BitstreamVeraSans-Roman-65"/>
      <use transform="translate(345.01953125 0.125)" xlink:href="#BitstreamVeraSans-Roman-72"/>
      <use transform="translate(386.1328125 0.125)" xlink:href="#BitstreamVeraSans-Roman-61"/>
      <use transform="translate(447.412109375 0.125)" xlink:href="#BitstreamVeraSans-Roman-74"/>
      <use transform="translate(486.62109375 0.125)" xlink:href="#BitstreamVeraSans-Roman-75"/>
      <use transform="translate(550.0 0.125)" xlink:href="#BitstreamVeraSans-Roman-72"/>
      <use transform="translate(591.11328125 0.125)" xlink:href="#BitstreamVeraSans-Roman-65"/>
      <use transform="translate(652.63671875 0.125)" xlink:href="#BitstreamVeraSans-Roman-20"/>
      <use transform="translate(684.423828125 0.125)" xlink:href="#BitstreamVeraSans-Roman-28"/>
      <use transform="translate(728.95 47.375)scale(0.7)" xlink:href="#STIXGeneral-Regular-2218"/>
      <use transform="translate(761.3249893188477 0.125)" xlink:href="#BitstreamVeraSans-Roman-43"/>
      <use transform="translate(831.1492080688477 0.125)" xlink:href="#BitstreamVeraSans-Roman-29"/>
     </g>
    </g>
   </g>
   <g id="matplotlib.axis_2">
    <g id="ytick_1">
     <g id="line2d_29">
      <defs>
       <path d="M 0 0 
L 4 0 
" id="mf1b644ef41" style="stroke:#000000;stroke-width:0.5;"/>
      </defs>
      <g>
       <use style="stroke:#000000;stroke-width:0.5;" x="72.7861205814" xlink:href="#mf1b644ef41" y="273.015"/>
      </g>
     </g>
     <g id="line2d_30">
      <defs>
       <path d="M 0 0 
L -4 0 
" id="mccf0b4ef10" style="stroke:#000000;stroke-width:0.5;"/>
      </defs>
      <g>
       <use style="stroke:#000000;stroke-width:0.5;" x="311.04" xlink:href="#mccf0b4ef10" y="273.015"/>
      </g>
     </g>
    </g>
    <g id="ytick_2">
     <g id="line2d_31">
      <g>
       <use style="stroke:#000000;stroke-width:0.5;" x="72.7861205814" xlink:href="#mf1b644ef41" y="250.003380696"/>
      </g>
     </g>
     <g id="line2d_32">
      <g>
       <use style="stroke:#000000;stroke-width:0.5;" x="311.04" xlink:href="#mccf0b4ef10" y="250.003380696"/>
      </g>
     </g>
     <g id="text_7">
      <!-- $\mathregular{1\ Pa}$ -->
      <defs>
       <path d="M 19.671875 64.796875 
L 19.671875 37.40625 
L 32.078125 37.40625 
Q 38.96875 37.40625 42.71875 40.96875 
Q 46.484375 44.53125 46.484375 51.125 
Q 46.484375 57.671875 42.71875 61.234375 
Q 38.96875 64.796875 32.078125 64.796875 
z
M 9.8125 72.90625 
L 32.078125 72.90625 
Q 44.34375 72.90625 50.609375 67.359375 
Q 56.890625 61.8125 56.890625 51.125 
Q 56.890625 40.328125 50.609375 34.8125 
Q 44.34375 29.296875 32.078125 29.296875 
L 19.671875 29.296875 
L 19.671875 0 
L 9.8125 0 
z
" id="BitstreamVeraSans-Roman-50"/>
      </defs>
      <g transform="translate(42.6261205814 253.314630696)scale(0.12 -0.12)">
       <use transform="translate(0.0 0.09375)" xlink:href="#BitstreamVeraSans-Roman-31"/>
       <use transform="translate(96.09342529296876 0.09375)" xlink:href="#BitstreamVeraSans-Roman-50"/>
       <use transform="translate(156.39615966796876 0.09375)" xlink:href="#BitstreamVeraSans-Roman-61"/>
      </g>
     </g>
    </g>
    <g id="ytick_3">
     <g id="line2d_33">
      <g>
       <use style="stroke:#000000;stroke-width:0.5;" x="72.7861205814" xlink:href="#mf1b644ef41" y="226.991761393"/>
      </g>
     </g>
     <g id="line2d_34">
      <g>
       <use style="stroke:#000000;stroke-width:0.5;" x="311.04" xlink:href="#mccf0b4ef10" y="226.991761393"/>
      </g>
     </g>
    </g>
    <g id="ytick_4">
     <g id="line2d_35">
      <g>
       <use style="stroke:#000000;stroke-width:0.5;" x="72.7861205814" xlink:href="#mf1b644ef41" y="203.980142089"/>
      </g>
     </g>
     <g id="line2d_36">
      <g>
       <use style="stroke:#000000;stroke-width:0.5;" x="311.04" xlink:href="#mccf0b4ef10" y="203.980142089"/>
      </g>
     </g>
    </g>
    <g id="ytick_5">
     <g id="line2d_37">
      <g>
       <use style="stroke:#000000;stroke-width:0.5;" x="72.7861205814" xlink:href="#mf1b644ef41" y="180.968522785"/>
      </g>
     </g>
     <g id="line2d_38">
      <g>
       <use style="stroke:#000000;stroke-width:0.5;" x="311.04" xlink:href="#mccf0b4ef10" y="180.968522785"/>
      </g>
     </g>
     <g id="text_8">
      <!-- $\mathregular{1\ kPa}$ -->
      <defs>
       <path d="M 9.078125 75.984375 
L 18.109375 75.984375 
L 18.109375 31.109375 
L 44.921875 54.6875 
L 56.390625 54.6875 
L 27.390625 29.109375 
L 57.625 0 
L 45.90625 0 
L 18.109375 26.703125 
L 18.109375 0 
L 9.078125 0 
z
" id="BitstreamVeraSans-Roman-6b"/>
      </defs>
      <g transform="translate(35.6661205814 184.279772785)scale(0.12 -0.12)">
       <use transform="translate(0.0 0.015625)" xlink:href="#BitstreamVeraSans-Roman-31"/>
       <use transform="translate(96.09342529296876 0.015625)" xlink:href="#BitstreamVeraSans-Roman-6b"/>
       <use transform="translate(154.00358154296876 0.015625)" xlink:href="#BitstreamVeraSans-Roman-50"/>
       <use transform="translate(214.30631591796876 0.015625)" xlink:href="#BitstreamVeraSans-Roman-61"/>
      </g>
     </g>
    </g>
    <g id="ytick_6">
     <g id="line2d_39">
      <g>
       <use style="stroke:#000000;stroke-width:0.5;" x="72.7861205814" xlink:href="#mf1b644ef41" y="157.956903481"/>
      </g>
     </g>
     <g id="line2d_40">
      <g>
       <use style="stroke:#000000;stroke-width:0.5;" x="311.04" xlink:href="#mccf0b4ef10" y="157.956903481"/>
      </g>
     </g>
    </g>
    <g id="ytick_7">
     <g id="line2d_41">
      <g>
       <use style="stroke:#000000;stroke-width:0.5;" x="72.7861205814" xlink:href="#mf1b644ef41" y="134.945284178"/>
      </g>
     </g>
     <g id="line2d_42">
      <g>
       <use style="stroke:#000000;stroke-width:0.5;" x="311.04" xlink:href="#mccf0b4ef10" y="134.945284178"/>
      </g>
     </g>
    </g>
    <g id="ytick_8">
     <g id="line2d_43">
      <g>
       <use style="stroke:#000000;stroke-width:0.5;" x="72.7861205814" xlink:href="#mf1b644ef41" y="111.933664874"/>
      </g>
     </g>
     <g id="line2d_44">
      <g>
       <use style="stroke:#000000;stroke-width:0.5;" x="311.04" xlink:href="#mccf0b4ef10" y="111.933664874"/>
      </g>
     </g>
     <g id="text_9">
      <!-- $\mathregular{1\ MPa}$ -->
      <defs>
       <path d="M 9.8125 72.90625 
L 24.515625 72.90625 
L 43.109375 23.296875 
L 61.8125 72.90625 
L 76.515625 72.90625 
L 76.515625 0 
L 66.890625 0 
L 66.890625 64.015625 
L 48.09375 14.015625 
L 38.1875 14.015625 
L 19.390625 64.015625 
L 19.390625 0 
L 9.8125 0 
z
" id="BitstreamVeraSans-Roman-4d"/>
      </defs>
      <g transform="translate(32.3061205814 115.244914874)scale(0.12 -0.12)">
       <use transform="translate(0.0 0.09375)" xlink:href="#BitstreamVeraSans-Roman-31"/>
       <use transform="translate(96.09342529296876 0.09375)" xlink:href="#BitstreamVeraSans-Roman-4d"/>
       <use transform="translate(182.37272216796876 0.09375)" xlink:href="#BitstreamVeraSans-Roman-50"/>
       <use transform="translate(242.67545654296876 0.09375)" xlink:href="#BitstreamVeraSans-Roman-61"/>
      </g>
     </g>
    </g>
    <g id="ytick_9">
     <g id="line2d_45">
      <g>
       <use style="stroke:#000000;stroke-width:0.5;" x="72.7861205814" xlink:href="#mf1b644ef41" y="88.9220455703"/>
      </g>
     </g>
     <g id="line2d_46">
      <g>
       <use style="stroke:#000000;stroke-width:0.5;" x="311.04" xlink:href="#mccf0b4ef10" y="88.9220455703"/>
      </g>
     </g>
    </g>
    <g id="ytick_10">
     <g id="line2d_47">
      <g>
       <use style="stroke:#000000;stroke-width:0.5;" x="72.7861205814" xlink:href="#mf1b644ef41" y="65.9104262666"/>
      </g>
     </g>
     <g id="line2d_48">
      <g>
       <use style="stroke:#000000;stroke-width:0.5;" x="311.04" xlink:href="#mccf0b4ef10" y="65.9104262666"/>
      </g>
     </g>
    </g>
    <g id="ytick_11">
     <g id="line2d_49">
      <g>
       <use style="stroke:#000000;stroke-width:0.5;" x="72.7861205814" xlink:href="#mf1b644ef41" y="42.8988069629"/>
      </g>
     </g>
     <g id="line2d_50">
      <g>
       <use style="stroke:#000000;stroke-width:0.5;" x="311.04" xlink:href="#mccf0b4ef10" y="42.8988069629"/>
      </g>
     </g>
     <g id="text_10">
      <!-- $\mathregular{1\ GPa}$ -->
      <defs>
       <path d="M 59.515625 10.40625 
L 59.515625 29.984375 
L 43.40625 29.984375 
L 43.40625 38.09375 
L 69.28125 38.09375 
L 69.28125 6.78125 
Q 63.578125 2.734375 56.6875 0.65625 
Q 49.8125 -1.421875 42 -1.421875 
Q 24.90625 -1.421875 15.25 8.5625 
Q 5.609375 18.5625 5.609375 36.375 
Q 5.609375 54.25 15.25 64.234375 
Q 24.90625 74.21875 42 74.21875 
Q 49.125 74.21875 55.546875 72.453125 
Q 61.96875 70.703125 67.390625 67.28125 
L 67.390625 56.78125 
Q 61.921875 61.421875 55.765625 63.765625 
Q 49.609375 66.109375 42.828125 66.109375 
Q 29.4375 66.109375 22.71875 58.640625 
Q 16.015625 51.171875 16.015625 36.375 
Q 16.015625 21.625 22.71875 14.15625 
Q 29.4375 6.6875 42.828125 6.6875 
Q 48.046875 6.6875 52.140625 7.59375 
Q 56.25 8.5 59.515625 10.40625 
" id="BitstreamVeraSans-Roman-47"/>
      </defs>
      <g transform="translate(33.2661205814 46.2100569629)scale(0.12 -0.12)">
       <use transform="translate(0.0 0.78125)" xlink:href="#BitstreamVeraSans-Roman-31"/>
       <use transform="translate(96.09342529296876 0.78125)" xlink:href="#BitstreamVeraSans-Roman-47"/>
       <use transform="translate(173.58365966796876 0.78125)" xlink:href="#BitstreamVeraSans-Roman-50"/>
       <use transform="translate(233.88639404296876 0.78125)" xlink:href="#BitstreamVeraSans-Roman-61"/>
      </g>
     </g>
    </g>
    <g id="ytick_12">
     <g id="line2d_51">
      <g>
       <use style="stroke:#000000;stroke-width:0.5;" x="72.7861205814" xlink:href="#mf1b644ef41" y="19.8871876592"/>
      </g>
     </g>
     <g id="line2d_52">
      <g>
       <use style="stroke:#000000;stroke-width:0.5;" x="311.04" xlink:href="#mccf0b4ef10" y="19.8871876592"/>
      </g>
     </g>
    </g>
    <g id="ytick_13">
     <g id="line2d_53">
      <defs>
       <path d="M 0 0 
L 2 0 
" id="meec96d707f" style="stroke:#000000;stroke-width:0.5;"/>
      </defs>
      <g>
       <use style="stroke:#000000;stroke-width:0.5;" x="72.7861205814" xlink:href="#meec96d707f" y="273.015"/>
      </g>
     </g>
     <g id="line2d_54">
      <defs>
       <path d="M 0 0 
L -2 0 
" id="m828af3830e" style="stroke:#000000;stroke-width:0.5;"/>
      </defs>
      <g>
       <use style="stroke:#000000;stroke-width:0.5;" x="311.04" xlink:href="#m828af3830e" y="273.015"/>
      </g>
     </g>
    </g>
    <g id="ytick_14">
     <g id="line2d_55">
      <g>
       <use style="stroke:#000000;stroke-width:0.5;" x="72.7861205814" xlink:href="#meec96d707f" y="250.003380696"/>
      </g>
     </g>
     <g id="line2d_56">
      <g>
       <use style="stroke:#000000;stroke-width:0.5;" x="311.04" xlink:href="#m828af3830e" y="250.003380696"/>
      </g>
     </g>
    </g>
    <g id="ytick_15">
     <g id="line2d_57">
      <g>
       <use style="stroke:#000000;stroke-width:0.5;" x="72.7861205814" xlink:href="#meec96d707f" y="226.991761393"/>
      </g>
     </g>
     <g id="line2d_58">
      <g>
       <use style="stroke:#000000;stroke-width:0.5;" x="311.04" xlink:href="#m828af3830e" y="226.991761393"/>
      </g>
     </g>
    </g>
    <g id="ytick_16">
     <g id="line2d_59">
      <g>
       <use style="stroke:#000000;stroke-width:0.5;" x="72.7861205814" xlink:href="#meec96d707f" y="203.980142089"/>
      </g>
     </g>
     <g id="line2d_60">
      <g>
       <use style="stroke:#000000;stroke-width:0.5;" x="311.04" xlink:href="#m828af3830e" y="203.980142089"/>
      </g>
     </g>
    </g>
    <g id="ytick_17">
     <g id="line2d_61">
      <g>
       <use style="stroke:#000000;stroke-width:0.5;" x="72.7861205814" xlink:href="#meec96d707f" y="180.968522785"/>
      </g>
     </g>
     <g id="line2d_62">
      <g>
       <use style="stroke:#000000;stroke-width:0.5;" x="311.04" xlink:href="#m828af3830e" y="180.968522785"/>
      </g>
     </g>
    </g>
    <g id="ytick_18">
     <g id="line2d_63">
      <g>
       <use style="stroke:#000000;stroke-width:0.5;" x="72.7861205814" xlink:href="#meec96d707f" y="157.956903481"/>
      </g>
     </g>
     <g id="line2d_64">
      <g>
       <use style="stroke:#000000;stroke-width:0.5;" x="311.04" xlink:href="#m828af3830e" y="157.956903481"/>
      </g>
     </g>
    </g>
    <g id="ytick_19">
     <g id="line2d_65">
      <g>
       <use style="stroke:#000000;stroke-width:0.5;" x="72.7861205814" xlink:href="#meec96d707f" y="134.945284178"/>
      </g>
     </g>
     <g id="line2d_66">
      <g>
       <use style="stroke:#000000;stroke-width:0.5;" x="311.04" xlink:href="#m828af3830e" y="134.945284178"/>
      </g>
     </g>
    </g>
    <g id="ytick_20">
     <g id="line2d_67">
      <g>
       <use style="stroke:#000000;stroke-width:0.5;" x="72.7861205814" xlink:href="#meec96d707f" y="111.933664874"/>
      </g>
     </g>
     <g id="line2d_68">
      <g>
       <use style="stroke:#000000;stroke-width:0.5;" x="311.04" xlink:href="#m828af3830e" y="111.933664874"/>
      </g>
     </g>
    </g>
    <g id="ytick_21">
     <g id="line2d_69">
      <g>
       <use style="stroke:#000000;stroke-width:0.5;" x="72.7861205814" xlink:href="#meec96d707f" y="88.9220455703"/>
      </g>
     </g>
     <g id="line2d_70">
      <g>
       <use style="stroke:#000000;stroke-width:0.5;" x="311.04" xlink:href="#m828af3830e" y="88.9220455703"/>
      </g>
     </g>
    </g>
    <g id="ytick_22">
     <g id="line2d_71">
      <g>
       <use style="stroke:#000000;stroke-width:0.5;" x="72.7861205814" xlink:href="#meec96d707f" y="65.9104262666"/>
      </g>
     </g>
     <g id="line2d_72">
      <g>
       <use style="stroke:#000000;stroke-width:0.5;" x="311.04" xlink:href="#m828af3830e" y="65.9104262666"/>
      </g>
     </g>
    </g>
    <g id="ytick_23">
     <g id="line2d_73">
      <g>
       <use style="stroke:#000000;stroke-width:0.5;" x="72.7861205814" xlink:href="#meec96d707f" y="42.8988069629"/>
      </g>
     </g>
     <g id="line2d_74">
      <g>
       <use style="stroke:#000000;stroke-width:0.5;" x="311.04" xlink:href="#m828af3830e" y="42.8988069629"/>
      </g>
     </g>
    </g>
    <g id="ytick_24">
     <g id="line2d_75">
      <g>
       <use style="stroke:#000000;stroke-width:0.5;" x="72.7861205814" xlink:href="#meec96d707f" y="19.8871876592"/>
      </g>
     </g>
     <g id="line2d_76">
      <g>
       <use style="stroke:#000000;stroke-width:0.5;" x="311.04" xlink:href="#m828af3830e" y="19.8871876592"/>
      </g>
     </g>
    </g>
    <g id="text_11">
     <!-- Pressure -->
     <defs>
      <path d="M 44.28125 53.078125 
L 44.28125 44.578125 
Q 40.484375 46.53125 36.375 47.5 
Q 32.28125 48.484375 27.875 48.484375 
Q 21.1875 48.484375 17.84375 46.4375 
Q 14.5 44.390625 14.5 40.28125 
Q 14.5 37.15625 16.890625 35.375 
Q 19.28125 33.59375 26.515625 31.984375 
L 29.59375 31.296875 
Q 39.15625 29.25 43.1875 25.515625 
Q 47.21875 21.78125 47.21875 15.09375 
Q 47.21875 7.46875 41.1875 3.015625 
Q 35.15625 -1.421875 24.609375 -1.421875 
Q 20.21875 -1.421875 15.453125 -0.5625 
Q 10.6875 0.296875 5.421875 2 
L 5.421875 11.28125 
Q 10.40625 8.6875 15.234375 7.390625 
Q 20.0625 6.109375 24.8125 6.109375 
Q 31.15625 6.109375 34.5625 8.28125 
Q 37.984375 10.453125 37.984375 14.40625 
Q 37.984375 18.0625 35.515625 20.015625 
Q 33.0625 21.96875 24.703125 23.78125 
L 21.578125 24.515625 
Q 13.234375 26.265625 9.515625 29.90625 
Q 5.8125 33.546875 5.8125 39.890625 
Q 5.8125 47.609375 11.28125 51.796875 
Q 16.75 56 26.8125 56 
Q 31.78125 56 36.171875 55.265625 
Q 40.578125 54.546875 44.28125 53.078125 
" id="BitstreamVeraSans-Roman-73"/>
     </defs>
     <g transform="translate(24.3945580814 173.301875)rotate(-90.0)scale(0.14 -0.14)">
      <use xlink:href="#BitstreamVeraSans-Roman-50"/>
      <use x="60.287109375" xlink:href="#BitstreamVeraSans-Roman-72"/>
      <use x="101.369140625" xlink:href="#BitstreamVeraSans-Roman-65"/>
      <use x="162.892578125" xlink:href="#BitstreamVeraSans-Roman-73"/>
      <use x="214.9921875" xlink:href="#BitstreamVeraSans-Roman-73"/>
      <use x="267.091796875" xlink:href="#BitstreamVeraSans-Roman-75"/>
      <use x="330.470703125" xlink:href="#BitstreamVeraSans-Roman-72"/>
      <use x="371.552734375" xlink:href="#BitstreamVeraSans-Roman-65"/>
     </g>
    </g>
   </g>
   <g id="text_12">
    <!-- Triple -->
    <defs>
     <path d="M 9.421875 54.6875 
L 18.40625 54.6875 
L 18.40625 0 
L 9.421875 0 
z
M 9.421875 75.984375 
L 18.40625 75.984375 
L 18.40625 64.59375 
L 9.421875 64.59375 
z
" id="BitstreamVeraSans-Roman-69"/>
     <path d="M 9.421875 75.984375 
L 18.40625 75.984375 
L 18.40625 0 
L 9.421875 0 
z
" id="BitstreamVeraSans-Roman-6c"/>
    </defs>
    <g transform="translate(117.739682736 190.542767089)scale(0.12 -0.12)">
     <use xlink:href="#BitstreamVeraSans-Roman-54"/>
     <use x="60.865234375" xlink:href="#BitstreamVeraSans-Roman-72"/>
     <use x="101.978515625" xlink:href="#BitstreamVeraSans-Roman-69"/>
     <use x="129.76171875" xlink:href="#BitstreamVeraSans-Roman-70"/>
     <use x="193.23828125" xlink:href="#BitstreamVeraSans-Roman-6c"/>
     <use x="221.021484375" xlink:href="#BitstreamVeraSans-Roman-65"/>
    </g>
    <!-- point -->
    <defs>
     <path d="M 54.890625 33.015625 
L 54.890625 0 
L 45.90625 0 
L 45.90625 32.71875 
Q 45.90625 40.484375 42.875 44.328125 
Q 39.84375 48.1875 33.796875 48.1875 
Q 26.515625 48.1875 22.3125 43.546875 
Q 18.109375 38.921875 18.109375 30.90625 
L 18.109375 0 
L 9.078125 0 
L 9.078125 54.6875 
L 18.109375 54.6875 
L 18.109375 46.1875 
Q 21.34375 51.125 25.703125 53.5625 
Q 30.078125 56 35.796875 56 
Q 45.21875 56 50.046875 50.171875 
Q 54.890625 44.34375 54.890625 33.015625 
" id="BitstreamVeraSans-Roman-6e"/>
     <path d="M 30.609375 48.390625 
Q 23.390625 48.390625 19.1875 42.75 
Q 14.984375 37.109375 14.984375 27.296875 
Q 14.984375 17.484375 19.15625 11.84375 
Q 23.34375 6.203125 30.609375 6.203125 
Q 37.796875 6.203125 41.984375 11.859375 
Q 46.1875 17.53125 46.1875 27.296875 
Q 46.1875 37.015625 41.984375 42.703125 
Q 37.796875 48.390625 30.609375 48.390625 
M 30.609375 56 
Q 42.328125 56 49.015625 48.375 
Q 55.71875 40.765625 55.71875 27.296875 
Q 55.71875 13.875 49.015625 6.21875 
Q 42.328125 -1.421875 30.609375 -1.421875 
Q 18.84375 -1.421875 12.171875 6.21875 
Q 5.515625 13.875 5.515625 27.296875 
Q 5.515625 40.765625 12.171875 48.375 
Q 18.84375 56 30.609375 56 
" id="BitstreamVeraSans-Roman-6f"/>
    </defs>
    <g transform="translate(117.739682736 203.980142089)scale(0.12 -0.12)">
     <use xlink:href="#BitstreamVeraSans-Roman-70"/>
     <use x="63.4765625" xlink:href="#BitstreamVeraSans-Roman-6f"/>
     <use x="124.658203125" xlink:href="#BitstreamVeraSans-Roman-69"/>
     <use x="152.44140625" xlink:href="#BitstreamVeraSans-Roman-6e"/>
     <use x="215.8203125" xlink:href="#BitstreamVeraSans-Roman-74"/>
    </g>
   </g>
   <g id="text_13">
    <!-- Critical -->
    <defs>
     <path d="M 48.78125 52.59375 
L 48.78125 44.1875 
Q 44.96875 46.296875 41.140625 47.34375 
Q 37.3125 48.390625 33.40625 48.390625 
Q 24.65625 48.390625 19.8125 42.84375 
Q 14.984375 37.3125 14.984375 27.296875 
Q 14.984375 17.28125 19.8125 11.734375 
Q 24.65625 6.203125 33.40625 6.203125 
Q 37.3125 6.203125 41.140625 7.25 
Q 44.96875 8.296875 48.78125 10.40625 
L 48.78125 2.09375 
Q 45.015625 0.34375 40.984375 -0.53125 
Q 36.96875 -1.421875 32.421875 -1.421875 
Q 20.0625 -1.421875 12.78125 6.34375 
Q 5.515625 14.109375 5.515625 27.296875 
Q 5.515625 40.671875 12.859375 48.328125 
Q 20.21875 56 33.015625 56 
Q 37.15625 56 41.109375 55.140625 
Q 45.0625 54.296875 48.78125 52.59375 
" id="BitstreamVeraSans-Roman-63"/>
    </defs>
    <g transform="translate(261.59108163 59.4002389258)scale(0.12 -0.12)">
     <use xlink:href="#BitstreamVeraSans-Roman-43"/>
     <use x="69.82421875" xlink:href="#BitstreamVeraSans-Roman-72"/>
     <use x="110.9375" xlink:href="#BitstreamVeraSans-Roman-69"/>
     <use x="138.720703125" xlink:href="#BitstreamVeraSans-Roman-74"/>
     <use x="177.9296875" xlink:href="#BitstreamVeraSans-Roman-69"/>
     <use x="205.712890625" xlink:href="#BitstreamVeraSans-Roman-63"/>
     <use x="260.693359375" xlink:href="#BitstreamVeraSans-Roman-61"/>
     <use x="321.97265625" xlink:href="#BitstreamVeraSans-Roman-6c"/>
    </g>
    <!-- point -->
    <g transform="translate(261.59108163 72.8376139258)scale(0.12 -0.12)">
     <use xlink:href="#BitstreamVeraSans-Roman-70"/>
     <use x="63.4765625" xlink:href="#BitstreamVeraSans-Roman-6f"/>
     <use x="124.658203125" xlink:href="#BitstreamVeraSans-Roman-69"/>
     <use x="152.44140625" xlink:href="#BitstreamVeraSans-Roman-6e"/>
     <use x="215.8203125" xlink:href="#BitstreamVeraSans-Roman-74"/>
    </g>
   </g>
   <g id="text_14">
    <!-- Ih -->
    <defs>
     <path d="M 54.890625 33.015625 
L 54.890625 0 
L 45.90625 0 
L 45.90625 32.71875 
Q 45.90625 40.484375 42.875 44.328125 
Q 39.84375 48.1875 33.796875 48.1875 
Q 26.515625 48.1875 22.3125 43.546875 
Q 18.109375 38.921875 18.109375 30.90625 
L 18.109375 0 
L 9.078125 0 
L 9.078125 75.984375 
L 18.109375 75.984375 
L 18.109375 46.1875 
Q 21.34375 51.125 25.703125 53.5625 
Q 30.078125 56 35.796875 56 
Q 45.21875 56 50.046875 50.171875 
Q 54.890625 44.34375 54.890625 33.015625 
" id="BitstreamVeraSans-Roman-68"/>
     <path d="M 9.8125 72.90625 
L 19.671875 72.90625 
L 19.671875 0 
L 9.8125 0 
z
" id="BitstreamVeraSans-Roman-49"/>
    </defs>
    <g transform="translate(86.2721892277 105.006477215)scale(0.1 -0.1)">
     <use xlink:href="#BitstreamVeraSans-Roman-49"/>
     <use x="29.4921875" xlink:href="#BitstreamVeraSans-Roman-68"/>
    </g>
   </g>
   <g id="text_15">
    <!-- III -->
    <g transform="translate(79.5291549045 55.9840475444)scale(0.1 -0.1)">
     <use xlink:href="#BitstreamVeraSans-Roman-49"/>
     <use x="29.4921875" xlink:href="#BitstreamVeraSans-Roman-49"/>
     <use x="58.984375" xlink:href="#BitstreamVeraSans-Roman-49"/>
    </g>
   </g>
   <g id="text_16">
    <!-- V -->
    <defs>
     <path d="M 28.609375 0 
L 0.78125 72.90625 
L 11.078125 72.90625 
L 34.1875 11.53125 
L 57.328125 72.90625 
L 67.578125 72.90625 
L 39.796875 0 
z
" id="BitstreamVeraSans-Roman-56"/>
    </defs>
    <g transform="translate(90.7675454431 45.128863289)scale(0.1 -0.1)">
     <use xlink:href="#BitstreamVeraSans-Roman-56"/>
    </g>
   </g>
   <g id="text_17">
    <!-- VI -->
    <g transform="translate(117.739682736 31.9194742876)scale(0.1 -0.1)">
     <use xlink:href="#BitstreamVeraSans-Roman-56"/>
     <use x="68.408203125" xlink:href="#BitstreamVeraSans-Roman-49"/>
    </g>
   </g>
   <g id="text_18">
    <!-- VII -->
    <g transform="translate(173.931635429 24.9922866284)scale(0.1 -0.1)">
     <use xlink:href="#BitstreamVeraSans-Roman-56"/>
     <use x="68.408203125" xlink:href="#BitstreamVeraSans-Roman-49"/>
     <use x="97.900390625" xlink:href="#BitstreamVeraSans-Roman-49"/>
    </g>
   </g>
   <g id="text_19">
    <!-- Liquid -->
    <defs>
     <path d="M 14.796875 27.296875 
Q 14.796875 17.390625 18.875 11.75 
Q 22.953125 6.109375 30.078125 6.109375 
Q 37.203125 6.109375 41.296875 11.75 
Q 45.40625 17.390625 45.40625 27.296875 
Q 45.40625 37.203125 41.296875 42.84375 
Q 37.203125 48.484375 30.078125 48.484375 
Q 22.953125 48.484375 18.875 42.84375 
Q 14.796875 37.203125 14.796875 27.296875 
M 45.40625 8.203125 
Q 42.578125 3.328125 38.25 0.953125 
Q 33.9375 -1.421875 27.875 -1.421875 
Q 17.96875 -1.421875 11.734375 6.484375 
Q 5.515625 14.40625 5.515625 27.296875 
Q 5.515625 40.1875 11.734375 48.09375 
Q 17.96875 56 27.875 56 
Q 33.9375 56 38.25 53.625 
Q 42.578125 51.265625 45.40625 46.390625 
L 45.40625 54.6875 
L 54.390625 54.6875 
L 54.390625 -20.796875 
L 45.40625 -20.796875 
z
" id="BitstreamVeraSans-Roman-71"/>
     <path d="M 9.8125 72.90625 
L 19.671875 72.90625 
L 19.671875 8.296875 
L 55.171875 8.296875 
L 55.171875 0 
L 9.8125 0 
z
" id="BitstreamVeraSans-Roman-4c"/>
     <path d="M 45.40625 46.390625 
L 45.40625 75.984375 
L 54.390625 75.984375 
L 54.390625 0 
L 45.40625 0 
L 45.40625 8.203125 
Q 42.578125 3.328125 38.25 0.953125 
Q 33.9375 -1.421875 27.875 -1.421875 
Q 17.96875 -1.421875 11.734375 6.484375 
Q 5.515625 14.40625 5.515625 27.296875 
Q 5.515625 40.1875 11.734375 48.09375 
Q 17.96875 56 27.875 56 
Q 33.9375 56 38.25 53.625 
Q 42.578125 51.265625 45.40625 46.390625 
M 14.796875 27.296875 
Q 14.796875 17.390625 18.875 11.75 
Q 22.953125 6.109375 30.078125 6.109375 
Q 37.203125 6.109375 41.296875 11.75 
Q 45.40625 17.390625 45.40625 27.296875 
Q 45.40625 37.203125 41.296875 42.84375 
Q 37.203125 48.484375 30.078125 48.484375 
Q 22.953125 48.484375 18.875 42.84375 
Q 14.796875 37.203125 14.796875 27.296875 
" id="BitstreamVeraSans-Roman-64"/>
    </defs>
    <g transform="translate(167.188601106 76.4021588584)scale(0.12 -0.12)">
     <use xlink:href="#BitstreamVeraSans-Roman-4c"/>
     <use x="55.712890625" xlink:href="#BitstreamVeraSans-Roman-69"/>
     <use x="83.49609375" xlink:href="#BitstreamVeraSans-Roman-71"/>
     <use x="146.97265625" xlink:href="#BitstreamVeraSans-Roman-75"/>
     <use x="210.3515625" xlink:href="#BitstreamVeraSans-Roman-69"/>
     <use x="238.134765625" xlink:href="#BitstreamVeraSans-Roman-64"/>
    </g>
   </g>
   <g id="text_20">
    <!-- Vapour -->
    <g transform="translate(189.665382183 151.029715822)scale(0.12 -0.12)">
     <use xlink:href="#BitstreamVeraSans-Roman-56"/>
     <use x="68.298828125" xlink:href="#BitstreamVeraSans-Roman-61"/>
     <use x="129.578125" xlink:href="#BitstreamVeraSans-Roman-70"/>
     <use x="193.0546875" xlink:href="#BitstreamVeraSans-Roman-6f"/>
     <use x="254.236328125" xlink:href="#BitstreamVeraSans-Roman-75"/>
     <use x="317.615234375" xlink:href="#BitstreamVeraSans-Roman-72"/>
    </g>
   </g>
   <g id="text_21">
    <!-- Solid -->
    <defs>
     <path d="M 53.515625 70.515625 
L 53.515625 60.890625 
Q 47.90625 63.578125 42.921875 64.890625 
Q 37.9375 66.21875 33.296875 66.21875 
Q 25.25 66.21875 20.875 63.09375 
Q 16.5 59.96875 16.5 54.203125 
Q 16.5 49.359375 19.40625 46.890625 
Q 22.3125 44.4375 30.421875 42.921875 
L 36.375 41.703125 
Q 47.40625 39.59375 52.65625 34.296875 
Q 57.90625 29 57.90625 20.125 
Q 57.90625 9.515625 50.796875 4.046875 
Q 43.703125 -1.421875 29.984375 -1.421875 
Q 24.8125 -1.421875 18.96875 -0.25 
Q 13.140625 0.921875 6.890625 3.21875 
L 6.890625 13.375 
Q 12.890625 10.015625 18.65625 8.296875 
Q 24.421875 6.59375 29.984375 6.59375 
Q 38.421875 6.59375 43.015625 9.90625 
Q 47.609375 13.234375 47.609375 19.390625 
Q 47.609375 24.75 44.3125 27.78125 
Q 41.015625 30.8125 33.5 32.328125 
L 27.484375 33.5 
Q 16.453125 35.6875 11.515625 40.375 
Q 6.59375 45.0625 6.59375 53.421875 
Q 6.59375 63.09375 13.40625 68.65625 
Q 20.21875 74.21875 32.171875 74.21875 
Q 37.3125 74.21875 42.625 73.28125 
Q 47.953125 72.359375 53.515625 70.515625 
" id="BitstreamVeraSans-Roman-53"/>
    </defs>
    <g transform="translate(76.3824055537 151.029715822)scale(0.12 -0.12)">
     <use xlink:href="#BitstreamVeraSans-Roman-53"/>
     <use x="63.4765625" xlink:href="#BitstreamVeraSans-Roman-6f"/>
     <use x="124.658203125" xlink:href="#BitstreamVeraSans-Roman-6c"/>
     <use x="152.44140625" xlink:href="#BitstreamVeraSans-Roman-69"/>
     <use x="180.224609375" xlink:href="#BitstreamVeraSans-Roman-64"/>
    </g>
   </g>
  </g>
  <g id="axes_2">
   <g id="patch_7">
    <path d="M 194.4 243 
L 291.6 243 
L 291.6 178.2 
L 194.4 178.2 
z
" style="fill:#ffffff;"/>
   </g>
   <g id="line2d_77">
    <path clip-path="url(#p778046ac4d)" d="M 194.4 182.907522 
L 195.054545 182.984586 
L 195.709091 183.062442 
L 196.363636 183.141103 
L 197.018182 183.220589 
L 197.672727 183.300916 
L 198.327273 183.382101 
L 198.981818 183.464165 
L 199.636364 183.547125 
L 200.290909 183.631001 
L 200.945455 183.715815 
L 201.6 183.801586 
L 202.254545 183.888338 
L 202.909091 183.976092 
L 203.563636 184.064872 
L 204.218182 184.154703 
L 204.872727 184.245609 
L 205.527273 184.337617 
L 206.181818 184.430753 
L 206.836364 184.525045 
L 207.490909 184.620523 
L 208.145455 184.717217 
L 208.8 184.815158 
L 209.454545 184.914378 
L 210.109091 185.014912 
L 210.763636 185.116794 
L 211.418182 185.220062 
L 212.072727 185.324753 
L 212.727273 185.430908 
L 213.381818 185.538566 
L 214.036364 185.647773 
L 214.690909 185.758573 
L 215.345455 185.871013 
L 216 185.985142 
L 216.654545 186.101012 
L 217.309091 186.218677 
L 217.963636 186.338193 
L 218.618182 186.459619 
L 219.272727 186.583018 
L 219.927273 186.708454 
L 220.581818 186.835995 
L 221.236364 186.965715 
L 221.890909 187.097687 
L 222.545455 187.231993 
L 223.2 187.368715 
L 223.854545 187.507942 
L 224.509091 187.649769 
L 225.163636 187.794292 
L 225.818182 187.941618 
L 226.472727 188.091856 
L 227.127273 188.245125 
L 227.781818 188.401549 
L 228.436364 188.56126 
L 229.090909 188.724399 
L 229.745455 188.891117 
L 230.4 189.061575 
L 231.054545 189.235944 
L 231.709091 189.414407 
L 232.363636 189.597161 
L 233.018182 189.784417 
L 233.672727 189.976404 
L 234.327273 190.173366 
L 234.981818 190.375567 
L 235.636364 190.583294 
L 236.290909 190.796857 
L 236.945455 191.016594 
L 237.6 191.242871 
L 238.254545 191.476091 
L 238.909091 191.716692 
L 239.563636 191.965158 
L 240.218182 192.222018 
L 240.872727 192.48786 
L 241.527273 192.763335 
L 242.181818 193.049168 
L 242.836364 193.346166 
L 243.490909 193.655238 
L 244.145455 193.977408 
L 244.8 194.313833 
L 245.454545 194.665834 
L 246.109091 195.034923 
L 246.763636 195.422843 
L 247.418182 195.83162 
L 248.072727 196.263624 
L 248.727273 196.721653 
L 249.381818 197.209045 
L 250.036364 197.729822 
L 250.690909 198.288897 
L 251.345455 198.892351 
L 252 199.547841 
L 252.654545 200.265193 
L 253.309091 201.05731 
L 253.963636 201.941608 
L 254.618182 202.942398 
L 255.272727 204.095093 
L 255.927273 205.454197 
L 256.581818 207.110105 
L 257.236364 209.229727 
L 257.890909 212.178293 
L 258.545455 217.057267 
L 259.2 234.495208 
" style="fill:none;stroke:#0000ff;stroke-linecap:square;stroke-width:2.0;"/>
   </g>
   <g id="line2d_78">
    <path clip-path="url(#p778046ac4d)" d="M 194.4 234.520273 
L 195.054545 234.52002 
L 195.709091 234.519767 
L 196.363636 234.519514 
L 197.018182 234.51926 
L 197.672727 234.519007 
L 198.327273 234.518754 
L 198.981818 234.518501 
L 199.636364 234.518248 
L 200.290909 234.517994 
L 200.945455 234.517741 
L 201.6 234.517488 
L 202.254545 234.517235 
L 202.909091 234.516981 
L 203.563636 234.516728 
L 204.218182 234.516475 
L 204.872727 234.516222 
L 205.527273 234.515969 
L 206.181818 234.515715 
L 206.836364 234.515462 
L 207.490909 234.515209 
L 208.145455 234.514956 
L 208.8 234.514703 
L 209.454545 234.514449 
L 210.109091 234.514196 
L 210.763636 234.513943 
L 211.418182 234.51369 
L 212.072727 234.513437 
L 212.727273 234.513183 
L 213.381818 234.51293 
L 214.036364 234.512677 
L 214.690909 234.512424 
L 215.345455 234.512171 
L 216 234.511917 
L 216.654545 234.511664 
L 217.309091 234.511411 
L 217.963636 234.511158 
L 218.618182 234.510905 
L 219.272727 234.510651 
L 219.927273 234.510398 
L 220.581818 234.510145 
L 221.236364 234.509892 
L 221.890909 234.509639 
L 222.545455 234.509385 
L 223.2 234.509132 
L 223.854545 234.508879 
L 224.509091 234.508626 
L 225.163636 234.508373 
L 225.818182 234.508119 
L 226.472727 234.507866 
L 227.127273 234.507613 
L 227.781818 234.50736 
L 228.436364 234.507107 
L 229.090909 234.506853 
L 229.745455 234.5066 
L 230.4 234.506347 
L 231.054545 234.506094 
L 231.709091 234.505841 
L 232.363636 234.505588 
L 233.018182 234.505334 
L 233.672727 234.505081 
L 234.327273 234.504828 
L 234.981818 234.504575 
L 235.636364 234.504322 
L 236.290909 234.504068 
L 236.945455 234.503815 
L 237.6 234.503562 
L 238.254545 234.503309 
L 238.909091 234.503056 
L 239.563636 234.502803 
L 240.218182 234.502549 
L 240.872727 234.502296 
L 241.527273 234.502043 
L 242.181818 234.50179 
L 242.836364 234.501537 
L 243.490909 234.501284 
L 244.145455 234.50103 
L 244.8 234.500777 
L 245.454545 234.500524 
L 246.109091 234.500271 
L 246.763636 234.500018 
L 247.418182 234.499765 
L 248.072727 234.499511 
L 248.727273 234.499258 
L 249.381818 234.499005 
L 250.036364 234.498752 
L 250.690909 234.498499 
L 251.345455 234.498246 
L 252 234.497992 
L 252.654545 234.497739 
L 253.309091 234.497486 
L 253.963636 234.497233 
L 254.618182 234.49698 
L 255.272727 234.496727 
L 255.927273 234.496474 
L 256.581818 234.49622 
L 257.236364 234.495967 
L 257.890909 234.495714 
L 258.545455 234.495461 
L 259.2 234.495208 
" style="fill:none;stroke:#008000;stroke-linecap:square;stroke-width:2.0;"/>
   </g>
   <g id="line2d_79">
    <path clip-path="url(#p778046ac4d)" d="M 259.2 234.495207 
L 259.854545 234.494984 
L 260.509091 234.49476 
L 261.163636 234.494537 
L 261.818182 234.494314 
L 262.472727 234.49409 
L 263.127273 234.493867 
L 263.781818 234.493644 
L 264.436364 234.49342 
L 265.090909 234.493197 
L 265.745455 234.492974 
L 266.4 234.49275 
L 267.054545 234.492527 
L 267.709091 234.492304 
L 268.363636 234.49208 
L 269.018182 234.491857 
L 269.672727 234.491634 
L 270.327273 234.49141 
L 270.981818 234.491187 
L 271.636364 234.490964 
L 272.290909 234.490741 
L 272.945455 234.490517 
L 273.6 234.490294 
L 274.254545 234.490071 
L 274.909091 234.489847 
L 275.563636 234.489624 
L 276.218182 234.489401 
L 276.872727 234.489177 
L 277.527273 234.488954 
L 278.181818 234.488731 
L 278.836364 234.488507 
L 279.490909 234.488284 
L 280.145455 234.488061 
L 280.8 234.487838 
L 281.454545 234.487614 
L 282.109091 234.487391 
L 282.763636 234.487168 
L 283.418182 234.486944 
L 284.072727 234.486721 
L 284.727273 234.486498 
L 285.381818 234.486274 
L 286.036364 234.486051 
L 286.690909 234.485828 
L 287.345455 234.485605 
L 288 234.485381 
L 288.654545 234.485158 
L 289.309091 234.484935 
L 289.963636 234.484711 
L 290.618182 234.484488 
L 291.272727 234.484265 
L 291.927273 234.484042 
L 292.581818 234.483818 
L 293.236364 234.483595 
L 293.890909 234.483372 
L 294.545455 234.483148 
L 295.2 234.482925 
L 295.854545 234.482702 
L 296.509091 234.482479 
L 297.163636 234.482255 
L 297.818182 234.482032 
L 298.472727 234.481809 
L 299.127273 234.481585 
L 299.781818 234.481362 
L 300.436364 234.481139 
L 301.090909 234.480916 
L 301.745455 234.480692 
L 302.4 234.480469 
L 303.054545 234.480246 
L 303.709091 234.480022 
L 304.363636 234.479799 
L 305.018182 234.479576 
L 305.672727 234.479353 
L 306.327273 234.479129 
L 306.981818 234.478906 
L 307.636364 234.478683 
L 308.290909 234.47846 
L 308.945455 234.478236 
L 309.6 234.478013 
L 310.254545 234.47779 
L 310.909091 234.477567 
L 311.563636 234.477343 
L 312.218182 234.47712 
L 312.872727 234.476897 
L 313.527273 234.476673 
L 314.181818 234.47645 
L 314.836364 234.476227 
L 315.490909 234.476004 
L 316.145455 234.47578 
L 316.8 234.475557 
L 317.454545 234.475334 
L 318.109091 234.475111 
L 318.763636 234.474887 
L 319.418182 234.474664 
L 320.072727 234.474441 
L 320.727273 234.474218 
L 321.381818 234.473994 
L 322.036364 234.473771 
L 322.690909 234.473548 
L 323.345455 234.473325 
L 324 234.473101 
" style="fill:none;stroke:#ff0000;stroke-linecap:square;stroke-width:2.0;"/>
   </g>
   <g id="line2d_80">
    <g clip-path="url(#p778046ac4d)">
     <use style="fill:#0000ff;stroke:#000000;stroke-width:0.5;" x="259.2" xlink:href="#mc23dc4ee56" y="234.495207741"/>
    </g>
   </g>
   <g id="line2d_81">
    <path clip-path="url(#p778046ac4d)" d="M -118260 195.618244 
M -1 195.618244 
L 325 195.618244 
" style="fill:none;stroke:#000000;stroke-dasharray:1.000000,3.000000;stroke-dashoffset:0.0;stroke-width:1.5;"/>
   </g>
   <g id="patch_8">
    <path d="M 194.4 243 
L 194.4 178.2 
" style="fill:none;stroke:#000000;stroke-linecap:square;stroke-linejoin:miter;"/>
   </g>
   <g id="patch_9">
    <path d="M 291.6 243 
L 291.6 178.2 
" style="fill:none;stroke:#000000;stroke-linecap:square;stroke-linejoin:miter;"/>
   </g>
   <g id="patch_10">
    <path d="M 194.4 178.2 
L 291.6 178.2 
" style="fill:none;stroke:#000000;stroke-linecap:square;stroke-linejoin:miter;"/>
   </g>
   <g id="patch_11">
    <path d="M 194.4 243 
L 291.6 243 
" style="fill:none;stroke:#000000;stroke-linecap:square;stroke-linejoin:miter;"/>
   </g>
   <g id="matplotlib.axis_3">
    <g id="xtick_6">
     <g id="line2d_82">
      <g>
       <use style="stroke:#000000;stroke-width:0.5;" x="210.6" xlink:href="#m47b3e005eb" y="243.0"/>
      </g>
     </g>
     <g id="line2d_83">
      <g>
       <use style="stroke:#000000;stroke-width:0.5;" x="210.6" xlink:href="#m3fbd9dfde3" y="178.2"/>
      </g>
     </g>
     <g id="text_22">
      <!-- -0.02 -->
      <defs>
       <path d="M 4.890625 31.390625 
L 31.203125 31.390625 
L 31.203125 23.390625 
L 4.890625 23.390625 
z
" id="BitstreamVeraSans-Roman-2d"/>
       <path d="M 10.6875 12.40625 
L 21 12.40625 
L 21 0 
L 10.6875 0 
z
" id="BitstreamVeraSans-Roman-2e"/>
      </defs>
      <g transform="translate(195.0759375 256.118125)scale(0.12 -0.12)">
       <use xlink:href="#BitstreamVeraSans-Roman-2d"/>
       <use x="36.083984375" xlink:href="#BitstreamVeraSans-Roman-30"/>
       <use x="99.70703125" xlink:href="#BitstreamVeraSans-Roman-2e"/>
       <use x="131.494140625" xlink:href="#BitstreamVeraSans-Roman-30"/>
       <use x="195.1171875" xlink:href="#BitstreamVeraSans-Roman-32"/>
      </g>
     </g>
    </g>
    <g id="xtick_7">
     <g id="line2d_84">
      <g>
       <use style="stroke:#000000;stroke-width:0.5;" x="243.0" xlink:href="#m47b3e005eb" y="243.0"/>
      </g>
     </g>
     <g id="line2d_85">
      <g>
       <use style="stroke:#000000;stroke-width:0.5;" x="243.0" xlink:href="#m3fbd9dfde3" y="178.2"/>
      </g>
     </g>
     <g id="text_23">
      <!-- 0 -->
      <g transform="translate(239.1825 256.118125)scale(0.12 -0.12)">
       <use xlink:href="#BitstreamVeraSans-Roman-30"/>
      </g>
     </g>
    </g>
    <g id="xtick_8">
     <g id="line2d_86">
      <g>
       <use style="stroke:#000000;stroke-width:0.5;" x="275.4" xlink:href="#m47b3e005eb" y="243.0"/>
      </g>
     </g>
     <g id="line2d_87">
      <g>
       <use style="stroke:#000000;stroke-width:0.5;" x="275.4" xlink:href="#m3fbd9dfde3" y="178.2"/>
      </g>
     </g>
     <g id="text_24">
      <!-- 0.02 -->
      <g transform="translate(262.040625 256.118125)scale(0.12 -0.12)">
       <use xlink:href="#BitstreamVeraSans-Roman-30"/>
       <use x="63.623046875" xlink:href="#BitstreamVeraSans-Roman-2e"/>
       <use x="95.41015625" xlink:href="#BitstreamVeraSans-Roman-30"/>
       <use x="159.033203125" xlink:href="#BitstreamVeraSans-Roman-32"/>
      </g>
     </g>
    </g>
    <g id="xtick_9">
     <g id="line2d_88">
      <defs>
       <path d="M 0 0 
L 0 -2 
" id="mdc1dd7273d" style="stroke:#000000;stroke-width:0.5;"/>
      </defs>
      <g>
       <use style="stroke:#000000;stroke-width:0.5;" x="226.8" xlink:href="#mdc1dd7273d" y="243.0"/>
      </g>
     </g>
     <g id="line2d_89">
      <defs>
       <path d="M 0 0 
L 0 2 
" id="mb2c36ff7d9" style="stroke:#000000;stroke-width:0.5;"/>
      </defs>
      <g>
       <use style="stroke:#000000;stroke-width:0.5;" x="226.8" xlink:href="#mb2c36ff7d9" y="178.2"/>
      </g>
     </g>
    </g>
    <g id="xtick_10">
     <g id="line2d_90">
      <g>
       <use style="stroke:#000000;stroke-width:0.5;" x="259.2" xlink:href="#mdc1dd7273d" y="243.0"/>
      </g>
     </g>
     <g id="line2d_91">
      <g>
       <use style="stroke:#000000;stroke-width:0.5;" x="259.2" xlink:href="#mb2c36ff7d9" y="178.2"/>
      </g>
     </g>
    </g>
   </g>
   <g id="matplotlib.axis_4">
    <g id="ytick_25">
     <g id="line2d_92">
      <g>
       <use style="stroke:#000000;stroke-width:0.5;" x="194.4" xlink:href="#mf1b644ef41" y="230.755170702"/>
      </g>
     </g>
     <g id="line2d_93">
      <g>
       <use style="stroke:#000000;stroke-width:0.5;" x="291.6" xlink:href="#mccf0b4ef10" y="230.755170702"/>
      </g>
     </g>
    </g>
    <g id="ytick_26">
     <g id="line2d_94">
      <g>
       <use style="stroke:#000000;stroke-width:0.5;" x="194.4" xlink:href="#mf1b644ef41" y="213.236780468"/>
      </g>
     </g>
     <g id="line2d_95">
      <g>
       <use style="stroke:#000000;stroke-width:0.5;" x="291.6" xlink:href="#mccf0b4ef10" y="213.236780468"/>
      </g>
     </g>
    </g>
    <g id="ytick_27">
     <g id="line2d_96">
      <g>
       <use style="stroke:#000000;stroke-width:0.5;" x="194.4" xlink:href="#mf1b644ef41" y="195.718390234"/>
      </g>
     </g>
     <g id="line2d_97">
      <g>
       <use style="stroke:#000000;stroke-width:0.5;" x="291.6" xlink:href="#mccf0b4ef10" y="195.718390234"/>
      </g>
     </g>
    </g>
   </g>
   <g id="text_25">
    <!-- S -->
    <g transform="translate(218.7 218.510341404)scale(0.12 -0.12)">
     <use xlink:href="#BitstreamVeraSans-Roman-53"/>
    </g>
   </g>
   <g id="text_26">
    <!-- L -->
    <g transform="translate(272.16 218.510341404)scale(0.12 -0.12)">
     <use xlink:href="#BitstreamVeraSans-Roman-4c"/>
    </g>
   </g>
  </g>
 </g>
 <defs>
  <clipPath id="p778046ac4d">
   <rect height="64.8" width="97.2" x="194.4" y="178.2"/>
  </clipPath>
  <clipPath id="pd45ed19a26">
   <rect height="260.055" width="238.253879419" x="72.7861205814" y="12.96"/>
  </clipPath>
 </defs>
</svg>
