<?xml version="1.0" encoding="utf-8" standalone="no"?>
<!DOCTYPE svg PUBLIC "-//W3C//DTD SVG 1.1//EN"
  "http://www.w3.org/Graphics/SVG/1.1/DTD/svg11.dtd">
<!-- Created with matplotlib (http://matplotlib.org/) -->
<svg height="201pt" version="1.1" viewBox="0 0 288 201" width="288pt" xmlns="http://www.w3.org/2000/svg" xmlns:xlink="http://www.w3.org/1999/xlink">
 <defs>
  <style type="text/css">
*{stroke-linecap:butt;stroke-linejoin:round;}
  </style>
 </defs>
 <g id="figure_1">
  <g id="patch_1">
   <path d="M 0 201.6 
L 288 201.6 
L 288 0 
L 0 0 
z
" style="fill:#ffffff;"/>
  </g>
  <g id="axes_1">
   <g id="patch_2">
    <path d="M 50.565625 160.44375 
L 270.8375 160.44375 
L 270.8375 14.3 
L 50.565625 14.3 
z
" style="fill:#ffffff;"/>
   </g>
   <g id="matplotlib.axis_1">
    <g id="xtick_1">
     <g id="line2d_1">
      <defs>
       <path d="M 0 0 
L 0 3.5 
" id="medb72b64c2" style="stroke:#000000;stroke-width:0.8;"/>
      </defs>
      <g>
       <use style="stroke:#000000;stroke-width:0.8;" x="50.565625" xlink:href="#medb72b64c2" y="160.44375"/>
      </g>
     </g>
     <g id="text_1">
      <!-- 0 -->
      <defs>
       <path d="M 31.78125 66.40625 
Q 24.171875 66.40625 20.328125 58.90625 
Q 16.5 51.421875 16.5 36.375 
Q 16.5 21.390625 20.328125 13.890625 
Q 24.171875 6.390625 31.78125 6.390625 
Q 39.453125 6.390625 43.28125 13.890625 
Q 47.125 21.390625 47.125 36.375 
Q 47.125 51.421875 43.28125 58.90625 
Q 39.453125 66.40625 31.78125 66.40625 
z
M 31.78125 74.21875 
Q 44.046875 74.21875 50.515625 64.515625 
Q 56.984375 54.828125 56.984375 36.375 
Q 56.984375 17.96875 50.515625 8.265625 
Q 44.046875 -1.421875 31.78125 -1.421875 
Q 19.53125 -1.421875 13.0625 8.265625 
Q 6.59375 17.96875 6.59375 36.375 
Q 6.59375 54.828125 13.0625 64.515625 
Q 19.53125 74.21875 31.78125 74.21875 
z
" id="DejaVuSans-30"/>
      </defs>
      <g transform="translate(47.384375 175.042188)scale(0.1 -0.1)">
       <use xlink:href="#DejaVuSans-30"/>
      </g>
     </g>
    </g>
    <g id="xtick_2">
     <g id="line2d_2">
      <g>
       <use style="stroke:#000000;stroke-width:0.8;" x="94.62" xlink:href="#medb72b64c2" y="160.44375"/>
      </g>
     </g>
     <g id="text_2">
      <!-- 2 -->
      <defs>
       <path d="M 19.1875 8.296875 
L 53.609375 8.296875 
L 53.609375 0 
L 7.328125 0 
L 7.328125 8.296875 
Q 12.9375 14.109375 22.625 23.890625 
Q 32.328125 33.6875 34.8125 36.53125 
Q 39.546875 41.84375 41.421875 45.53125 
Q 43.3125 49.21875 43.3125 52.78125 
Q 43.3125 58.59375 39.234375 62.25 
Q 35.15625 65.921875 28.609375 65.921875 
Q 23.96875 65.921875 18.8125 64.3125 
Q 13.671875 62.703125 7.8125 59.421875 
L 7.8125 69.390625 
Q 13.765625 71.78125 18.9375 73 
Q 24.125 74.21875 28.421875 74.21875 
Q 39.75 74.21875 46.484375 68.546875 
Q 53.21875 62.890625 53.21875 53.421875 
Q 53.21875 48.921875 51.53125 44.890625 
Q 49.859375 40.875 45.40625 35.40625 
Q 44.1875 33.984375 37.640625 27.21875 
Q 31.109375 20.453125 19.1875 8.296875 
z
" id="DejaVuSans-32"/>
      </defs>
      <g transform="translate(91.43875 175.042188)scale(0.1 -0.1)">
       <use xlink:href="#DejaVuSans-32"/>
      </g>
     </g>
    </g>
    <g id="xtick_3">
     <g id="line2d_3">
      <g>
       <use style="stroke:#000000;stroke-width:0.8;" x="138.674375" xlink:href="#medb72b64c2" y="160.44375"/>
      </g>
     </g>
     <g id="text_3">
      <!-- 4 -->
      <defs>
       <path d="M 37.796875 64.3125 
L 12.890625 25.390625 
L 37.796875 25.390625 
z
M 35.203125 72.90625 
L 47.609375 72.90625 
L 47.609375 25.390625 
L 58.015625 25.390625 
L 58.015625 17.1875 
L 47.609375 17.1875 
L 47.609375 0 
L 37.796875 0 
L 37.796875 17.1875 
L 4.890625 17.1875 
L 4.890625 26.703125 
z
" id="DejaVuSans-34"/>
      </defs>
      <g transform="translate(135.493125 175.042188)scale(0.1 -0.1)">
       <use xlink:href="#DejaVuSans-34"/>
      </g>
     </g>
    </g>
    <g id="xtick_4">
     <g id="line2d_4">
      <g>
       <use style="stroke:#000000;stroke-width:0.8;" x="182.72875" xlink:href="#medb72b64c2" y="160.44375"/>
      </g>
     </g>
     <g id="text_4">
      <!-- 6 -->
      <defs>
       <path d="M 33.015625 40.375 
Q 26.375 40.375 22.484375 35.828125 
Q 18.609375 31.296875 18.609375 23.390625 
Q 18.609375 15.53125 22.484375 10.953125 
Q 26.375 6.390625 33.015625 6.390625 
Q 39.65625 6.390625 43.53125 10.953125 
Q 47.40625 15.53125 47.40625 23.390625 
Q 47.40625 31.296875 43.53125 35.828125 
Q 39.65625 40.375 33.015625 40.375 
z
M 52.59375 71.296875 
L 52.59375 62.3125 
Q 48.875 64.0625 45.09375 64.984375 
Q 41.3125 65.921875 37.59375 65.921875 
Q 27.828125 65.921875 22.671875 59.328125 
Q 17.53125 52.734375 16.796875 39.40625 
Q 19.671875 43.65625 24.015625 45.921875 
Q 28.375 48.1875 33.59375 48.1875 
Q 44.578125 48.1875 50.953125 41.515625 
Q 57.328125 34.859375 57.328125 23.390625 
Q 57.328125 12.15625 50.6875 5.359375 
Q 44.046875 -1.421875 33.015625 -1.421875 
Q 20.359375 -1.421875 13.671875 8.265625 
Q 6.984375 17.96875 6.984375 36.375 
Q 6.984375 53.65625 15.1875 63.9375 
Q 23.390625 74.21875 37.203125 74.21875 
Q 40.921875 74.21875 44.703125 73.484375 
Q 48.484375 72.75 52.59375 71.296875 
z
" id="DejaVuSans-36"/>
      </defs>
      <g transform="translate(179.5475 175.042188)scale(0.1 -0.1)">
       <use xlink:href="#DejaVuSans-36"/>
      </g>
     </g>
    </g>
    <g id="xtick_5">
     <g id="line2d_5">
      <g>
       <use style="stroke:#000000;stroke-width:0.8;" x="226.783125" xlink:href="#medb72b64c2" y="160.44375"/>
      </g>
     </g>
     <g id="text_5">
      <!-- 8 -->
      <defs>
       <path d="M 31.78125 34.625 
Q 24.75 34.625 20.71875 30.859375 
Q 16.703125 27.09375 16.703125 20.515625 
Q 16.703125 13.921875 20.71875 10.15625 
Q 24.75 6.390625 31.78125 6.390625 
Q 38.8125 6.390625 42.859375 10.171875 
Q 46.921875 13.96875 46.921875 20.515625 
Q 46.921875 27.09375 42.890625 30.859375 
Q 38.875 34.625 31.78125 34.625 
z
M 21.921875 38.8125 
Q 15.578125 40.375 12.03125 44.71875 
Q 8.5 49.078125 8.5 55.328125 
Q 8.5 64.0625 14.71875 69.140625 
Q 20.953125 74.21875 31.78125 74.21875 
Q 42.671875 74.21875 48.875 69.140625 
Q 55.078125 64.0625 55.078125 55.328125 
Q 55.078125 49.078125 51.53125 44.71875 
Q 48 40.375 41.703125 38.8125 
Q 48.828125 37.15625 52.796875 32.3125 
Q 56.78125 27.484375 56.78125 20.515625 
Q 56.78125 9.90625 50.3125 4.234375 
Q 43.84375 -1.421875 31.78125 -1.421875 
Q 19.734375 -1.421875 13.25 4.234375 
Q 6.78125 9.90625 6.78125 20.515625 
Q 6.78125 27.484375 10.78125 32.3125 
Q 14.796875 37.15625 21.921875 38.8125 
z
M 18.3125 54.390625 
Q 18.3125 48.734375 21.84375 45.5625 
Q 25.390625 42.390625 31.78125 42.390625 
Q 38.140625 42.390625 41.71875 45.5625 
Q 45.3125 48.734375 45.3125 54.390625 
Q 45.3125 60.0625 41.71875 63.234375 
Q 38.140625 66.40625 31.78125 66.40625 
Q 25.390625 66.40625 21.84375 63.234375 
Q 18.3125 60.0625 18.3125 54.390625 
z
" id="DejaVuSans-38"/>
      </defs>
      <g transform="translate(223.601875 175.042188)scale(0.1 -0.1)">
       <use xlink:href="#DejaVuSans-38"/>
      </g>
     </g>
    </g>
    <g id="xtick_6">
     <g id="line2d_6">
      <g>
       <use style="stroke:#000000;stroke-width:0.8;" x="270.8375" xlink:href="#medb72b64c2" y="160.44375"/>
      </g>
     </g>
     <g id="text_6">
      <!-- 10 -->
      <defs>
       <path d="M 12.40625 8.296875 
L 28.515625 8.296875 
L 28.515625 63.921875 
L 10.984375 60.40625 
L 10.984375 69.390625 
L 28.421875 72.90625 
L 38.28125 72.90625 
L 38.28125 8.296875 
L 54.390625 8.296875 
L 54.390625 0 
L 12.40625 0 
z
" id="DejaVuSans-31"/>
      </defs>
      <g transform="translate(264.475 175.042188)scale(0.1 -0.1)">
       <use xlink:href="#DejaVuSans-31"/>
       <use x="63.623047" xlink:href="#DejaVuSans-30"/>
      </g>
     </g>
    </g>
    <g id="text_7">
     <!-- Entropy (kJ/K/kg) -->
     <defs>
      <path d="M 9.8125 72.90625 
L 55.90625 72.90625 
L 55.90625 64.59375 
L 19.671875 64.59375 
L 19.671875 43.015625 
L 54.390625 43.015625 
L 54.390625 34.71875 
L 19.671875 34.71875 
L 19.671875 8.296875 
L 56.78125 8.296875 
L 56.78125 0 
L 9.8125 0 
z
" id="DejaVuSans-45"/>
      <path d="M 54.890625 33.015625 
L 54.890625 0 
L 45.90625 0 
L 45.90625 32.71875 
Q 45.90625 40.484375 42.875 44.328125 
Q 39.84375 48.1875 33.796875 48.1875 
Q 26.515625 48.1875 22.3125 43.546875 
Q 18.109375 38.921875 18.109375 30.90625 
L 18.109375 0 
L 9.078125 0 
L 9.078125 54.6875 
L 18.109375 54.6875 
L 18.109375 46.1875 
Q 21.34375 51.125 25.703125 53.5625 
Q 30.078125 56 35.796875 56 
Q 45.21875 56 50.046875 50.171875 
Q 54.890625 44.34375 54.890625 33.015625 
z
" id="DejaVuSans-6e"/>
      <path d="M 18.3125 70.21875 
L 18.3125 54.6875 
L 36.8125 54.6875 
L 36.8125 47.703125 
L 18.3125 47.703125 
L 18.3125 18.015625 
Q 18.3125 11.328125 20.140625 9.421875 
Q 21.96875 7.515625 27.59375 7.515625 
L 36.8125 7.515625 
L 36.8125 0 
L 27.59375 0 
Q 17.1875 0 13.234375 3.875 
Q 9.28125 7.765625 9.28125 18.015625 
L 9.28125 47.703125 
L 2.6875 47.703125 
L 2.6875 54.6875 
L 9.28125 54.6875 
L 9.28125 70.21875 
z
" id="DejaVuSans-74"/>
      <path d="M 41.109375 46.296875 
Q 39.59375 47.171875 37.8125 47.578125 
Q 36.03125 48 33.890625 48 
Q 26.265625 48 22.1875 43.046875 
Q 18.109375 38.09375 18.109375 28.8125 
L 18.109375 0 
L 9.078125 0 
L 9.078125 54.6875 
L 18.109375 54.6875 
L 18.109375 46.1875 
Q 20.953125 51.171875 25.484375 53.578125 
Q 30.03125 56 36.53125 56 
Q 37.453125 56 38.578125 55.875 
Q 39.703125 55.765625 41.0625 55.515625 
z
" id="DejaVuSans-72"/>
      <path d="M 30.609375 48.390625 
Q 23.390625 48.390625 19.1875 42.75 
Q 14.984375 37.109375 14.984375 27.296875 
Q 14.984375 17.484375 19.15625 11.84375 
Q 23.34375 6.203125 30.609375 6.203125 
Q 37.796875 6.203125 41.984375 11.859375 
Q 46.1875 17.53125 46.1875 27.296875 
Q 46.1875 37.015625 41.984375 42.703125 
Q 37.796875 48.390625 30.609375 48.390625 
z
M 30.609375 56 
Q 42.328125 56 49.015625 48.375 
Q 55.71875 40.765625 55.71875 27.296875 
Q 55.71875 13.875 49.015625 6.21875 
Q 42.328125 -1.421875 30.609375 -1.421875 
Q 18.84375 -1.421875 12.171875 6.21875 
Q 5.515625 13.875 5.515625 27.296875 
Q 5.515625 40.765625 12.171875 48.375 
Q 18.84375 56 30.609375 56 
z
" id="DejaVuSans-6f"/>
      <path d="M 18.109375 8.203125 
L 18.109375 -20.796875 
L 9.078125 -20.796875 
L 9.078125 54.6875 
L 18.109375 54.6875 
L 18.109375 46.390625 
Q 20.953125 51.265625 25.265625 53.625 
Q 29.59375 56 35.59375 56 
Q 45.5625 56 51.78125 48.09375 
Q 58.015625 40.1875 58.015625 27.296875 
Q 58.015625 14.40625 51.78125 6.484375 
Q 45.5625 -1.421875 35.59375 -1.421875 
Q 29.59375 -1.421875 25.265625 0.953125 
Q 20.953125 3.328125 18.109375 8.203125 
z
M 48.6875 27.296875 
Q 48.6875 37.203125 44.609375 42.84375 
Q 40.53125 48.484375 33.40625 48.484375 
Q 26.265625 48.484375 22.1875 42.84375 
Q 18.109375 37.203125 18.109375 27.296875 
Q 18.109375 17.390625 22.1875 11.75 
Q 26.265625 6.109375 33.40625 6.109375 
Q 40.53125 6.109375 44.609375 11.75 
Q 48.6875 17.390625 48.6875 27.296875 
z
" id="DejaVuSans-70"/>
      <path d="M 32.171875 -5.078125 
Q 28.375 -14.84375 24.75 -17.8125 
Q 21.140625 -20.796875 15.09375 -20.796875 
L 7.90625 -20.796875 
L 7.90625 -13.28125 
L 13.1875 -13.28125 
Q 16.890625 -13.28125 18.9375 -11.515625 
Q 21 -9.765625 23.484375 -3.21875 
L 25.09375 0.875 
L 2.984375 54.6875 
L 12.5 54.6875 
L 29.59375 11.921875 
L 46.6875 54.6875 
L 56.203125 54.6875 
z
" id="DejaVuSans-79"/>
      <path id="DejaVuSans-20"/>
      <path d="M 31 75.875 
Q 24.46875 64.65625 21.28125 53.65625 
Q 18.109375 42.671875 18.109375 31.390625 
Q 18.109375 20.125 21.3125 9.0625 
Q 24.515625 -2 31 -13.1875 
L 23.1875 -13.1875 
Q 15.875 -1.703125 12.234375 9.375 
Q 8.59375 20.453125 8.59375 31.390625 
Q 8.59375 42.28125 12.203125 53.3125 
Q 15.828125 64.359375 23.1875 75.875 
z
" id="DejaVuSans-28"/>
      <path d="M 9.078125 75.984375 
L 18.109375 75.984375 
L 18.109375 31.109375 
L 44.921875 54.6875 
L 56.390625 54.6875 
L 27.390625 29.109375 
L 57.625 0 
L 45.90625 0 
L 18.109375 26.703125 
L 18.109375 0 
L 9.078125 0 
z
" id="DejaVuSans-6b"/>
      <path d="M 9.8125 72.90625 
L 19.671875 72.90625 
L 19.671875 5.078125 
Q 19.671875 -8.109375 14.671875 -14.0625 
Q 9.671875 -20.015625 -1.421875 -20.015625 
L -5.171875 -20.015625 
L -5.171875 -11.71875 
L -2.09375 -11.71875 
Q 4.4375 -11.71875 7.125 -8.046875 
Q 9.8125 -4.390625 9.8125 5.078125 
z
" id="DejaVuSans-4a"/>
      <path d="M 25.390625 72.90625 
L 33.6875 72.90625 
L 8.296875 -9.28125 
L 0 -9.28125 
z
" id="DejaVuSans-2f"/>
      <path d="M 9.8125 72.90625 
L 19.671875 72.90625 
L 19.671875 42.09375 
L 52.390625 72.90625 
L 65.09375 72.90625 
L 28.90625 38.921875 
L 67.671875 0 
L 54.6875 0 
L 19.671875 35.109375 
L 19.671875 0 
L 9.8125 0 
z
" id="DejaVuSans-4b"/>
      <path d="M 45.40625 27.984375 
Q 45.40625 37.75 41.375 43.109375 
Q 37.359375 48.484375 30.078125 48.484375 
Q 22.859375 48.484375 18.828125 43.109375 
Q 14.796875 37.75 14.796875 27.984375 
Q 14.796875 18.265625 18.828125 12.890625 
Q 22.859375 7.515625 30.078125 7.515625 
Q 37.359375 7.515625 41.375 12.890625 
Q 45.40625 18.265625 45.40625 27.984375 
z
M 54.390625 6.78125 
Q 54.390625 -7.171875 48.1875 -13.984375 
Q 42 -20.796875 29.203125 -20.796875 
Q 24.46875 -20.796875 20.265625 -20.09375 
Q 16.0625 -19.390625 12.109375 -17.921875 
L 12.109375 -9.1875 
Q 16.0625 -11.328125 19.921875 -12.34375 
Q 23.78125 -13.375 27.78125 -13.375 
Q 36.625 -13.375 41.015625 -8.765625 
Q 45.40625 -4.15625 45.40625 5.171875 
L 45.40625 9.625 
Q 42.625 4.78125 38.28125 2.390625 
Q 33.9375 0 27.875 0 
Q 17.828125 0 11.671875 7.65625 
Q 5.515625 15.328125 5.515625 27.984375 
Q 5.515625 40.671875 11.671875 48.328125 
Q 17.828125 56 27.875 56 
Q 33.9375 56 38.28125 53.609375 
Q 42.625 51.21875 45.40625 46.390625 
L 45.40625 54.6875 
L 54.390625 54.6875 
z
" id="DejaVuSans-67"/>
      <path d="M 8.015625 75.875 
L 15.828125 75.875 
Q 23.140625 64.359375 26.78125 53.3125 
Q 30.421875 42.28125 30.421875 31.390625 
Q 30.421875 20.453125 26.78125 9.375 
Q 23.140625 -1.703125 15.828125 -13.1875 
L 8.015625 -13.1875 
Q 14.5 -2 17.703125 9.0625 
Q 20.90625 20.125 20.90625 31.390625 
Q 20.90625 42.671875 17.703125 53.65625 
Q 14.5 64.65625 8.015625 75.875 
z
" id="DejaVuSans-29"/>
     </defs>
     <g transform="translate(118.588281 188.720313)scale(0.1 -0.1)">
      <use xlink:href="#DejaVuSans-45"/>
      <use x="63.183594" xlink:href="#DejaVuSans-6e"/>
      <use x="126.5625" xlink:href="#DejaVuSans-74"/>
      <use x="165.771484" xlink:href="#DejaVuSans-72"/>
      <use x="206.853516" xlink:href="#DejaVuSans-6f"/>
      <use x="268.035156" xlink:href="#DejaVuSans-70"/>
      <use x="331.511719" xlink:href="#DejaVuSans-79"/>
      <use x="390.691406" xlink:href="#DejaVuSans-20"/>
      <use x="422.478516" xlink:href="#DejaVuSans-28"/>
      <use x="461.492188" xlink:href="#DejaVuSans-6b"/>
      <use x="519.402344" xlink:href="#DejaVuSans-4a"/>
      <use x="548.894531" xlink:href="#DejaVuSans-2f"/>
      <use x="582.585938" xlink:href="#DejaVuSans-4b"/>
      <use x="648.162109" xlink:href="#DejaVuSans-2f"/>
      <use x="681.853516" xlink:href="#DejaVuSans-6b"/>
      <use x="739.763672" xlink:href="#DejaVuSans-67"/>
      <use x="803.240234" xlink:href="#DejaVuSans-29"/>
     </g>
    </g>
   </g>
   <g id="matplotlib.axis_2">
    <g id="ytick_1">
     <g id="line2d_7">
      <defs>
       <path d="M 0 0 
L -3.5 0 
" id="m5b0ed7554c" style="stroke:#000000;stroke-width:0.8;"/>
      </defs>
      <g>
       <use style="stroke:#000000;stroke-width:0.8;" x="50.565625" xlink:href="#m5b0ed7554c" y="153.906144"/>
      </g>
     </g>
     <g id="text_8">
      <!-- 300 -->
      <defs>
       <path d="M 40.578125 39.3125 
Q 47.65625 37.796875 51.625 33 
Q 55.609375 28.21875 55.609375 21.1875 
Q 55.609375 10.40625 48.1875 4.484375 
Q 40.765625 -1.421875 27.09375 -1.421875 
Q 22.515625 -1.421875 17.65625 -0.515625 
Q 12.796875 0.390625 7.625 2.203125 
L 7.625 11.71875 
Q 11.71875 9.328125 16.59375 8.109375 
Q 21.484375 6.890625 26.8125 6.890625 
Q 36.078125 6.890625 40.9375 10.546875 
Q 45.796875 14.203125 45.796875 21.1875 
Q 45.796875 27.640625 41.28125 31.265625 
Q 36.765625 34.90625 28.71875 34.90625 
L 20.21875 34.90625 
L 20.21875 43.015625 
L 29.109375 43.015625 
Q 36.375 43.015625 40.234375 45.921875 
Q 44.09375 48.828125 44.09375 54.296875 
Q 44.09375 59.90625 40.109375 62.90625 
Q 36.140625 65.921875 28.71875 65.921875 
Q 24.65625 65.921875 20.015625 65.03125 
Q 15.375 64.15625 9.8125 62.3125 
L 9.8125 71.09375 
Q 15.4375 72.65625 20.34375 73.4375 
Q 25.25 74.21875 29.59375 74.21875 
Q 40.828125 74.21875 47.359375 69.109375 
Q 53.90625 64.015625 53.90625 55.328125 
Q 53.90625 49.265625 50.4375 45.09375 
Q 46.96875 40.921875 40.578125 39.3125 
z
" id="DejaVuSans-33"/>
      </defs>
      <g transform="translate(24.478125 157.705363)scale(0.1 -0.1)">
       <use xlink:href="#DejaVuSans-33"/>
       <use x="63.623047" xlink:href="#DejaVuSans-30"/>
       <use x="127.246094" xlink:href="#DejaVuSans-30"/>
      </g>
     </g>
    </g>
    <g id="ytick_2">
     <g id="line2d_8">
      <g>
       <use style="stroke:#000000;stroke-width:0.8;" x="50.565625" xlink:href="#m5b0ed7554c" y="129.548446"/>
      </g>
     </g>
     <g id="text_9">
      <!-- 400 -->
      <g transform="translate(24.478125 133.347665)scale(0.1 -0.1)">
       <use xlink:href="#DejaVuSans-34"/>
       <use x="63.623047" xlink:href="#DejaVuSans-30"/>
       <use x="127.246094" xlink:href="#DejaVuSans-30"/>
      </g>
     </g>
    </g>
    <g id="ytick_3">
     <g id="line2d_9">
      <g>
       <use style="stroke:#000000;stroke-width:0.8;" x="50.565625" xlink:href="#m5b0ed7554c" y="105.190749"/>
      </g>
     </g>
     <g id="text_10">
      <!-- 500 -->
      <defs>
       <path d="M 10.796875 72.90625 
L 49.515625 72.90625 
L 49.515625 64.59375 
L 19.828125 64.59375 
L 19.828125 46.734375 
Q 21.96875 47.46875 24.109375 47.828125 
Q 26.265625 48.1875 28.421875 48.1875 
Q 40.625 48.1875 47.75 41.5 
Q 54.890625 34.8125 54.890625 23.390625 
Q 54.890625 11.625 47.5625 5.09375 
Q 40.234375 -1.421875 26.90625 -1.421875 
Q 22.3125 -1.421875 17.546875 -0.640625 
Q 12.796875 0.140625 7.71875 1.703125 
L 7.71875 11.625 
Q 12.109375 9.234375 16.796875 8.0625 
Q 21.484375 6.890625 26.703125 6.890625 
Q 35.15625 6.890625 40.078125 11.328125 
Q 45.015625 15.765625 45.015625 23.390625 
Q 45.015625 31 40.078125 35.4375 
Q 35.15625 39.890625 26.703125 39.890625 
Q 22.75 39.890625 18.8125 39.015625 
Q 14.890625 38.140625 10.796875 36.28125 
z
" id="DejaVuSans-35"/>
      </defs>
      <g transform="translate(24.478125 108.989967)scale(0.1 -0.1)">
       <use xlink:href="#DejaVuSans-35"/>
       <use x="63.623047" xlink:href="#DejaVuSans-30"/>
       <use x="127.246094" xlink:href="#DejaVuSans-30"/>
      </g>
     </g>
    </g>
    <g id="ytick_4">
     <g id="line2d_10">
      <g>
       <use style="stroke:#000000;stroke-width:0.8;" x="50.565625" xlink:href="#m5b0ed7554c" y="80.833051"/>
      </g>
     </g>
     <g id="text_11">
      <!-- 600 -->
      <g transform="translate(24.478125 84.63227)scale(0.1 -0.1)">
       <use xlink:href="#DejaVuSans-36"/>
       <use x="63.623047" xlink:href="#DejaVuSans-30"/>
       <use x="127.246094" xlink:href="#DejaVuSans-30"/>
      </g>
     </g>
    </g>
    <g id="ytick_5">
     <g id="line2d_11">
      <g>
       <use style="stroke:#000000;stroke-width:0.8;" x="50.565625" xlink:href="#m5b0ed7554c" y="56.475353"/>
      </g>
     </g>
     <g id="text_12">
      <!-- 700 -->
      <defs>
       <path d="M 8.203125 72.90625 
L 55.078125 72.90625 
L 55.078125 68.703125 
L 28.609375 0 
L 18.3125 0 
L 43.21875 64.59375 
L 8.203125 64.59375 
z
" id="DejaVuSans-37"/>
      </defs>
      <g transform="translate(24.478125 60.274572)scale(0.1 -0.1)">
       <use xlink:href="#DejaVuSans-37"/>
       <use x="63.623047" xlink:href="#DejaVuSans-30"/>
       <use x="127.246094" xlink:href="#DejaVuSans-30"/>
      </g>
     </g>
    </g>
    <g id="ytick_6">
     <g id="line2d_12">
      <g>
       <use style="stroke:#000000;stroke-width:0.8;" x="50.565625" xlink:href="#m5b0ed7554c" y="32.117656"/>
      </g>
     </g>
     <g id="text_13">
      <!-- 800 -->
      <g transform="translate(24.478125 35.916875)scale(0.1 -0.1)">
       <use xlink:href="#DejaVuSans-38"/>
       <use x="63.623047" xlink:href="#DejaVuSans-30"/>
       <use x="127.246094" xlink:href="#DejaVuSans-30"/>
      </g>
     </g>
    </g>
    <g id="text_14">
     <!-- Temperature (K) -->
     <defs>
      <path d="M -0.296875 72.90625 
L 61.375 72.90625 
L 61.375 64.59375 
L 35.5 64.59375 
L 35.5 0 
L 25.59375 0 
L 25.59375 64.59375 
L -0.296875 64.59375 
z
" id="DejaVuSans-54"/>
      <path d="M 56.203125 29.59375 
L 56.203125 25.203125 
L 14.890625 25.203125 
Q 15.484375 15.921875 20.484375 11.0625 
Q 25.484375 6.203125 34.421875 6.203125 
Q 39.59375 6.203125 44.453125 7.46875 
Q 49.3125 8.734375 54.109375 11.28125 
L 54.109375 2.78125 
Q 49.265625 0.734375 44.1875 -0.34375 
Q 39.109375 -1.421875 33.890625 -1.421875 
Q 20.796875 -1.421875 13.15625 6.1875 
Q 5.515625 13.8125 5.515625 26.8125 
Q 5.515625 40.234375 12.765625 48.109375 
Q 20.015625 56 32.328125 56 
Q 43.359375 56 49.78125 48.890625 
Q 56.203125 41.796875 56.203125 29.59375 
z
M 47.21875 32.234375 
Q 47.125 39.59375 43.09375 43.984375 
Q 39.0625 48.390625 32.421875 48.390625 
Q 24.90625 48.390625 20.390625 44.140625 
Q 15.875 39.890625 15.1875 32.171875 
z
" id="DejaVuSans-65"/>
      <path d="M 52 44.1875 
Q 55.375 50.25 60.0625 53.125 
Q 64.75 56 71.09375 56 
Q 79.640625 56 84.28125 50.015625 
Q 88.921875 44.046875 88.921875 33.015625 
L 88.921875 0 
L 79.890625 0 
L 79.890625 32.71875 
Q 79.890625 40.578125 77.09375 44.375 
Q 74.3125 48.1875 68.609375 48.1875 
Q 61.625 48.1875 57.5625 43.546875 
Q 53.515625 38.921875 53.515625 30.90625 
L 53.515625 0 
L 44.484375 0 
L 44.484375 32.71875 
Q 44.484375 40.625 41.703125 44.40625 
Q 38.921875 48.1875 33.109375 48.1875 
Q 26.21875 48.1875 22.15625 43.53125 
Q 18.109375 38.875 18.109375 30.90625 
L 18.109375 0 
L 9.078125 0 
L 9.078125 54.6875 
L 18.109375 54.6875 
L 18.109375 46.1875 
Q 21.1875 51.21875 25.484375 53.609375 
Q 29.78125 56 35.6875 56 
Q 41.65625 56 45.828125 52.96875 
Q 50 49.953125 52 44.1875 
z
" id="DejaVuSans-6d"/>
      <path d="M 34.28125 27.484375 
Q 23.390625 27.484375 19.1875 25 
Q 14.984375 22.515625 14.984375 16.5 
Q 14.984375 11.71875 18.140625 8.90625 
Q 21.296875 6.109375 26.703125 6.109375 
Q 34.1875 6.109375 38.703125 11.40625 
Q 43.21875 16.703125 43.21875 25.484375 
L 43.21875 27.484375 
z
M 52.203125 31.203125 
L 52.203125 0 
L 43.21875 0 
L 43.21875 8.296875 
Q 40.140625 3.328125 35.546875 0.953125 
Q 30.953125 -1.421875 24.3125 -1.421875 
Q 15.921875 -1.421875 10.953125 3.296875 
Q 6 8.015625 6 15.921875 
Q 6 25.140625 12.171875 29.828125 
Q 18.359375 34.515625 30.609375 34.515625 
L 43.21875 34.515625 
L 43.21875 35.40625 
Q 43.21875 41.609375 39.140625 45 
Q 35.0625 48.390625 27.6875 48.390625 
Q 23 48.390625 18.546875 47.265625 
Q 14.109375 46.140625 10.015625 43.890625 
L 10.015625 52.203125 
Q 14.9375 54.109375 19.578125 55.046875 
Q 24.21875 56 28.609375 56 
Q 40.484375 56 46.34375 49.84375 
Q 52.203125 43.703125 52.203125 31.203125 
z
" id="DejaVuSans-61"/>
      <path d="M 8.5 21.578125 
L 8.5 54.6875 
L 17.484375 54.6875 
L 17.484375 21.921875 
Q 17.484375 14.15625 20.5 10.265625 
Q 23.53125 6.390625 29.59375 6.390625 
Q 36.859375 6.390625 41.078125 11.03125 
Q 45.3125 15.671875 45.3125 23.6875 
L 45.3125 54.6875 
L 54.296875 54.6875 
L 54.296875 0 
L 45.3125 0 
L 45.3125 8.40625 
Q 42.046875 3.421875 37.71875 1 
Q 33.40625 -1.421875 27.6875 -1.421875 
Q 18.265625 -1.421875 13.375 4.4375 
Q 8.5 10.296875 8.5 21.578125 
z
M 31.109375 56 
z
" id="DejaVuSans-75"/>
     </defs>
     <g transform="translate(18.398438 128.758594)rotate(-90)scale(0.1 -0.1)">
      <use xlink:href="#DejaVuSans-54"/>
      <use x="60.818359" xlink:href="#DejaVuSans-65"/>
      <use x="122.341797" xlink:href="#DejaVuSans-6d"/>
      <use x="219.753906" xlink:href="#DejaVuSans-70"/>
      <use x="283.230469" xlink:href="#DejaVuSans-65"/>
      <use x="344.753906" xlink:href="#DejaVuSans-72"/>
      <use x="385.867188" xlink:href="#DejaVuSans-61"/>
      <use x="447.146484" xlink:href="#DejaVuSans-74"/>
      <use x="486.355469" xlink:href="#DejaVuSans-75"/>
      <use x="549.734375" xlink:href="#DejaVuSans-72"/>
      <use x="590.816406" xlink:href="#DejaVuSans-65"/>
      <use x="652.339844" xlink:href="#DejaVuSans-20"/>
      <use x="684.126953" xlink:href="#DejaVuSans-28"/>
      <use x="723.140625" xlink:href="#DejaVuSans-4b"/>
      <use x="788.716797" xlink:href="#DejaVuSans-29"/>
     </g>
    </g>
   </g>
   <g id="line2d_13">
    <path clip-path="url(#pbed963e500)" d="M 50.565632 160.44375 
L 56.02295 156.401102 
L 61.054937 152.438772 
L 235.457341 152.438772 
L 238.463964 146.894741 
L 241.703295 140.426705 
L 244.921738 133.496666 
L 248.310015 125.642622 
L 251.647657 117.326576 
L 255.103976 108.086524 
L 258.492624 98.38447 
L 261.96539 87.75841 
L 265.500642 76.208346 
L 269.0815 63.734276 
L 272.695217 50.336201 
L 276.446376 35.552119 
L 280.201894 19.844031 
L 281.477607 14.3 
L 281.477607 14.3 
" style="fill:none;stroke:#000000;stroke-linecap:square;"/>
   </g>
   <g id="line2d_14">
    <path clip-path="url(#pbed963e500)" d="M 50.565773 160.44375 
L 56.041 156.387016 
L 61.687067 151.924608 
L 67.380352 147.137661 
L 73.016083 142.10731 
L 78.679282 136.752421 
L 79.261719 136.184478 
L 212.660369 136.184478 
L 215.212908 130.885153 
L 218.104488 124.362906 
L 221.115232 117.025379 
L 224.377531 108.464931 
L 227.703653 99.089202 
L 231.079927 88.898192 
L 234.493974 77.891901 
L 238.050358 65.66269 
L 241.612383 52.618197 
L 245.277694 38.350783 
L 249.026684 22.860448 
L 251.009045 14.3 
L 251.009045 14.3 
" style="fill:none;stroke:#000000;stroke-linecap:square;"/>
   </g>
   <g id="line2d_15">
    <path clip-path="url(#pbed963e500)" d="M 50.567079 160.44375 
L 56.097682 156.340982 
L 61.65497 151.94516 
L 67.402708 147.109755 
L 72.981275 142.127823 
L 78.711495 136.706309 
L 84.424612 130.99174 
L 90.401408 124.691061 
L 96.756877 117.657745 
L 97.661164 116.632054 
L 195.614999 116.632054 
L 197.515168 112.867329 
L 199.831449 107.733614 
L 202.354458 101.573156 
L 205.053668 94.385955 
L 208.01938 85.829763 
L 211.101679 76.246828 
L 214.385035 65.294903 
L 217.743803 53.316234 
L 221.254652 39.968575 
L 224.892957 25.251925 
L 227.466753 14.3 
L 227.466753 14.3 
" style="fill:none;stroke:#000000;stroke-linecap:square;"/>
   </g>
   <g id="line2d_16">
    <path clip-path="url(#pbed963e500)" d="M 50.572055 160.44375 
L 56.059149 156.358598 
L 61.748641 151.84343 
L 67.355059 147.113255 
L 73.115663 141.953063 
L 78.776 136.577863 
L 84.557302 130.772648 
L 90.447584 124.537416 
L 96.640915 117.65716 
L 103.875025 109.271849 
L 114.90687 96.156362 
L 182.148735 96.156362 
L 183.840921 93.692458 
L 185.631994 90.68102 
L 187.638217 86.84828 
L 189.67948 82.468007 
L 191.86191 77.266432 
L 194.25651 70.969789 
L 196.821622 63.578077 
L 199.529952 55.091297 
L 202.440517 45.235682 
L 205.595876 33.737464 
L 208.890621 20.87041 
L 210.494271 14.3 
L 210.494271 14.3 
" style="fill:none;stroke:#000000;stroke-linecap:square;"/>
   </g>
   <g id="line2d_17">
    <path clip-path="url(#pbed963e500)" d="M 50.578907 160.44375 
L 56.387892 156.044774 
L 62.439977 151.157023 
L 68.12644 146.269273 
L 74.013302 140.892747 
L 79.564631 135.516221 
L 85.292893 129.65092 
L 91.174556 123.296844 
L 97.202665 116.453992 
L 103.795734 108.633591 
L 112.544722 97.880539 
L 122.916862 85.172387 
L 127.180493 80.284636 
L 130.432297 76.863211 
L 133.030882 74.419335 
L 135.454966 72.464235 
L 136.904072 71.486685 
L 138.699295 70.509135 
L 139.873052 70.02036 
L 141.579266 69.531584 
L 153.936486 69.042809 
L 158.165458 68.554034 
L 160.222716 68.065259 
L 162.923775 67.087709 
L 164.866156 66.110159 
L 167.126446 64.643834 
L 168.948857 63.177508 
L 170.97415 61.222408 
L 172.698184 59.267308 
L 174.568248 56.823432 
L 176.521644 53.890782 
L 178.519968 50.469356 
L 180.541224 46.559156 
L 182.573915 42.16018 
L 184.806576 36.783654 
L 187.185404 30.429578 
L 189.675553 23.097952 
L 192.25532 14.788775 
L 192.400524 14.3 
L 192.400524 14.3 
" style="fill:none;stroke:#000000;stroke-linecap:square;"/>
   </g>
   <g id="line2d_18">
    <path clip-path="url(#pbed963e500)" d="M 50.38122 160.44375 
L 56.534098 155.555999 
L 62.342802 150.668248 
L 67.822143 145.780497 
L 73.502049 140.403972 
L 78.856533 135.027446 
L 84.371721 129.162145 
L 89.590855 123.296844 
L 94.957277 116.942768 
L 100.451183 110.099916 
L 106.061732 102.76829 
L 112.137877 94.459114 
L 118.65053 85.172387 
L 126.255768 73.93056 
L 138.503206 55.357107 
L 154.435286 30.918353 
L 158.930917 23.586727 
L 162.585327 17.232651 
L 164.18401 14.3 
L 164.18401 14.3 
" style="fill:none;stroke:#000000;stroke-linecap:square;"/>
   </g>
   <g id="line2d_19">
    <path clip-path="url(#pbed963e500)" d="M 47.507411 160.44375 
L 58.775253 150.668248 
L 63.974496 145.780497 
L 68.850145 140.892747 
L 73.881262 135.516221 
L 78.609275 130.139695 
L 83.46693 124.274394 
L 88.421151 117.920318 
L 93.094063 111.566242 
L 97.848473 104.72339 
L 102.658097 97.391764 
L 107.204877 90.060138 
L 111.794877 82.239737 
L 116.40715 73.93056 
L 121.023064 65.132609 
L 125.39035 56.334657 
L 129.756144 47.047931 
L 134.10614 37.272429 
L 138.427974 27.008152 
L 142.711207 16.2551 
L 143.464985 14.3 
L 143.464985 14.3 
" style="fill:none;stroke:#000000;stroke-linecap:square;"/>
   </g>
   <g id="line2d_20">
    <path clip-path="url(#pbed963e500)" d="M 36.091917 160.44375 
L 39.477026 157.999875 
L 43.761933 154.578449 
L 48.296278 150.668248 
L 53.047272 146.269273 
L 57.472008 141.870297 
L 62.050729 136.982546 
L 66.32259 132.094795 
L 70.721088 126.718269 
L 75.216205 120.852968 
L 79.783831 114.498892 
L 84.082233 108.144816 
L 88.449456 101.301965 
L 92.863106 93.970339 
L 97.302206 86.149937 
L 101.747454 77.840761 
L 105.942091 69.531584 
L 110.137913 60.733633 
L 114.320196 51.446906 
L 118.476639 41.671405 
L 122.597266 31.407128 
L 126.674253 20.654076 
L 128.978456 14.3 
L 128.978456 14.3 
" style="fill:none;stroke:#000000;stroke-linecap:square;"/>
   </g>
   <g id="line2d_21">
    <path clip-path="url(#pbed963e500)" d="M 252.205027 160.44375 
L 250.035621 159.523728 
L 247.93332 158.603706 
L 245.897079 157.683683 
L 243.925476 156.763661 
L 242.016823 155.843639 
L 240.169252 154.923617 
L 238.38078 154.003594 
L 236.649361 153.083572 
L 234.972916 152.16355 
L 233.349366 151.243528 
L 231.776651 150.323506 
L 230.252745 149.403483 
L 228.775667 148.483461 
L 227.343489 147.563439 
L 225.954339 146.643417 
L 224.606408 145.723394 
L 223.29795 144.803372 
L 222.027284 143.88335 
L 220.79279 142.963328 
L 219.592914 142.043306 
L 218.426163 141.123283 
L 217.291104 140.203261 
L 216.186365 139.283239 
L 215.110627 138.363217 
L 214.062629 137.443194 
L 213.041161 136.523172 
L 212.045065 135.60315 
L 211.073231 134.683128 
L 210.124593 133.763105 
L 209.198134 132.843083 
L 208.292873 131.923061 
L 207.407875 131.003039 
L 206.542238 130.083017 
L 205.695099 129.162994 
L 204.865628 128.242972 
L 204.053028 127.32295 
L 203.256532 126.402928 
L 202.475402 125.482905 
L 201.708925 124.562883 
L 200.956416 123.642861 
L 200.217211 122.722839 
L 199.490669 121.802817 
L 198.77617 120.882794 
L 198.07311 119.962772 
L 197.380905 119.04275 
L 196.698985 118.122728 
L 196.026794 117.202705 
L 195.363789 116.282683 
L 194.709438 115.362661 
L 194.063219 114.442639 
L 193.424618 113.522617 
L 192.793128 112.602594 
L 192.168249 111.682572 
L 191.549483 110.76255 
L 190.936337 109.842528 
L 190.328317 108.922505 
L 189.724932 108.002483 
L 189.125688 107.082461 
L 188.530089 106.162439 
L 187.937635 105.242417 
L 187.347821 104.322394 
L 186.760132 103.402372 
L 186.174047 102.48235 
L 185.589034 101.562328 
L 185.004547 100.642305 
L 184.420025 99.722283 
L 183.83489 98.802261 
L 183.248543 97.882239 
L 182.660364 96.962217 
L 182.069703 96.042194 
L 181.475881 95.122172 
L 180.878181 94.20215 
L 180.275846 93.282128 
L 179.668071 92.362105 
L 179.053992 91.442083 
L 178.43268 90.522061 
L 177.80313 89.602039 
L 177.16424 88.682017 
L 176.514804 87.761994 
L 175.853478 86.841972 
L 175.178763 85.92195 
L 174.488965 85.001928 
L 173.78215 84.081905 
L 173.05609 83.161883 
L 172.308182 82.241861 
L 171.535353 81.321839 
L 170.733912 80.401816 
L 169.899366 79.481794 
L 169.026137 78.561772 
L 168.107154 77.64175 
L 167.133224 76.721728 
L 166.092035 75.801705 
L 164.966455 74.881683 
L 163.731459 73.961661 
L 162.347991 73.041639 
L 160.749009 72.121616 
L 158.800546 71.201594 
L 156.144086 70.281572 
L 147.715055 69.36155 
" style="fill:none;stroke:#000000;stroke-dasharray:3.7,1.6;stroke-dashoffset:0;"/>
   </g>
   <g id="line2d_22">
    <path clip-path="url(#pbed963e500)" d="M 50.565625 160.44375 
L 51.840386 159.523728 
L 53.094815 158.603706 
L 54.330249 157.683683 
L 55.547776 156.763661 
L 56.748299 155.843639 
L 57.932584 154.923617 
L 59.101293 154.003594 
L 60.255008 153.083572 
L 61.394251 152.16355 
L 62.519497 151.243528 
L 63.63118 150.323506 
L 64.729709 149.403483 
L 65.815465 148.483461 
L 66.888809 147.563439 
L 67.950086 146.643417 
L 68.999626 145.723394 
L 70.037745 144.803372 
L 71.064752 143.88335 
L 72.080941 142.963328 
L 73.086603 142.043306 
L 74.082015 141.123283 
L 75.067453 140.203261 
L 76.043182 139.283239 
L 77.009462 138.363217 
L 77.966548 137.443194 
L 78.91469 136.523172 
L 79.854131 135.60315 
L 80.785111 134.683128 
L 81.707864 133.763105 
L 82.622621 132.843083 
L 83.52961 131.923061 
L 84.429051 131.003039 
L 85.321166 130.083017 
L 86.206168 129.162994 
L 87.08427 128.242972 
L 87.955681 127.32295 
L 88.820608 126.402928 
L 89.679253 125.482905 
L 90.531818 124.562883 
L 91.378499 123.642861 
L 92.219494 122.722839 
L 93.054997 121.802817 
L 93.885198 120.882794 
L 94.710289 119.962772 
L 95.530458 119.04275 
L 96.345893 118.122728 
L 97.15678 117.202705 
L 97.963305 116.282683 
L 98.765653 115.362661 
L 99.56401 114.442639 
L 100.35856 113.522617 
L 101.149488 112.602594 
L 101.936982 111.682572 
L 102.721228 110.76255 
L 103.502415 109.842528 
L 104.280733 108.922505 
L 105.056377 108.002483 
L 105.829543 107.082461 
L 106.600431 106.162439 
L 107.369244 105.242417 
L 108.136193 104.322394 
L 108.901492 103.402372 
L 109.665364 102.48235 
L 110.428038 101.562328 
L 111.189754 100.642305 
L 111.95076 99.722283 
L 112.711318 98.802261 
L 113.471701 97.882239 
L 114.232201 96.962217 
L 114.993125 96.042194 
L 115.7548 95.122172 
L 116.51758 94.20215 
L 117.281843 93.282128 
L 118.047998 92.362105 
L 118.816492 91.442083 
L 119.587814 90.522061 
L 120.362502 89.602039 
L 121.141151 88.682017 
L 121.924425 87.761994 
L 122.713071 86.841972 
L 123.507933 85.92195 
L 124.309971 85.001928 
L 125.120294 84.081905 
L 125.940184 83.161883 
L 126.771148 82.241861 
L 127.614974 81.321839 
L 128.473813 80.401816 
L 129.350289 79.481794 
L 130.247666 78.561772 
L 131.17008 77.64175 
L 132.122916 76.721728 
L 133.113391 75.801705 
L 134.151571 74.881683 
L 135.25222 73.961661 
L 136.438543 73.041639 
L 137.750888 72.121616 
L 139.271687 71.201594 
L 141.230863 70.281572 
L 147.715055 69.36155 
" style="fill:none;stroke:#000000;stroke-dasharray:3.7,1.6;stroke-dashoffset:0;"/>
   </g>
   <g id="patch_3">
    <path d="M 50.565625 160.44375 
L 50.565625 14.3 
" style="fill:none;stroke:#000000;stroke-linecap:square;stroke-linejoin:miter;stroke-width:0.8;"/>
   </g>
   <g id="patch_4">
    <path d="M 270.8375 160.44375 
L 270.8375 14.3 
" style="fill:none;stroke:#000000;stroke-linecap:square;stroke-linejoin:miter;stroke-width:0.8;"/>
   </g>
   <g id="patch_5">
    <path d="M 50.565625 160.44375 
L 270.8375 160.44375 
" style="fill:none;stroke:#000000;stroke-linecap:square;stroke-linejoin:miter;stroke-width:0.8;"/>
   </g>
   <g id="patch_6">
    <path d="M 50.565625 14.3 
L 270.8375 14.3 
" style="fill:none;stroke:#000000;stroke-linecap:square;stroke-linejoin:miter;stroke-width:0.8;"/>
   </g>
   <g id="text_15">
    <g id="patch_7">
     <path d="M 135.663014 157.910022 
L 160.849264 157.910022 
L 160.849264 146.967522 
L 135.663014 146.967522 
z
" style="fill:#ffffff;stroke:#ffffff;stroke-linejoin:miter;"/>
    </g>
    <!-- 5 kPa -->
    <defs>
     <path d="M 19.671875 64.796875 
L 19.671875 37.40625 
L 32.078125 37.40625 
Q 38.96875 37.40625 42.71875 40.96875 
Q 46.484375 44.53125 46.484375 51.125 
Q 46.484375 57.671875 42.71875 61.234375 
Q 38.96875 64.796875 32.078125 64.796875 
z
M 9.8125 72.90625 
L 32.078125 72.90625 
Q 44.34375 72.90625 50.609375 67.359375 
Q 56.890625 61.8125 56.890625 51.125 
Q 56.890625 40.328125 50.609375 34.8125 
Q 44.34375 29.296875 32.078125 29.296875 
L 19.671875 29.296875 
L 19.671875 0 
L 9.8125 0 
z
" id="DejaVuSans-50"/>
    </defs>
    <g transform="translate(137.263014 154.646272)scale(0.08 -0.08)">
     <use xlink:href="#DejaVuSans-35"/>
     <use x="63.623047" xlink:href="#DejaVuSans-20"/>
     <use x="95.410156" xlink:href="#DejaVuSans-6b"/>
     <use x="153.320312" xlink:href="#DejaVuSans-50"/>
     <use x="213.560547" xlink:href="#DejaVuSans-61"/>
    </g>
   </g>
   <g id="text_16">
    <g id="patch_8">
     <path d="M 128.277919 141.655728 
L 163.644169 141.655728 
L 163.644169 130.713228 
L 128.277919 130.713228 
z
" style="fill:#ffffff;stroke:#ffffff;stroke-linejoin:miter;"/>
    </g>
    <!-- 100 kPa -->
    <g transform="translate(129.877919 138.391978)scale(0.08 -0.08)">
     <use xlink:href="#DejaVuSans-31"/>
     <use x="63.623047" xlink:href="#DejaVuSans-30"/>
     <use x="127.246094" xlink:href="#DejaVuSans-30"/>
     <use x="190.869141" xlink:href="#DejaVuSans-20"/>
     <use x="222.65625" xlink:href="#DejaVuSans-6b"/>
     <use x="280.566406" xlink:href="#DejaVuSans-50"/>
     <use x="340.806641" xlink:href="#DejaVuSans-61"/>
    </g>
   </g>
   <g id="text_17">
    <g id="patch_9">
     <path d="M 132.909957 122.103304 
L 160.366207 122.103304 
L 160.366207 111.160804 
L 132.909957 111.160804 
z
" style="fill:#ffffff;stroke:#ffffff;stroke-linejoin:miter;"/>
    </g>
    <!-- 1 MPa -->
    <defs>
     <path d="M 9.8125 72.90625 
L 24.515625 72.90625 
L 43.109375 23.296875 
L 61.8125 72.90625 
L 76.515625 72.90625 
L 76.515625 0 
L 66.890625 0 
L 66.890625 64.015625 
L 48.09375 14.015625 
L 38.1875 14.015625 
L 19.390625 64.015625 
L 19.390625 0 
L 9.8125 0 
z
" id="DejaVuSans-4d"/>
    </defs>
    <g transform="translate(134.509957 118.839554)scale(0.08 -0.08)">
     <use xlink:href="#DejaVuSans-31"/>
     <use x="63.623047" xlink:href="#DejaVuSans-20"/>
     <use x="95.410156" xlink:href="#DejaVuSans-4d"/>
     <use x="181.689453" xlink:href="#DejaVuSans-50"/>
     <use x="241.929688" xlink:href="#DejaVuSans-61"/>
    </g>
   </g>
   <g id="text_18">
    <g id="patch_10">
     <path d="M 134.799677 101.627612 
L 162.255927 101.627612 
L 162.255927 90.685112 
L 134.799677 90.685112 
z
" style="fill:#ffffff;stroke:#ffffff;stroke-linejoin:miter;"/>
    </g>
    <!-- 5 MPa -->
    <g transform="translate(136.399677 98.363862)scale(0.08 -0.08)">
     <use xlink:href="#DejaVuSans-35"/>
     <use x="63.623047" xlink:href="#DejaVuSans-20"/>
     <use x="95.410156" xlink:href="#DejaVuSans-4d"/>
     <use x="181.689453" xlink:href="#DejaVuSans-50"/>
     <use x="241.929688" xlink:href="#DejaVuSans-61"/>
    </g>
   </g>
   <g id="text_19">
    <g id="patch_11">
     <path d="M 186.502068 51.353575 
L 189.525075 40.071562 
L 178.955432 37.239434 
L 175.932425 48.521448 
z
" style="fill:#ffffff;stroke:#ffffff;stroke-linejoin:miter;"/>
    </g>
    <!-- $\mathregular{p_c}$ -->
    <defs>
     <path d="M 48.78125 52.59375 
L 48.78125 44.1875 
Q 44.96875 46.296875 41.140625 47.34375 
Q 37.3125 48.390625 33.40625 48.390625 
Q 24.65625 48.390625 19.8125 42.84375 
Q 14.984375 37.3125 14.984375 27.296875 
Q 14.984375 17.28125 19.8125 11.734375 
Q 24.65625 6.203125 33.40625 6.203125 
Q 37.3125 6.203125 41.140625 7.25 
Q 44.96875 8.296875 48.78125 10.40625 
L 48.78125 2.09375 
Q 45.015625 0.34375 40.984375 -0.53125 
Q 36.96875 -1.421875 32.421875 -1.421875 
Q 20.0625 -1.421875 12.78125 6.34375 
Q 5.515625 14.109375 5.515625 27.296875 
Q 5.515625 40.671875 12.859375 48.328125 
Q 20.21875 56 33.015625 56 
Q 37.15625 56 41.109375 55.140625 
Q 45.0625 54.296875 48.78125 52.59375 
z
" id="DejaVuSans-63"/>
    </defs>
    <g transform="translate(183.747942 48.959167)rotate(-75)scale(0.08 -0.08)">
     <use xlink:href="#DejaVuSans-70"/>
     <use transform="translate(64.433594 -16.40625)scale(0.7)" xlink:href="#DejaVuSans-63"/>
    </g>
   </g>
   <g id="text_20">
    <g id="patch_12">
     <path d="M 141.184417 63.329104 
L 160.002542 30.735155 
L 150.526059 25.263905 
L 131.707934 57.857854 
z
" style="fill:#ffffff;stroke:#ffffff;stroke-linejoin:miter;"/>
    </g>
    <!-- 100 MPa -->
    <g transform="translate(139.157927 60.311588)rotate(-60)scale(0.08 -0.08)">
     <use xlink:href="#DejaVuSans-31"/>
     <use x="63.623047" xlink:href="#DejaVuSans-30"/>
     <use x="127.246094" xlink:href="#DejaVuSans-30"/>
     <use x="190.869141" xlink:href="#DejaVuSans-20"/>
     <use x="222.65625" xlink:href="#DejaVuSans-4d"/>
     <use x="308.935547" xlink:href="#DejaVuSans-50"/>
     <use x="369.175781" xlink:href="#DejaVuSans-61"/>
    </g>
   </g>
   <g id="text_21">
    <g id="patch_13">
     <path d="M 128.856157 63.793933 
L 142.954945 28.898209 
L 132.809235 24.799077 
L 118.710448 59.6948 
z
" style="fill:#ffffff;stroke:#ffffff;stroke-linejoin:miter;"/>
    </g>
    <!-- 500 MPa -->
    <g transform="translate(126.429431 61.087816)rotate(-68)scale(0.08 -0.08)">
     <use xlink:href="#DejaVuSans-35"/>
     <use x="63.623047" xlink:href="#DejaVuSans-30"/>
     <use x="127.246094" xlink:href="#DejaVuSans-30"/>
     <use x="190.869141" xlink:href="#DejaVuSans-20"/>
     <use x="222.65625" xlink:href="#DejaVuSans-4d"/>
     <use x="308.935547" xlink:href="#DejaVuSans-50"/>
     <use x="369.175781" xlink:href="#DejaVuSans-61"/>
    </g>
   </g>
   <g id="text_22">
    <g id="patch_14">
     <path d="M 114.289982 66.153616 
L 130.295517 26.538526 
L 120.149807 22.439394 
L 104.144272 62.054483 
z
" style="fill:#ffffff;stroke:#ffffff;stroke-linejoin:miter;"/>
    </g>
    <!-- 2000 MPa -->
    <g transform="translate(111.863256 63.447499)rotate(-68)scale(0.08 -0.08)">
     <use xlink:href="#DejaVuSans-32"/>
     <use x="63.623047" xlink:href="#DejaVuSans-30"/>
     <use x="127.246094" xlink:href="#DejaVuSans-30"/>
     <use x="190.869141" xlink:href="#DejaVuSans-30"/>
     <use x="254.492188" xlink:href="#DejaVuSans-20"/>
     <use x="286.279297" xlink:href="#DejaVuSans-4d"/>
     <use x="372.558594" xlink:href="#DejaVuSans-50"/>
     <use x="432.798828" xlink:href="#DejaVuSans-61"/>
    </g>
   </g>
  </g>
 </g>
 <defs>
  <clipPath id="pbed963e500">
   <rect height="146.14375" width="220.271875" x="50.565625" y="14.3"/>
  </clipPath>
 </defs>
</svg>
